<svg width="54" height="54" viewBox="0 0 54 54" fill="none" xmlns="http://www.w3.org/2000/svg">
<g clip-path="url(#clip0_620_2775)">
<path d="M17.8872 4.99931L9.24932 9.99853L8.62705 9.54501C7.76221 8.90165 7.11885 8.70126 5.95869 8.71181C5.2415 8.71181 4.86182 8.77509 4.42939 8.94384C3.24814 9.41845 2.35166 10.3149 1.87705 11.4962C1.5501 12.3188 1.5501 13.8376 1.87705 14.6602C2.35166 15.8309 3.26924 16.7591 4.37666 17.181L4.904 17.3813L4.95674 27.538C4.99893 35.0157 5.04111 37.7579 5.13603 37.9161C5.19932 38.0321 6.50713 38.8442 8.03643 39.7196C17.7395 45.3095 22.7282 48.2099 22.7282 48.2837C22.7177 48.3259 22.6755 48.6317 22.6333 48.9692C22.454 50.2138 23.0024 51.7114 23.9622 52.6395C26.156 54.7489 29.7208 54.0634 31.0392 51.2895C31.3556 50.6145 31.3767 50.4985 31.3767 49.37L31.3872 48.1677L40.0251 43.179C44.7817 40.4368 48.7579 38.0849 48.8634 37.9583C49.0321 37.7474 49.0427 37.0935 49.0427 27.5696C49.0427 17.972 49.0532 17.3919 49.2325 17.3392C52.5653 16.3267 53.5251 12.1079 50.9517 9.77704C49.3485 8.33212 46.8067 8.30048 45.2036 9.70322L44.845 10.0196L42.8095 8.83837C27.2317 -0.158115 27.5165 9.15527e-05 27.0103 9.15527e-05C26.5673 0.0106354 25.7974 0.43251 17.8872 4.99931ZM35.3634 6.97157C39.8985 9.59775 43.6427 11.7599 43.6849 11.802C43.7165 11.8337 43.706 12.1395 43.6532 12.477C43.3579 14.3122 44.4442 16.2528 46.2477 17.0966L46.9333 17.4235V27.0845V36.756L38.5907 41.5759L30.2376 46.3852L29.7313 45.9845C28.9298 45.3517 28.181 45.1091 27.0524 45.0985C25.9028 45.088 25.2489 45.2884 24.3841 45.9212L23.7724 46.3747L15.5036 41.5864C10.9474 38.9602 7.19268 36.8087 7.15049 36.8087C7.09775 36.8087 7.06611 32.4423 7.06611 27.1056C7.06611 17.9509 7.07666 17.3919 7.25596 17.3392C9.37588 16.6325 10.7259 14.5337 10.3778 12.4665L10.2724 11.8337L18.6149 7.02431C23.1923 4.37704 26.9786 2.21494 27.0313 2.21494C27.0735 2.21494 30.8177 4.35595 35.3634 6.97157ZM6.90791 10.9583C7.82549 11.3802 8.40557 12.3188 8.31064 13.2786C8.20518 14.3227 7.35088 15.2298 6.33838 15.3669C4.57705 15.6095 3.16377 13.7638 3.8915 12.1817C4.42939 11.0005 5.78994 10.4415 6.90791 10.9583ZM49.0532 11.0427C49.8337 11.4435 50.2239 12.0235 50.2872 12.8567C50.3505 13.6688 50.1712 14.1751 49.6333 14.7024C48.1778 16.1579 45.7415 15.1454 45.7415 13.0782C45.7415 11.338 47.4923 10.2622 49.0532 11.0427ZM28.2337 47.5243C28.8665 47.9145 29.32 48.7161 29.32 49.4755C29.32 50.952 27.8329 52.07 26.3774 51.6798C25.4915 51.4477 24.6794 50.3825 24.6794 49.4649C24.6794 48.6106 25.3966 47.5981 26.2192 47.2923C26.8415 47.0708 27.6325 47.1552 28.2337 47.5243Z" fill="#F4BB03"/>
<path d="M19.4797 12.2661C14.5332 15.1243 12.2762 16.4848 12.1812 16.6641C11.9598 17.0649 11.9492 33.3071 12.1707 33.729C12.3816 34.1297 26.5039 42.293 26.9996 42.293C27.4004 42.293 27.2211 42.3879 30.2164 40.6583C31.5559 39.8883 34.6355 38.1059 37.0719 36.7032C39.5082 35.3004 41.607 34.0348 41.7441 33.8977L41.9762 33.634V25.2071V16.7801L41.7441 16.5165C41.607 16.3688 38.327 14.4282 34.4457 12.1922C28.6977 8.86997 27.316 8.12114 27.0102 8.12114C26.7043 8.13169 25.1855 8.96489 19.4797 12.2661ZM33.4016 14.0274C36.3652 15.736 38.7699 17.1704 38.7277 17.2125C38.6855 17.2442 36.0488 18.784 32.8637 20.6192C27.991 23.4352 27.0418 23.9415 26.852 23.8571C26.4512 23.6778 15.5562 17.3813 15.4191 17.2547C15.3137 17.1493 16.5055 16.4215 21.1566 13.7426L27.0312 10.3465L27.5164 10.6313C27.7906 10.7895 30.4379 12.3188 33.4016 14.0274ZM20.6187 22.7286C23.9305 24.6375 26.757 26.2196 26.9047 26.2407C27.2633 26.2934 27.1156 26.3778 33.8023 22.5176C36.977 20.6825 39.6348 19.1532 39.7191 19.1215C39.8457 19.0793 39.8668 20.1024 39.8668 25.861V32.6426L33.9922 36.0387L28.107 39.4348L28.0859 36.9352C28.0543 34.2563 28.0227 34.0559 27.5059 33.7922C27.0734 33.5708 26.7254 33.6129 26.3457 33.9504L25.9977 34.2563L25.9449 36.8297L25.8922 39.4032L20.0176 36.0282L14.143 32.6426L14.1324 25.7977V18.9633L14.375 19.111C14.5016 19.1954 17.307 20.8196 20.6187 22.7286Z" fill="#F4BB03"/>
<path d="M26.3461 29.2043C26.0613 29.4574 25.998 29.584 25.998 29.9531C25.998 30.7125 26.7996 31.2293 27.4535 30.8918C28.466 30.375 28.0969 28.8984 26.9578 28.8984C26.8102 28.8984 26.5359 29.0355 26.3461 29.2043Z" fill="#F4BB03"/>
</g>
<defs>
<clipPath id="clip0_620_2775">
<rect width="54" height="54" fill="white"/>
</clipPath>
</defs>
</svg>
