<svg width="32" height="32" viewBox="0 0 32 32" fill="none" xmlns="http://www.w3.org/2000/svg">
<circle cx="16" cy="16" r="16" fill="#F4BB03"/>
<path fill-rule="evenodd" clip-rule="evenodd" d="M7 19.8145C7 19.3114 7 18.8081 7 18.3049C7.01064 18.2291 7.02282 18.1535 7.03163 18.0775C7.09696 17.5131 7.13492 16.9439 7.23122 16.3848C7.6138 14.1634 8.49237 12.1408 9.73588 10.2704C9.77911 10.2053 9.84919 10.146 9.92027 10.1135C11.0572 9.59329 12.245 9.23467 13.4732 9.00585C13.5729 8.98725 13.6287 9.01131 13.6723 9.10238C13.786 9.33959 13.9191 9.56831 14.0194 9.8108C14.0773 9.95095 14.1498 9.9728 14.2888 9.9589C14.8184 9.90589 15.35 9.8281 15.8801 9.83337C16.6325 9.84094 17.3847 9.91025 18.1362 9.96211C18.2615 9.97074 18.326 9.94884 18.3782 9.82513C18.4802 9.58313 18.6082 9.3522 18.7206 9.11436C18.7652 9.02009 18.8185 8.98562 18.9301 9.00628C20.1531 9.23213 21.3339 9.59262 22.4663 10.1073C22.5427 10.1421 22.6217 10.2036 22.6648 10.2739C22.9897 10.8043 23.3284 11.328 23.6208 11.8761C24.5227 13.5667 25.0924 15.3647 25.3006 17.273C25.3381 17.6166 25.3691 17.961 25.4032 18.3049C25.4032 18.7962 25.4032 19.2874 25.4032 19.7786C25.3798 20.0278 25.3649 20.2784 25.3282 20.5257C25.316 20.6082 25.2676 20.7091 25.2028 20.7566C23.9386 21.6833 22.562 22.3953 21.0758 22.8944C20.6574 23.035 20.6488 23.0388 20.4084 22.6649C20.1506 22.264 19.9103 21.852 19.6503 21.4249C19.9423 21.297 20.2012 21.1923 20.4523 21.0712C20.7061 20.9489 20.952 20.8105 21.2086 20.6753C20.9393 20.3563 20.8905 20.3455 20.5699 20.4816C17.6508 21.7208 14.7318 21.7047 11.8142 20.4766C11.5142 20.3504 11.4151 20.3763 11.1822 20.6903C11.6947 20.9382 12.1999 21.1826 12.7454 21.4465C12.4333 21.9399 12.1276 22.4172 11.8292 22.899C11.7619 23.0077 11.6942 23.0176 11.5782 22.9805C9.99777 22.4746 8.53527 21.7369 7.19723 20.7557C7.13258 20.7083 7.08522 20.6073 7.07257 20.5248C7.03648 20.2899 7.02262 20.0515 7 19.8145ZM20.917 16.6563C20.9117 16.5858 20.9117 16.4771 20.893 16.3717C20.8714 16.2485 20.8423 16.1251 20.8012 16.0071C20.398 14.8489 19.0535 14.476 18.1998 15.2837C17.4216 16.02 17.4163 17.3643 18.1888 18.108C18.8229 18.7184 19.7598 18.7073 20.3761 18.0777C20.7514 17.6942 20.9117 17.2236 20.917 16.6563ZM14.8308 16.69C14.7837 16.463 14.7599 16.2281 14.6857 16.0103C14.2976 14.8717 12.9896 14.4847 12.1275 15.2454C11.3007 15.9749 11.2858 17.3837 12.097 18.1302C12.737 18.7191 13.646 18.6991 14.2574 18.0784C14.6341 17.6962 14.7938 17.2253 14.8308 16.69Z" fill="#111111"/>
</svg>
