<svg width="54" height="39" viewBox="0 0 54 39" fill="none" xmlns="http://www.w3.org/2000/svg">
<path d="M42.6675 32.1994C41.5137 33.1003 39.924 34.0647 37.8237 34.7867C37.8312 34.7962 37.8388 34.8057 37.8464 34.8152L37.8465 34.8154C38.0583 35.0816 38.2737 35.35 38.4861 35.613M42.6675 32.1994L53.9252 29.068C53.9737 29.9741 54 30.8936 54 31.824C54 31.824 50.0699 38.5278 39.8524 38.8516M42.6675 32.1994C43.65 31.7114 44.672 31.1295 45.7191 30.4399L45.1691 29.6047M42.6675 32.1994L45.1691 29.6047M38.4861 35.613C38.1608 35.7315 37.8236 35.8445 37.4742 35.9509C38.3176 37.0004 39.1505 38.0076 39.5708 38.5133L39.8524 38.8516M38.4861 35.613C39.2191 36.5206 39.9162 37.3641 40.3045 37.8315C44.921 37.5858 48.11 35.9717 50.1529 34.42C51.2138 33.6142 51.9708 32.8209 52.4581 32.2362C52.7017 31.9441 52.8772 31.7048 52.9891 31.5432C52.9925 31.5384 52.9958 31.5336 52.9991 31.5288L45.1691 29.6047M38.4861 35.613C40.9296 34.7228 42.7026 33.5215 43.9128 32.4684C44.6279 31.8462 45.1453 31.2768 45.4886 30.8554C45.6603 30.6446 45.7887 30.4706 45.8767 30.3451C45.9208 30.2823 45.9547 30.2316 45.9789 30.1945C45.991 30.176 46.0007 30.1608 46.0081 30.1492L46.0173 30.1345L46.0205 30.1292L46.0219 30.1271L46.0224 30.1261C46.0227 30.1257 46.0229 30.1253 45.1691 29.6047M39.8524 38.8516L39.8347 38.294L39.5729 38.5116L39.8347 38.2938L40.3396 37.8738C40.3397 37.8739 40.3398 37.874 40.3399 37.8741L40.5467 38.1227L40.6017 38.1887L40.6158 38.2057L40.6194 38.21L40.6203 38.211L40.6205 38.2113L40.6206 38.2114L39.8524 38.8516ZM21.4329 3.34422L21.3399 3.35999L21.3002 3.36665L21.26 3.37009C20.8816 3.40253 20.3578 3.46291 19.7087 3.56876L19.7087 3.56876C17.7624 3.88613 14.7096 4.60912 11.0893 6.19857C10.9867 6.24575 10.8866 6.29208 10.7892 6.33746L10.5816 5.89173L10.7892 6.33747C10.0402 6.68638 9.44689 6.98026 9.04253 7.186C8.84039 7.28885 8.68555 7.36963 8.58219 7.42418C8.53051 7.45146 8.4917 7.47218 8.46629 7.48582L8.43829 7.5009L8.43195 7.50434L8.43077 7.50497L8.43071 7.50501L8.4307 7.50502L8.43037 7.50441L7.26251 5.90273L7.95199 6.62704C7.26251 5.90273 7.26279 5.90246 7.26309 5.90218L7.26376 5.90155L7.26536 5.90003L7.26962 5.89601L7.28243 5.88404C7.29288 5.87433 7.30713 5.8612 7.32521 5.8448C7.36136 5.81199 7.41284 5.7661 7.4798 5.70832C7.6137 5.59276 7.80955 5.42965 8.0686 5.22865C8.53824 4.86427 9.21572 4.37534 10.1086 3.81952C9.23574 4.3042 8.33865 4.87256 7.43387 5.53904C7.39014 5.62233 7.33276 5.733 7.26331 5.86996C7.08688 6.21794 6.83267 6.7354 6.52655 7.40434C5.91414 8.7426 5.09495 10.6849 4.27515 13.0874C2.65559 17.8337 1.04369 24.3468 1.00087 31.5315C1.00435 31.5366 1.0079 31.5418 1.01151 31.5471C1.12216 31.7084 1.29587 31.9474 1.53714 32.2393C2.02002 32.8234 2.77093 33.6161 3.82566 34.4213C5.85563 35.9712 9.03114 37.5844 13.6442 37.8309C13.8236 37.6116 14.0691 37.3109 14.3535 36.9608C14.7043 36.5292 15.1136 36.0233 15.5308 35.5031C11.7636 34.0657 9.65656 31.901 8.76581 30.7892L8.76579 30.7892C8.60015 30.5824 8.47637 30.4118 8.39149 30.2888C8.34904 30.2273 8.3163 30.1776 8.29289 30.1412C8.28119 30.123 8.27182 30.1081 8.26473 30.0967L8.25581 30.0822L8.25262 30.077L8.25134 30.0748L8.25078 30.0739L8.25052 30.0735L8.25039 30.0733C8.25033 30.0732 8.25027 30.0731 9.10777 29.5586L8.25027 30.0731L9.68108 28.7395L9.68119 28.7393L9.68123 28.7393L9.6821 28.7399L9.69357 28.7478C9.70471 28.7554 9.72282 28.7677 9.74771 28.7843C9.8973 28.884 10.2903 29.1384 10.888 29.4704L11.0105 29.5385L11.0867 29.6148L11.0902 29.6165L11.142 29.6511C11.1445 29.6527 11.1516 29.6572 11.1676 29.6659C11.1856 29.6757 11.2057 29.6858 11.2426 29.7043L11.2549 29.7105L11.2561 29.7111L11.2592 29.7126C11.3174 29.7418 11.4143 29.7904 11.52 29.8577C12.6144 30.4681 13.7151 30.9528 14.7419 31.3547L21.4329 3.34422ZM21.4329 3.34422L21.4411 3.34279M21.4329 3.34422L21.4411 3.34279M45.1691 29.6047L46.0229 30.1253L44.6191 28.7696C43.016 29.8254 41.4871 30.6038 40.0933 31.1665L40.0931 31.1666C39.898 31.2454 39.7018 31.3214 39.5045 31.3946L39.4845 31.402L39.465 31.4102C37.2193 32.3539 35.0733 32.9782 32.981 33.3346L32.9728 33.336L32.9646 33.3375C28.6712 34.1424 24.7308 33.9205 21.3609 33.2918C18.8002 32.7971 16.5954 32.0779 14.7429 31.3551L45.1691 29.6047ZM21.4411 3.34279L21.4428 3.34251M21.4411 3.34279L21.4428 3.34251M21.4428 3.34251C21.6852 3.30107 21.8138 3.28113 21.9606 3.28113H22.0255M21.4428 3.34251L22.0255 3.28113M22.0255 3.28113L22.0898 3.27276M22.0255 3.28113L22.0898 3.27276M22.0898 3.27276C25.1079 2.87959 28.1621 2.84931 31.1874 3.18253C35.4637 3.678 40.0523 4.93766 44.7348 7.50398L45.9039 5.90181M22.0898 3.27276L45.9039 5.90181M45.9039 5.90181L45.2154 6.62704L45.9039 5.90181ZM12.6671 21.778L12.6671 21.7779C12.9454 18.766 15.2904 16.2607 18.3542 16.2607C21.6085 16.2607 24.1202 19.0906 24.0699 22.4005C24.0658 25.6821 21.623 28.5242 18.3542 28.5242C15.1353 28.5242 12.639 25.684 12.6389 22.3925L12.6671 21.778ZM12.6671 21.778C12.6483 21.9822 12.6388 22.1872 12.6389 22.3923L12.6671 21.778ZM29.5416 21.778L29.5416 21.7779C29.82 18.7659 32.1654 16.2607 35.2294 16.2607C38.5005 16.2607 40.9446 19.1076 40.9446 22.3923C40.9446 25.6772 38.5006 28.5242 35.2294 28.5242C32.0106 28.5242 29.5135 25.6842 29.5134 22.3925L29.5416 21.778ZM29.5416 21.778C29.5228 21.9822 29.5134 22.1872 29.5134 22.3923L29.5416 21.778Z" stroke="#F4BB03" stroke-width="2"/>
</svg>
