<svg width="16" height="31" viewBox="0 0 16 31" fill="none" xmlns="http://www.w3.org/2000/svg">
<path d="M7.29289 30.7071C7.68342 31.0976 8.31658 31.0976 8.70711 30.7071L15.0711 24.3431C15.4616 23.9526 15.4616 23.3195 15.0711 22.9289C14.6805 22.5384 14.0474 22.5384 13.6569 22.9289L8 28.5858L2.34314 22.9289C1.95262 22.5384 1.31946 22.5384 0.928931 22.9289C0.538407 23.3195 0.538407 23.9526 0.928931 24.3431L7.29289 30.7071ZM9 30L9 29.0625L7 29.0625L7 30L9 30ZM9 27.1875L9 25.3125L7 25.3125L7 27.1875L9 27.1875ZM9 23.4375L9 21.5625L7 21.5625L7 23.4375L9 23.4375ZM9 19.6875L9 17.8125L7 17.8125L7 19.6875L9 19.6875ZM9 15.9375L9 14.0625L7 14.0625L7 15.9375L9 15.9375ZM9 12.1875L9 10.3125L7 10.3125L7 12.1875L9 12.1875ZM9 8.4375L9 6.5625L7 6.5625L7 8.4375L9 8.4375ZM9 4.6875L9 2.8125L7 2.8125L7 4.6875L9 4.6875ZM9 0.9375L9 -5.28297e-08L7 5.28297e-08L7 0.9375L9 0.9375Z" fill="#F4BB03"/>
</svg>
