<svg width="16" height="52" viewBox="0 0 16 52" fill="none" xmlns="http://www.w3.org/2000/svg">
<path d="M7.29289 51.0616C7.68342 51.4521 8.31658 51.4521 8.70711 51.0616L15.0711 44.6976C15.4616 44.3071 15.4616 43.6739 15.0711 43.2834C14.6805 42.8929 14.0474 42.8929 13.6569 43.2834L8 48.9403L2.34315 43.2834C1.95262 42.8929 1.31946 42.8929 0.928932 43.2834C0.538408 43.6739 0.538408 44.3071 0.928932 44.6976L7.29289 51.0616ZM9 50.3545L9 49.393L7 49.393L7 50.3545L9 50.3545ZM9 47.4699L9 45.5468L7 45.5468L7 47.4699L9 47.4699ZM9 43.6237L9 41.7006L7 41.7006L7 43.6237L9 43.6237ZM9 39.7776L9 37.8545L7 37.8545L7 39.7776L9 39.7776ZM9 35.9314L9 34.0083L7 34.0083L7 35.9314L9 35.9314ZM9 32.0853L9 30.1622L7 30.1622L7 32.0853L9 32.0853ZM9 28.2391L9 26.316L7 26.316L7 28.2391L9 28.2391ZM9 24.393L9 22.4699L7 22.4699L7 24.393L9 24.393ZM9 20.5468L9 18.6237L7 18.6237L7 20.5468L9 20.5468ZM9 16.7006L9 14.7776L7 14.7776L7 16.7006L9 16.7006ZM9 12.8545L9 10.9314L7 10.9314L7 12.8545L9 12.8545ZM9 9.00834L9 7.08527L7 7.08527L7 9.00834L9 9.00834ZM9 5.16219L9 3.23911L7 3.23911L7 5.16219L9 5.16219ZM9 1.31604L9 0.354488L7 0.354488L7 1.31604L9 1.31604Z" fill="#F4BB03"/>
</svg>
