<svg width="55" height="54" viewBox="0 0 55 54" fill="none" xmlns="http://www.w3.org/2000/svg">
<path d="M38.6481 0.157967C37.0766 0.453278 35.5895 1.06499 34.3344 1.90874L33.7438 2.32008L19.9379 2.34117L6.14259 2.37281L5.47813 2.7314C4.65548 3.17437 3.95938 3.93375 3.64298 4.72476L3.4004 5.32594L3.36876 24.9326C3.35821 37.8841 3.3793 44.7396 3.45313 45.1298C3.68516 46.3744 4.42344 47.3552 5.54141 47.9037L6.23751 48.2517L8.36798 48.2834L10.4879 48.315L10.5512 49.6123C10.6356 51.5107 11.0574 52.4599 12.1754 53.2615C13.2934 54.0525 12.3231 54.0103 28.502 53.9787L42.9512 53.947L43.5523 53.6623C44.6914 53.1349 45.5246 52.038 45.7566 50.7935C45.8199 50.456 45.841 47.2287 45.8305 42.6724L45.7988 35.0998L45.4508 34.7939C45.0184 34.4037 44.5121 34.3826 44.0902 34.7412L43.7949 34.9943L43.7422 42.8412L43.6895 50.6775L43.4469 51.0677C43.3098 51.2892 43.025 51.5423 42.7508 51.6689C42.3078 51.8904 42.2551 51.8904 28.2066 51.8904C12.7766 51.8904 13.6836 51.9326 13.1246 51.2681C12.7449 50.8146 12.6816 50.5404 12.6816 49.3591V48.3572L24.2305 48.3044L35.7793 48.2517L36.4859 47.9037C37.625 47.3447 38.3738 46.3216 38.5848 45.0455C38.6375 44.7185 38.6797 39.5505 38.6797 33.2752V22.0955L40.4516 22.0849C41.7383 22.0849 42.4027 22.0322 42.9301 21.9056C43.3309 21.8107 43.6684 21.7263 43.7 21.7263C43.7211 21.7263 43.7422 22.7705 43.7422 24.0361V26.3459L44.0164 26.6728C44.2379 26.9365 44.3645 26.9998 44.7125 26.9998C45.7672 26.9998 45.8516 26.7361 45.8516 23.4455V20.8298L46.6848 20.2709C48.2668 19.2267 49.7539 17.497 50.5449 15.7779C53.0973 10.2619 50.8297 3.84937 45.377 1.14937C43.9109 0.421638 42.5715 0.0946846 40.8418 0.0419502C39.9137 0.0208549 39.207 0.0524979 38.6481 0.157967ZM42.8246 2.415C45.3559 3.07945 47.5074 4.89351 48.6465 7.30875C49.2477 8.56382 49.4586 9.55523 49.4586 11.074C49.4586 12.5927 49.2477 13.5841 48.6465 14.8603C46.5688 19.2373 41.4957 21.1884 37.0449 19.3322C35.5578 18.7099 33.8809 17.3072 33.0055 15.9466C31.2547 13.1939 31.1281 9.54469 32.6891 6.74976C33.9441 4.50328 36.159 2.85796 38.6691 2.30953C39.8398 2.0564 41.6328 2.09859 42.8246 2.415ZM31.6133 4.47164C31.6133 4.50328 31.4656 4.73531 31.2969 4.99898C30.432 6.2857 29.7043 8.27906 29.5356 9.86109L29.4512 10.5994L20.3281 10.6205C13.6731 10.6416 11.1418 10.6837 10.9731 10.7681C10.4774 11.0318 10.4141 11.4115 10.4141 13.89C10.4141 16.4107 10.4879 16.7798 11.0469 17.0541C11.3738 17.2228 30.4848 17.2544 30.9066 17.0962C31.1492 17.0013 31.202 17.0435 31.4551 17.4232C32.3094 18.7099 34.3238 20.3974 35.9164 21.1357L36.5703 21.4521L36.5492 33.2119L36.5176 44.9822L36.2645 45.383C36.1379 45.6044 35.8426 45.8681 35.6106 45.9841C35.2203 46.1951 34.925 46.1951 21.0137 46.1951C7.10235 46.1951 6.80704 46.1951 6.4168 45.9841C6.18477 45.8681 5.88946 45.6044 5.7629 45.383L5.50977 44.9822L5.47813 25.5337C5.46759 12.6455 5.48868 5.95875 5.56251 5.69508C5.69962 5.18882 5.99493 4.81968 6.42735 4.60875C6.74376 4.45054 7.95665 4.42945 19.1996 4.42945C26.0234 4.42945 31.6133 4.45054 31.6133 4.47164ZM29.4828 13.89L29.4512 15.0291L20.9926 15.0607L12.5234 15.0818V13.9216V12.7615H21.0137H29.5145L29.4828 13.89Z" fill="#F4BB03"/>
<path d="M39.829 5.57898C39.0063 6.41218 39.9134 7.74109 40.968 7.23484C41.6536 6.90789 41.7696 6.0325 41.1895 5.53679C40.7466 5.16765 40.2298 5.1782 39.829 5.57898Z" fill="#F4BB03"/>
<path d="M40.093 8.75366C39.5234 8.97514 39.5234 9.01733 39.5234 13.3205V17.3177L39.8293 17.6236C40.441 18.2248 41.4219 17.8978 41.5801 17.0435C41.6117 16.8642 41.6328 15.0396 41.6117 12.9935L41.5801 9.25991L41.232 8.95405C40.884 8.63764 40.5254 8.57436 40.093 8.75366Z" fill="#F4BB03"/>
<path d="M10.8043 21.1463C10.4457 21.5049 10.3824 21.8529 10.5617 22.3064C10.8676 23.0236 10.393 22.992 21.0348 22.992C29.9363 22.992 30.6324 22.9814 30.9805 22.8021C31.6133 22.4857 31.7398 21.6631 31.2231 21.1463L30.9488 20.8826H21.0137H11.0785L10.8043 21.1463Z" fill="#F4BB03"/>
<path d="M11.0782 25.945C10.7407 26.0821 10.4771 26.5462 10.4876 26.9786C10.4982 27.2634 10.5825 27.4321 10.8251 27.6536L11.1521 27.9489H20.9923C31.9189 27.9489 31.1489 28.0017 31.4759 27.2423C31.6025 26.9153 31.6025 26.8415 31.4337 26.4935C31.3282 26.2825 31.1278 26.0505 30.9802 25.9767C30.7798 25.8712 28.5439 25.8395 21.0134 25.8501C15.6661 25.8501 11.2048 25.8923 11.0782 25.945Z" fill="#F4BB03"/>
<path d="M11.1524 30.9336C10.6356 31.1129 10.3508 31.693 10.5196 32.2204C10.7622 32.9586 10.0344 32.9059 21.0137 32.9059C30.2528 32.9059 30.9489 32.8848 31.1598 32.7161C31.6661 32.3258 31.645 31.3766 31.1176 31.0391C30.8539 30.8598 30.1789 30.8493 21.1719 30.8282C13.8735 30.8071 11.4266 30.8387 11.1524 30.9336Z" fill="#F4BB03"/>
<path d="M10.8251 36.1542C10.5825 36.3757 10.4982 36.5444 10.4876 36.8292C10.4771 37.2721 10.7407 37.7257 11.1099 37.8628C11.5423 38.0315 30.6532 37.9999 30.9802 37.8311C31.1278 37.7573 31.3282 37.5253 31.4337 37.3143C31.6025 36.9663 31.6025 36.8924 31.4759 36.5655C31.1489 35.8061 31.9189 35.8589 20.9923 35.8589H11.1521L10.8251 36.1542Z" fill="#F4BB03"/>
<path d="M44.0164 30.0691C43.8371 30.2695 43.7422 30.5227 43.7422 30.7441C43.7422 30.9656 43.8371 31.2188 44.0164 31.4191C44.2379 31.6828 44.3645 31.7461 44.7125 31.7461C45.2715 31.7461 45.5246 31.5984 45.7039 31.1449C45.8305 30.8602 45.841 30.702 45.7461 30.4172C45.5879 29.9531 45.2715 29.7422 44.7336 29.7422C44.3645 29.7422 44.2379 29.7949 44.0164 30.0691Z" fill="#F4BB03"/>
</svg>
