<svg width="50" height="50" viewBox="0 0 50 50" fill="none" xmlns="http://www.w3.org/2000/svg">
<g filter="url(#filter0_b_110_1752)">
<circle cx="25" cy="25" r="25" fill="#818181" fill-opacity="0.1"/>
<circle cx="25" cy="25" r="24.5" stroke="#939393" stroke-opacity="0.1"/>
</g>
<path fill-rule="evenodd" clip-rule="evenodd" d="M10.9375 30.9602C10.9375 30.174 10.9375 29.3877 10.9375 28.6014C10.9541 28.483 10.9731 28.3649 10.9869 28.2462C11.089 27.3642 11.1483 26.4749 11.2988 25.6013C11.8966 22.1303 13.2693 18.97 15.2123 16.0474C15.2799 15.9458 15.3894 15.8531 15.5004 15.8023C17.2769 14.9895 19.1327 14.4292 21.0519 14.0716C21.2076 14.0426 21.2948 14.0802 21.3629 14.2225C21.5406 14.5931 21.7486 14.9505 21.9053 15.3294C21.9958 15.5484 22.109 15.5825 22.3263 15.5608C23.1538 15.478 23.9844 15.3564 24.8126 15.3646C25.9883 15.3765 27.1635 15.4848 28.3378 15.5658C28.5336 15.5793 28.6344 15.5451 28.7159 15.3518C28.8753 14.9736 29.0753 14.6128 29.251 14.2412C29.3205 14.0939 29.4039 14.04 29.5783 14.0723C31.4892 14.4252 33.3341 14.9885 35.1036 15.7927C35.223 15.847 35.3464 15.9431 35.4137 16.053C35.9214 16.8816 36.4506 17.7 36.9074 18.5564C38.3168 21.198 39.2069 24.0074 39.5322 26.989C39.5907 27.526 39.6393 28.064 39.6924 28.6014C39.6924 29.369 39.6924 30.1365 39.6924 30.9041C39.6559 31.2935 39.6326 31.685 39.5754 32.0714C39.5563 32.2004 39.4806 32.358 39.3794 32.4322C37.4041 33.8802 35.2532 34.9926 32.931 35.7725C32.2772 35.9922 32.2637 35.9981 31.8881 35.4139C31.4854 34.7876 31.1098 34.1437 30.7036 33.4764C31.1598 33.2766 31.5644 33.1129 31.9567 32.9238C32.3532 32.7327 32.7376 32.5164 33.1384 32.3051C32.7177 31.8067 32.6414 31.7899 32.1405 32.0025C27.5794 33.9387 23.0185 33.9136 18.4596 31.9947C17.9909 31.7974 17.8361 31.838 17.4722 32.3286C18.2729 32.716 19.0624 33.0979 19.9148 33.5102C19.427 34.2811 18.9493 35.0268 18.4831 35.7796C18.378 35.9495 18.2722 35.965 18.0909 35.907C15.6215 35.1165 13.3364 33.964 11.2457 32.4307C11.1447 32.3567 11.0707 32.1989 11.0509 32.07C10.9945 31.7029 10.9728 31.3305 10.9375 30.9602ZM32.6829 26.0255C32.6745 25.9154 32.6745 25.7454 32.6454 25.5808C32.6115 25.3883 32.5661 25.1954 32.5019 25.0111C31.8719 23.2015 29.771 22.6188 28.4372 23.8807C27.2212 25.0312 27.2129 27.1317 28.4201 28.2938C29.4108 29.2475 30.8747 29.2301 31.8376 28.2465C32.4241 27.6472 32.6746 26.9119 32.6829 26.0255ZM23.1731 26.0781C23.0996 25.7235 23.0623 25.3564 22.9464 25.0162C22.34 23.237 20.2963 22.6323 18.9492 23.8209C17.6573 24.9608 17.6341 27.1621 18.9016 28.3285C19.9015 29.2486 21.3219 29.2173 22.2772 28.2476C22.8657 27.6502 23.1153 26.9145 23.1731 26.0781Z" fill="#F4BB03"/>
<defs>
<filter id="filter0_b_110_1752" x="-25" y="-25" width="100" height="100" filterUnits="userSpaceOnUse" color-interpolation-filters="sRGB">
<feFlood flood-opacity="0" result="BackgroundImageFix"/>
<feGaussianBlur in="BackgroundImageFix" stdDeviation="12.5"/>
<feComposite in2="SourceAlpha" operator="in" result="effect1_backgroundBlur_110_1752"/>
<feBlend mode="normal" in="SourceGraphic" in2="effect1_backgroundBlur_110_1752" result="shape"/>
</filter>
</defs>
</svg>
