<svg width="50" height="50" viewBox="0 0 50 50" fill="none" xmlns="http://www.w3.org/2000/svg">
<g filter="url(#filter0_b_110_1738)">
<circle cx="25" cy="25" r="25" fill="#818181" fill-opacity="0.1"/>
<circle cx="25" cy="25" r="24.5" stroke="#939393" stroke-opacity="0.1"/>
</g>
<path d="M36.1581 15.6805L31.8421 33.083C31.639 33.9026 30.6997 34.3248 29.9296 33.9357L24.4711 31.1788L21.89 35.31C21.1876 36.436 19.4104 35.9475 19.4104 34.6312V30.028C19.4104 29.672 19.5628 29.3326 19.8251 29.0842L30.4627 19.1494C30.4543 19.0253 30.3189 18.9176 30.1835 19.0087L17.4894 27.652L13.2242 25.4994C12.2256 24.9944 12.2679 23.5787 13.3004 23.1399L34.3302 14.1738C35.3372 13.7433 36.4205 14.6291 36.1581 15.6805Z" fill="#F4BB03"/>
<defs>
<filter id="filter0_b_110_1738" x="-25" y="-25" width="100" height="100" filterUnits="userSpaceOnUse" color-interpolation-filters="sRGB">
<feFlood flood-opacity="0" result="BackgroundImageFix"/>
<feGaussianBlur in="BackgroundImageFix" stdDeviation="12.5"/>
<feComposite in2="SourceAlpha" operator="in" result="effect1_backgroundBlur_110_1738"/>
<feBlend mode="normal" in="SourceGraphic" in2="effect1_backgroundBlur_110_1738" result="shape"/>
</filter>
</defs>
</svg>
