<svg width="55" height="54" viewBox="0 0 55 54" fill="none" xmlns="http://www.w3.org/2000/svg">
<path d="M27.1001 0.126563C26.752 0.295313 26.636 0.917578 26.6782 2.40469C26.7098 3.68086 26.7204 3.7125 27.0051 3.96563C27.1633 4.10273 27.3954 4.21875 27.5008 4.21875C27.6063 4.21875 27.8383 4.10273 27.9966 3.96563C28.2813 3.7125 28.2919 3.68086 28.3235 2.40469C28.3762 0.875391 28.2602 0.295313 27.87 0.126563C27.543 -0.0210934 27.4165 -0.0210934 27.1001 0.126563Z" fill="#F4BB03"/>
<path d="M23.9671 6.06445C14.0425 8.38476 8.81128 19.248 13.1988 28.4238C14.4222 30.9656 16.2785 33.0961 18.7781 34.8047C19.7484 35.4691 20.1597 35.9121 20.5289 36.7031C20.7925 37.2621 20.8031 37.3781 20.8347 39.4137L20.8769 41.5441L20.571 41.6918C20.2019 41.8816 19.8855 42.2402 19.6535 42.6832C19.4109 43.1684 19.4214 44.9402 19.6746 45.4992C19.8539 45.9 19.8539 45.9316 19.664 46.3113C19.4953 46.6488 19.4742 46.902 19.5058 47.8617C19.5374 49.1484 19.6956 49.507 20.4128 50.0027C20.7609 50.2348 20.898 50.2559 22.4062 50.2875L24.0199 50.3191V51.4477C24.0199 52.7449 24.1464 53.1035 24.7898 53.6203L25.2011 53.9473H27.5003H29.7996L30.2109 53.6203C30.8542 53.1035 30.9808 52.7449 30.9808 51.4477V50.3191L32.5945 50.2875C34.1027 50.2559 34.2398 50.2348 34.5878 50.0027C35.305 49.507 35.4632 49.1484 35.4949 47.8617C35.5265 46.902 35.5054 46.6488 35.3367 46.3113C35.1468 45.9316 35.1468 45.9 35.3261 45.4992C35.5792 44.9402 35.5898 43.1684 35.3472 42.6832C35.1257 42.2402 34.7988 41.8922 34.4402 41.7023L34.1449 41.5441V39.6668C34.1449 36.6715 34.4191 36.0809 36.5285 34.5727C39.4289 32.516 41.5277 29.6895 42.5824 26.4727C43.0148 25.1437 43.2996 23.5301 43.1519 23.1293C42.9726 22.6125 42.0972 22.5176 41.8441 22.9922C41.7808 23.1187 41.6542 23.5723 41.5699 24.0258C40.8527 27.8754 38.891 30.9129 35.5898 33.307C33.048 35.1422 32.5734 36.1547 32.5628 39.6246V41.4492H27.5109H22.4589L22.4167 39.2555C22.364 37.3676 22.3324 36.9879 22.132 36.45C21.6785 35.1949 20.9718 34.3617 19.4847 33.3598C12.0386 28.3184 11.0472 17.7926 17.4175 11.4434C19.5269 9.34453 21.8999 8.08945 24.8636 7.48828C26.3718 7.19296 26.7726 6.78164 26.2242 6.07499C25.9499 5.72695 25.4331 5.7164 23.9671 6.06445ZM33.8074 43.1578C33.8812 43.2316 33.9339 43.6113 33.9339 44.107C33.9339 44.898 33.9234 44.9402 33.6597 45.0352C33.5015 45.0984 31.0757 45.1406 27.5003 45.1406C23.9249 45.1406 21.4992 45.0984 21.341 45.0352C21.0773 44.9402 21.0667 44.898 21.0667 44.107C21.0667 43.6113 21.1195 43.2316 21.1933 43.1578C21.3726 42.9785 33.6281 42.9785 33.8074 43.1578ZM33.8074 46.8492C33.8812 46.923 33.9339 47.2816 33.9339 47.7246C33.9339 48.1676 33.8812 48.5262 33.8074 48.6C33.6281 48.7793 21.3726 48.7793 21.1933 48.6C21.1195 48.5262 21.0667 48.1676 21.0667 47.7246C21.0667 47.2816 21.1195 46.923 21.1933 46.8492C21.3726 46.6699 33.6281 46.6699 33.8074 46.8492ZM29.3777 51.3316L29.346 52.3652H27.5003H25.6546L25.623 51.3316L25.5914 50.3086H27.5003H29.4093L29.3777 51.3316Z" fill="#F4BB03"/>
<path d="M28.7766 6.07484C28.2281 6.77093 28.6184 7.18226 30.1371 7.48812C33.0797 8.07874 35.3262 9.24945 37.4145 11.2428C39.6082 13.3522 41.0848 16.126 41.5805 19.0897C41.7176 19.9018 41.7914 20.1338 42.0129 20.3237C42.3504 20.6295 42.6035 20.6295 42.9727 20.3131C43.2152 20.1022 43.2574 19.9862 43.2363 19.5854C43.1625 17.6659 42.034 14.7022 40.5574 12.519C39.7242 11.2744 37.773 9.32327 36.5074 8.46898C34.7566 7.27718 32.6262 6.37015 30.6434 5.96937C29.4305 5.71624 29.0402 5.74788 28.7766 6.07484Z" fill="#F4BB03"/>
<path d="M12.2179 6.39141C11.8066 6.91875 11.9015 7.11914 13.1355 8.35312C14.0742 9.2918 14.3273 9.49219 14.591 9.49219C15.0867 9.49219 15.3714 9.22852 15.3714 8.775C15.3714 8.41641 15.2765 8.2793 14.2324 7.2457C13.2726 6.28594 13.0511 6.11719 12.7664 6.11719C12.5343 6.11719 12.3656 6.20156 12.2179 6.39141Z" fill="#F4BB03"/>
<path d="M40.7574 7.25625C39.7344 8.2793 39.6289 8.42695 39.6289 8.775C39.6289 9.22852 39.9137 9.49219 40.4094 9.49219C40.673 9.49219 40.9262 9.2918 41.8648 8.35312C43.0988 7.11914 43.1938 6.91875 42.7824 6.39141C42.6348 6.20156 42.466 6.11719 42.234 6.11719C41.9387 6.11719 41.7277 6.28594 40.7574 7.25625Z" fill="#F4BB03"/>
<path d="M25.9707 10.0828C25.1375 10.2832 24.9688 10.6629 24.9688 12.3082V13.5527L24.3148 13.848L23.6715 14.1328L22.6906 13.1941C21.657 12.1816 21.2352 11.9812 20.7395 12.2344C20.2965 12.4559 18.2293 14.5863 18.1133 14.9344C17.9445 15.4406 18.1238 15.7676 19.1363 16.7801L20.0328 17.6977L19.7691 18.3621L19.4949 19.0371L18.0922 19.0898C17.3223 19.1215 16.6051 19.1848 16.4996 19.2375C16.0883 19.4379 16.0039 19.8387 16.0039 21.6633V23.4141L16.3098 23.7516L16.6156 24.0996L18.0605 24.1523L19.5055 24.2051L19.7586 24.8273L20.0117 25.4496L19.073 26.4199C18.05 27.4746 17.9023 27.8016 18.1449 28.3816C18.3453 28.8457 20.5285 30.9762 20.866 31.0289C21.3828 31.1133 21.752 30.9023 22.6695 29.9848L23.5871 29.0672L24.2516 29.3414L24.916 29.6156L24.9688 31.05C25.0215 32.4422 25.032 32.4844 25.3168 32.7691L25.6016 33.0645H27.5H29.3984L29.6832 32.7691C29.968 32.4844 29.9785 32.4422 30.0312 31.05L30.084 29.6156L30.7484 29.3414L31.4129 29.0672L32.3305 29.9848C33.248 30.9023 33.6172 31.1133 34.134 31.0289C34.4715 30.9762 36.6547 28.8457 36.8551 28.3816C37.0977 27.8016 36.95 27.4746 35.927 26.4199L34.9883 25.4496L35.2414 24.8273L35.4945 24.2051L36.9395 24.1523L38.3844 24.0996L38.6902 23.7516L38.9961 23.4141V21.6633C38.9961 19.8387 38.9117 19.4379 38.5004 19.2375C38.3949 19.1848 37.6777 19.1215 36.9078 19.0898L35.5051 19.0371L35.2309 18.3621L34.9672 17.6977L35.8637 16.7801C36.8762 15.7676 37.0555 15.4406 36.8867 14.9344C36.7707 14.5863 34.7035 12.4559 34.2605 12.2344C33.7648 11.9812 33.343 12.1816 32.3094 13.1941L31.3285 14.1328L30.6852 13.848L30.0312 13.5527V12.3082C30.0312 10.2094 29.9047 10.0934 27.7109 10.0512C26.8672 10.0406 26.0867 10.0512 25.9707 10.0828ZM28.4492 13.057C28.4492 14.6391 28.502 14.7762 29.3246 15.0293C29.6199 15.1242 30.2211 15.3773 30.6324 15.5777C31.202 15.852 31.4762 15.9363 31.6871 15.873C31.8453 15.8414 32.4043 15.3879 32.9316 14.8711L33.8914 13.9324L34.5453 14.5758L35.1992 15.2297L34.1973 16.2527C33.0477 17.4234 33.0266 17.4867 33.5223 18.4781C33.7016 18.8367 33.923 19.3641 34.0074 19.6488C34.0918 19.9336 34.2711 20.2816 34.4082 20.4187C34.6508 20.6613 34.7246 20.6719 36.043 20.6719H37.4141V21.6211V22.5703H36.0113C34.3766 22.5703 34.3133 22.602 33.9863 23.625C33.8809 23.9414 33.6594 24.4793 33.5012 24.8062C33.0371 25.7344 33.0582 25.8187 34.1973 26.9895L35.1887 28.0125L34.5348 28.6664L33.8914 29.3203L32.8684 28.3184C31.7082 27.1793 31.6238 27.1477 30.6852 27.6223C30.3582 27.7805 29.8203 28.002 29.5039 28.1074C28.4809 28.4344 28.4492 28.4977 28.4492 30.1324V31.5352H27.5H26.5508V30.1324C26.5508 28.4977 26.5191 28.4344 25.4961 28.1074C25.1797 28.002 24.6418 27.7805 24.3148 27.6223C23.3762 27.1477 23.2918 27.1793 22.1316 28.3184L21.1086 29.3203L20.4652 28.6664L19.8113 28.0125L20.8027 26.9895C21.9418 25.8187 21.9629 25.7344 21.4988 24.8062C21.3406 24.4793 21.1191 23.9414 21.0137 23.625C20.6867 22.602 20.6234 22.5703 18.9887 22.5703H17.5859V21.6211V20.6719H18.957C20.2754 20.6719 20.3492 20.6613 20.5918 20.4187C20.7289 20.2816 20.9082 19.9336 20.9926 19.6488C21.077 19.3641 21.2984 18.8367 21.4777 18.4781C21.9734 17.4867 21.9523 17.4234 20.8027 16.2527L19.8008 15.2297L20.4547 14.5758L21.1086 13.9324L22.0684 14.8711C22.5957 15.3879 23.1547 15.8414 23.3129 15.873C23.5238 15.9363 23.798 15.852 24.3676 15.5777C24.7789 15.3773 25.3801 15.1242 25.6754 15.0293C26.498 14.7762 26.5508 14.6391 26.5508 13.057V11.707H27.5H28.4492V13.057Z" fill="#F4BB03"/>
<path d="M26.2879 17.5394C25.6129 17.7714 25.1804 18.0245 24.6426 18.5308C22.0691 20.9355 23.3453 25.1015 26.8679 25.7554C29.1883 26.1878 31.5402 24.2999 31.6984 21.8847C31.7828 20.5769 31.3187 19.4273 30.3379 18.5097C29.5469 17.7609 28.8086 17.4761 27.659 17.4339C27.0789 17.4128 26.5515 17.455 26.2879 17.5394ZM28.6082 19.2374C30.7597 20.2288 30.5804 23.3085 28.334 24.0995C26.7414 24.6691 25.0433 23.5406 24.8957 21.832C24.748 20.2921 25.9398 18.9843 27.5008 18.9843C27.891 18.9843 28.2601 19.0687 28.6082 19.2374Z" fill="#F4BB03"/>
<path d="M6.39615 20.8934C5.8899 21.0832 5.77388 21.7266 6.17466 22.1695C6.31177 22.3383 6.5438 22.3594 7.98872 22.3594C9.5813 22.3594 9.64458 22.3488 9.86607 22.1168C10.2774 21.6844 10.1297 21.0938 9.56021 20.8934C9.14888 20.7563 6.77583 20.7563 6.39615 20.8934Z" fill="#F4BB03"/>
<path d="M45.3669 20.925C44.8501 21.1465 44.7552 21.6211 45.1243 22.0852L45.3353 22.3594H47.0017C48.4571 22.3594 48.6892 22.3383 48.8263 22.1695C49.2376 21.7055 49.111 21.0832 48.5626 20.8828C48.0985 20.7246 45.7677 20.7563 45.3669 20.925Z" fill="#F4BB03"/>
<path d="M14.37 33.75C14.254 33.7922 13.6739 34.3301 13.0833 34.9418C11.9442 36.0914 11.8282 36.3129 12.1552 36.777C12.3661 37.0723 12.7775 37.1672 13.136 36.9774C13.5579 36.7559 15.372 34.868 15.3825 34.636C15.4247 33.9715 14.9079 33.5286 14.37 33.75Z" fill="#F4BB03"/>
<path d="M40.0516 33.7815C39.6825 33.9608 39.5137 34.3405 39.6403 34.6885C39.7774 35.0366 41.5809 36.8717 41.9501 37.0194C42.509 37.2514 43.1208 36.7346 42.9731 36.1545C42.8993 35.8698 40.8321 33.8026 40.5262 33.7077C40.4102 33.676 40.1993 33.7077 40.0516 33.7815Z" fill="#F4BB03"/>
</svg>
