<svg width="54" height="54" viewBox="0 0 54 54" fill="none" xmlns="http://www.w3.org/2000/svg">
<g clip-path="url(#clip0_620_2728)">
<path d="M2.18344 2.99531C1.23423 3.33281 0.506492 4.09219 0.168992 5.09414C0.0213354 5.54766 0.000241606 7.16133 0.000241606 22.3488C0.000241606 40.9957 -0.0524927 39.6984 0.738523 40.7004C1.03384 41.0695 1.35024 41.3227 1.86704 41.5758L2.58423 41.9238L6.80298 41.9555C10.9795 41.9871 11.0323 41.9871 11.317 41.7656C11.5385 41.5863 11.6018 41.4492 11.6018 41.1328C11.6018 40.4367 11.7178 40.4578 7.02446 40.3945C2.8479 40.3418 2.79516 40.3418 2.40493 40.0992C1.88813 39.7828 1.58227 39.1289 1.58227 38.359V37.7578H27.0002H52.4182V38.359C52.4182 39.1289 52.1124 39.7828 51.5956 40.0992L51.2053 40.3418L32.6745 40.3734L14.1436 40.3945L13.9327 40.6687C13.6795 40.9852 13.6584 41.1223 13.8272 41.4809C14.0276 41.9344 14.3018 41.9766 16.9913 41.9766C19.3538 41.9766 19.5225 41.9871 19.4698 42.1559C19.4381 42.2613 19.2694 43.2527 19.0795 44.3602L18.742 46.3746L17.7084 46.4379C16.5166 46.5117 16.0631 46.691 15.4831 47.3344C14.4706 48.4523 14.8608 50.2348 16.253 50.952C16.6432 51.1418 16.9913 51.1523 27.0002 51.1523C37.0725 51.1523 37.3573 51.1418 37.7475 50.9414C39.1291 50.2348 39.5194 48.4418 38.5174 47.3344C37.9374 46.691 37.4838 46.5117 36.292 46.4379L35.2584 46.3746L34.9209 44.3602C34.7311 43.2527 34.5624 42.2613 34.5307 42.1664C34.478 41.9977 34.9948 41.9766 42.9471 41.9555L51.4163 41.9238L52.1334 41.5758C52.6502 41.3227 52.9667 41.0695 53.262 40.6898C54.053 39.6984 54.0108 41.0062 53.9791 22.1484L53.9475 5.2207L53.6838 4.69336C53.378 4.07109 52.7979 3.46992 52.1862 3.14297L51.7327 2.90039L45.9635 2.86875C40.2788 2.83711 40.1838 2.84766 39.9729 3.05859C39.762 3.26953 39.6987 3.62812 39.8252 3.94453C39.9834 4.35586 40.1733 4.37695 45.9002 4.42969L51.4584 4.48242L51.7959 4.79883C52.4604 5.43164 52.4182 4.36641 52.4182 20.9883V36.1758H27.0002H1.58227V20.9883C1.58227 4.36641 1.54009 5.43164 2.20454 4.79883L2.54204 4.48242L19.8495 4.42969L37.1463 4.37695L37.3995 4.08164C37.7053 3.72305 37.7159 3.49102 37.4311 3.12188L37.2202 2.84766H19.9022C5.60063 2.8582 2.5104 2.8793 2.18344 2.99531ZM32.9065 42.0082C32.9065 42.0188 33.0752 42.9785 33.2756 44.1387C33.476 45.2988 33.6448 46.2797 33.6448 46.3113C33.6448 46.3535 33.0963 46.3957 32.4319 46.4168C31.3561 46.459 31.1979 46.4906 30.9975 46.691C30.7127 46.9758 30.6916 47.482 30.9448 47.7668C31.1241 47.9672 31.3139 47.9777 34.0877 48.0094L37.0409 48.041L37.294 48.3363C37.5998 48.6949 37.6104 48.927 37.3256 49.2961L37.1147 49.5703H27.0002H16.8858L16.6749 49.2961C16.3901 48.927 16.4006 48.6949 16.7065 48.3363L16.9596 48.041L22.5916 48.0094C28.1604 47.9883 28.2131 47.9883 28.403 47.7668C28.635 47.4715 28.635 47.018 28.3819 46.7121L28.1815 46.459L24.2686 46.4273C22.117 46.4062 20.3557 46.3641 20.3557 46.3219C20.3557 46.2797 20.5245 45.2988 20.7249 44.1387C20.9252 42.9785 21.094 42.0188 21.094 42.0082C21.094 41.9871 23.7518 41.9766 27.0002 41.9766C30.2487 41.9766 32.9065 41.9871 32.9065 42.0082Z" fill="#F4BB03"/>
<path d="M4.99937 8.68008C4.63023 9.00703 4.59859 9.54492 4.94663 9.82969C5.17866 10.009 5.61109 10.0195 14.4599 10.0195C23.5935 10.0195 23.7306 10.0195 23.9416 9.80859C24.2263 9.52383 24.2158 8.9543 23.931 8.69062C23.7201 8.50078 23.3826 8.49023 14.5021 8.45859L5.28413 8.4375L4.99937 8.68008Z" fill="#F4BB03"/>
<path d="M43.9383 8.65898L43.6641 8.86992V14.4492V20.0285L43.8961 20.25C44.1176 20.4504 44.2547 20.4609 46.459 20.4609C48.6633 20.4609 48.8004 20.4504 49.0219 20.25L49.2539 20.0285V14.4492V8.86992L48.9797 8.65898C48.716 8.44805 48.5684 8.4375 46.459 8.4375C44.3496 8.4375 44.202 8.44805 43.9383 8.65898ZM47.6719 14.4492V18.8789H46.459H45.2461V14.4492V10.0195H46.459H47.6719V14.4492Z" fill="#F4BB03"/>
<path d="M28.8457 10.8105L28.582 11.0637V15.5461V20.0285L28.8563 20.2395C29.1199 20.4504 29.2676 20.4609 31.4297 20.4609C33.5391 20.4609 33.75 20.4398 33.9715 20.2605L34.2246 20.0602V15.5039V10.9477L33.9715 10.7473C33.75 10.568 33.5391 10.5469 31.4086 10.5469H29.0988L28.8457 10.8105ZM32.6953 15.5039V18.8789H31.4297H30.1641V15.5039V12.1289H31.4297H32.6953V15.5039Z" fill="#F4BB03"/>
<path d="M5.09443 12.7828C4.60927 13.0254 4.57763 13.8691 5.05224 14.1223C5.18935 14.2066 7.17216 14.2383 11.0745 14.2383H16.8858L17.1601 13.9641C17.371 13.7531 17.4132 13.6371 17.3604 13.3629C17.2233 12.6773 17.5503 12.709 11.1483 12.6879C7.17216 12.6773 5.25263 12.6984 5.09443 12.7828Z" fill="#F4BB03"/>
<path d="M19.8492 12.7617C19.6172 12.8566 19.4062 13.2469 19.4062 13.5633C19.4062 13.6477 19.5223 13.8375 19.6699 13.9746C19.923 14.2383 19.9441 14.2383 21.832 14.2383C23.5934 14.2383 23.741 14.2277 23.9414 14.0273C24.2578 13.7109 24.2262 13.152 23.8781 12.8777C23.6145 12.6773 23.4668 12.6563 21.8426 12.6668C20.8828 12.6668 19.9863 12.709 19.8492 12.7617Z" fill="#F4BB03"/>
<path d="M36.3238 13.0887C36.134 13.2996 36.1234 13.5316 36.0918 16.3371C36.0601 19.5961 36.0812 19.9441 36.3976 20.2605C36.5875 20.4504 36.7562 20.4609 38.95 20.4609C41.2808 20.4609 41.3125 20.4609 41.534 20.2184C41.766 19.9758 41.766 19.9125 41.766 16.6324C41.766 13.4262 41.7554 13.2785 41.5551 13.0781C41.3547 12.8777 41.207 12.8672 38.9394 12.8672C36.6191 12.8672 36.5137 12.8777 36.3238 13.0887ZM40.184 16.6641V18.8789H38.9183H37.6527V16.6641V14.4492H38.9183H40.184V16.6641Z" fill="#F4BB03"/>
<path d="M5.09443 17.5289C4.60927 17.7609 4.57763 18.6152 5.05224 18.8684C5.18935 18.9527 8.18466 18.9844 14.4917 18.9844C23.5936 18.9844 23.7308 18.9844 23.9417 18.7734C24.2581 18.457 24.2265 17.898 23.8784 17.6238C23.5936 17.4023 23.5515 17.4023 14.4601 17.4129C8.24794 17.4129 5.25263 17.4551 5.09443 17.5289Z" fill="#F4BB03"/>
<path d="M5.08364 21.6949C5.00981 21.7266 4.88325 21.8848 4.78833 22.0641C4.65122 22.3277 4.65122 22.4332 4.75669 22.6863C4.81997 22.8656 4.96762 23.0449 5.07309 23.0977C5.17856 23.1609 6.09614 23.2031 7.11919 23.2031C8.9438 23.2031 8.97544 23.2031 9.22856 22.9395C9.37622 22.8023 9.49223 22.5598 9.49223 22.4121C9.49223 22.2645 9.37622 22.0219 9.22856 21.8848C8.97544 21.6211 8.95434 21.6211 7.09809 21.6316C6.0645 21.6316 5.15747 21.6633 5.08364 21.6949Z" fill="#F4BB03"/>
<path d="M11.7598 21.8848C11.6121 22.0219 11.4961 22.2645 11.4961 22.4121C11.4961 22.5598 11.6121 22.8023 11.7598 22.9395L12.0129 23.2031H17.8031C23.509 23.2031 23.6039 23.2031 23.8781 22.9816C24.2367 22.6969 24.2578 22.1695 23.9098 21.8531L23.6672 21.6211H17.8348H12.0129L11.7598 21.8848Z" fill="#F4BB03"/>
<path d="M42.4302 22.9076C42.2615 22.9814 41.6181 24.1521 40.3419 26.6728C39.3189 28.6767 38.4435 30.3642 38.4013 30.4064C38.3486 30.4592 37.6103 29.1197 36.7455 27.4217C35.8384 25.6287 35.079 24.2576 34.9314 24.1416C34.3091 23.6564 34.0244 23.9307 32.9697 26.0084L32.1154 27.6853L30.5544 27.7381C29.0673 27.7908 28.9724 27.8014 28.7826 28.0439C28.4978 28.4025 28.5294 28.835 28.8564 29.0986C29.1201 29.299 29.2783 29.3201 30.9552 29.3201C32.5794 29.3201 32.8009 29.299 33.0224 29.1197C33.1595 29.0142 33.5392 28.392 33.8556 27.7486C34.172 27.1053 34.4568 26.5779 34.4884 26.5779C34.5201 26.5779 35.2794 28.0123 36.1759 29.7736C38.4646 34.235 38.2642 34.235 40.5001 29.8475C41.3439 28.1916 42.1982 26.5146 42.4091 26.1139L42.7888 25.3861L43.7064 27.1685C44.2126 28.1494 44.7294 29.0353 44.8455 29.1303C45.0353 29.299 45.299 29.3201 46.9232 29.3201C48.6634 29.3201 48.8111 29.3096 49.022 29.1092C49.3595 28.7928 49.3384 28.2443 48.9798 27.9596C48.7267 27.7592 48.558 27.7381 47.2396 27.7381H45.7841L44.6662 25.5232C44.0439 24.3103 43.4638 23.2135 43.3689 23.0975C43.1474 22.8443 42.7361 22.76 42.4302 22.9076Z" fill="#F4BB03"/>
<path d="M5.22109 25.8293C4.67265 26.0613 4.52499 26.7785 4.94687 27.1266C5.1789 27.3059 5.61132 27.3164 14.4601 27.3164C23.5937 27.3164 23.7309 27.3164 23.9418 27.1055C24.2266 26.8207 24.216 26.2512 23.9312 25.9875C23.7203 25.7977 23.3934 25.7871 14.5656 25.766C9.54531 25.7555 5.3371 25.7871 5.22109 25.8293Z" fill="#F4BB03"/>
<path d="M5.08364 30.027C5.00981 30.0586 4.88325 30.2168 4.78833 30.3961C4.65122 30.6598 4.65122 30.7652 4.75669 31.0184C4.81997 31.1977 4.96762 31.377 5.07309 31.4297C5.17856 31.493 7.05591 31.5352 9.68208 31.5352C13.9957 31.5352 14.1118 31.5246 14.386 31.3137C14.7446 31.0289 14.7657 30.5016 14.4176 30.1852C14.175 29.9531 14.154 29.9531 9.69262 29.9637C7.2352 29.9637 5.15747 29.9953 5.08364 30.027Z" fill="#F4BB03"/>
</g>
<defs>
<clipPath id="clip0_620_2728">
<rect width="54" height="54" fill="white"/>
</clipPath>
</defs>
</svg>
