<svg width="44" height="52" viewBox="0 0 44 52" fill="none" xmlns="http://www.w3.org/2000/svg">
<path d="M19.4582 3.75664C17.2855 5.44414 15.4504 6.89961 15.3871 6.99453C15.3027 7.1 15.25 7.52187 15.25 8.14414V9.125H14.248C13.3199 9.125 13.2145 9.14609 12.9824 9.38867L12.7188 9.6418V14.4512V19.25H11.7168C10.7887 19.25 10.6832 19.2711 10.4512 19.5137L10.1875 19.7668V24.5762V29.375H5.38867H0.579297L0.326172 29.6387L0.0625 29.8918V40.3438V50.7957L0.326172 51.0488L0.579297 51.3125H22H43.4207L43.6738 51.0488L43.9375 50.7957V40.3438V29.8918L43.6738 29.6387L43.4207 29.375H38.6113H33.8125V24.5762V19.7668L33.5488 19.5137C33.3168 19.2711 33.2113 19.25 32.2832 19.25H31.2812V14.4512V9.6418L31.0176 9.38867C30.7855 9.14609 30.6801 9.125 29.752 9.125H28.75V5.16992V1.2043L28.4863 0.951172L28.2332 0.6875H25.818H23.4027L19.4582 3.75664ZM27.0625 5.75V9.125H22H16.927L16.9586 8.47109L16.9902 7.81719L20.4707 5.09609L23.9512 2.38555L25.5121 2.375H27.0625V5.75ZM29.5938 15.0312V19.25H22H14.4062V15.0312V10.8125H22H29.5938V15.0312ZM32.125 35.2812V49.625H28.75H25.375V46.5137V43.3918L25.1113 43.1387L24.8582 42.875H22H19.1418L18.8887 43.1387L18.625 43.3918V46.5137V49.625H15.25H11.875V35.2812V20.9375H22H32.125V35.2812ZM10.1875 40.3438V49.625H5.96875H1.75V40.3438V31.0625H5.96875H10.1875V40.3438ZM42.25 40.3438V49.625H38.0312H33.8125V40.3438V31.0625H38.0312H42.25V40.3438ZM23.6875 47.0938V49.625H22H20.3125V47.0938V44.5625H22H23.6875V47.0938Z" fill="#F4BB03"/>
<path d="M16.0938 13.3438V14.1875H16.9375H17.7812V13.3438V12.5H16.9375H16.0938V13.3438Z" fill="#F4BB03"/>
<path d="M19.4688 13.3438V14.1875H20.3125H21.1562V13.3438V12.5H20.3125H19.4688V13.3438Z" fill="#F4BB03"/>
<path d="M22.8438 13.3438V14.1875H23.6875H24.5312V13.3438V12.5H23.6875H22.8438V13.3438Z" fill="#F4BB03"/>
<path d="M26.2188 13.3438V14.1875H27.0625H27.9062V13.3438V12.5H27.0625H26.2188V13.3438Z" fill="#F4BB03"/>
<path d="M16.0938 16.7188V17.5625H16.9375H17.7812V16.7188V15.875H16.9375H16.0938V16.7188Z" fill="#F4BB03"/>
<path d="M19.4688 16.7188V17.5625H20.3125H21.1562V16.7188V15.875H20.3125H19.4688V16.7188Z" fill="#F4BB03"/>
<path d="M22.8438 16.7188V17.5625H23.6875H24.5312V16.7188V15.875H23.6875H22.8438V16.7188Z" fill="#F4BB03"/>
<path d="M26.2188 16.7188V17.5625H27.0625H27.9062V16.7188V15.875H27.0625H26.2188V16.7188Z" fill="#F4BB03"/>
<path d="M14.4062 23.4688V24.3125H15.6719H16.9375V23.4688V22.625H15.6719H14.4062V23.4688Z" fill="#F4BB03"/>
<path d="M18.625 23.4688V24.3125H19.8906H21.1562V23.4688V22.625H19.8906H18.625V23.4688Z" fill="#F4BB03"/>
<path d="M22.8438 23.4688V24.3125H24.1094H25.375V23.4688V22.625H24.1094H22.8438V23.4688Z" fill="#F4BB03"/>
<path d="M27.0625 23.4688V24.3125H28.3281H29.5938V23.4688V22.625H28.3281H27.0625V23.4688Z" fill="#F4BB03"/>
<path d="M14.4062 26.8438V27.6875H15.6719H16.9375V26.8438V26H15.6719H14.4062V26.8438Z" fill="#F4BB03"/>
<path d="M18.625 26.8438V27.6875H19.8906H21.1562V26.8438V26H19.8906H18.625V26.8438Z" fill="#F4BB03"/>
<path d="M22.8438 26.8438V27.6875H24.1094H25.375V26.8438V26H24.1094H22.8438V26.8438Z" fill="#F4BB03"/>
<path d="M27.0625 26.8438V27.6875H28.3281H29.5938V26.8438V26H28.3281H27.0625V26.8438Z" fill="#F4BB03"/>
<path d="M14.4062 30.2188V31.0625H15.6719H16.9375V30.2188V29.375H15.6719H14.4062V30.2188Z" fill="#F4BB03"/>
<path d="M18.625 30.2188V31.0625H19.8906H21.1562V30.2188V29.375H19.8906H18.625V30.2188Z" fill="#F4BB03"/>
<path d="M22.8438 30.2188V31.0625H24.1094H25.375V30.2188V29.375H24.1094H22.8438V30.2188Z" fill="#F4BB03"/>
<path d="M27.0625 30.2188V31.0625H28.3281H29.5938V30.2188V29.375H28.3281H27.0625V30.2188Z" fill="#F4BB03"/>
<path d="M14.4062 33.5938V34.4375H15.6719H16.9375V33.5938V32.75H15.6719H14.4062V33.5938Z" fill="#F4BB03"/>
<path d="M18.625 33.5938V34.4375H19.8906H21.1562V33.5938V32.75H19.8906H18.625V33.5938Z" fill="#F4BB03"/>
<path d="M22.8438 33.5938V34.4375H24.1094H25.375V33.5938V32.75H24.1094H22.8438V33.5938Z" fill="#F4BB03"/>
<path d="M27.0625 33.5938V34.4375H28.3281H29.5938V33.5938V32.75H28.3281H27.0625V33.5938Z" fill="#F4BB03"/>
<path d="M14.4062 36.9688V37.8125H15.6719H16.9375V36.9688V36.125H15.6719H14.4062V36.9688Z" fill="#F4BB03"/>
<path d="M18.625 36.9688V37.8125H19.8906H21.1562V36.9688V36.125H19.8906H18.625V36.9688Z" fill="#F4BB03"/>
<path d="M22.8438 36.9688V37.8125H24.1094H25.375V36.9688V36.125H24.1094H22.8438V36.9688Z" fill="#F4BB03"/>
<path d="M27.0625 36.9688V37.8125H28.3281H29.5938V36.9688V36.125H28.3281H27.0625V36.9688Z" fill="#F4BB03"/>
<path d="M14.4062 40.3438V41.1875H15.6719H16.9375V40.3438V39.5H15.6719H14.4062V40.3438Z" fill="#F4BB03"/>
<path d="M18.625 40.3438V41.1875H19.8906H21.1562V40.3438V39.5H19.8906H18.625V40.3438Z" fill="#F4BB03"/>
<path d="M22.8438 40.3438V41.1875H24.1094H25.375V40.3438V39.5H24.1094H22.8438V40.3438Z" fill="#F4BB03"/>
<path d="M27.0625 40.3438V41.1875H28.3281H29.5938V40.3438V39.5H28.3281H27.0625V40.3438Z" fill="#F4BB03"/>
<path d="M14.4062 43.7188V44.5625H15.6719H16.9375V43.7188V42.875H15.6719H14.4062V43.7188Z" fill="#F4BB03"/>
<path d="M27.0625 43.7188V44.5625H28.3281H29.5938V43.7188V42.875H28.3281H27.0625V43.7188Z" fill="#F4BB03"/>
<path d="M3.4375 33.5938V34.4375H4.28125H5.125V33.5938V32.75H4.28125H3.4375V33.5938Z" fill="#F4BB03"/>
<path d="M6.8125 33.5938V34.4375H7.65625H8.5V33.5938V32.75H7.65625H6.8125V33.5938Z" fill="#F4BB03"/>
<path d="M3.4375 36.9688V37.8125H4.28125H5.125V36.9688V36.125H4.28125H3.4375V36.9688Z" fill="#F4BB03"/>
<path d="M6.8125 36.9688V37.8125H7.65625H8.5V36.9688V36.125H7.65625H6.8125V36.9688Z" fill="#F4BB03"/>
<path d="M3.4375 40.3438V41.1875H4.28125H5.125V40.3438V39.5H4.28125H3.4375V40.3438Z" fill="#F4BB03"/>
<path d="M6.8125 40.3438V41.1875H7.65625H8.5V40.3438V39.5H7.65625H6.8125V40.3438Z" fill="#F4BB03"/>
<path d="M3.4375 43.7188V44.5625H4.28125H5.125V43.7188V42.875H4.28125H3.4375V43.7188Z" fill="#F4BB03"/>
<path d="M6.8125 43.7188V44.5625H7.65625H8.5V43.7188V42.875H7.65625H6.8125V43.7188Z" fill="#F4BB03"/>
<path d="M3.4375 47.0938V47.9375H4.28125H5.125V47.0938V46.25H4.28125H3.4375V47.0938Z" fill="#F4BB03"/>
<path d="M6.8125 47.0938V47.9375H7.65625H8.5V47.0938V46.25H7.65625H6.8125V47.0938Z" fill="#F4BB03"/>
<path d="M35.5 33.5938V34.4375H36.3438H37.1875V33.5938V32.75H36.3438H35.5V33.5938Z" fill="#F4BB03"/>
<path d="M38.875 33.5938V34.4375H39.7188H40.5625V33.5938V32.75H39.7188H38.875V33.5938Z" fill="#F4BB03"/>
<path d="M35.5 36.9688V37.8125H36.3438H37.1875V36.9688V36.125H36.3438H35.5V36.9688Z" fill="#F4BB03"/>
<path d="M38.875 36.9688V37.8125H39.7188H40.5625V36.9688V36.125H39.7188H38.875V36.9688Z" fill="#F4BB03"/>
<path d="M35.5 40.3438V41.1875H36.3438H37.1875V40.3438V39.5H36.3438H35.5V40.3438Z" fill="#F4BB03"/>
<path d="M38.875 40.3438V41.1875H39.7188H40.5625V40.3438V39.5H39.7188H38.875V40.3438Z" fill="#F4BB03"/>
<path d="M35.5 43.7188V44.5625H36.3438H37.1875V43.7188V42.875H36.3438H35.5V43.7188Z" fill="#F4BB03"/>
<path d="M38.875 43.7188V44.5625H39.7188H40.5625V43.7188V42.875H39.7188H38.875V43.7188Z" fill="#F4BB03"/>
<path d="M35.5 47.0938V47.9375H36.3438H37.1875V47.0938V46.25H36.3438H35.5V47.0938Z" fill="#F4BB03"/>
<path d="M38.875 47.0938V47.9375H39.7188H40.5625V47.0938V46.25H39.7188H38.875V47.0938Z" fill="#F4BB03"/>
</svg>
