<?xml version="1.0" standalone="no"?>
<!DOCTYPE svg PUBLIC "-//W3C//DTD SVG 20010904//EN"
 "http://www.w3.org/TR/2001/REC-SVG-20010904/DTD/svg10.dtd">
<svg version="1.0" xmlns="http://www.w3.org/2000/svg"
 width="2000.000000pt" height="2000.000000pt" viewBox="0 0 2000.000000 2000.000000"
 preserveAspectRatio="xMidYMid meet">

<g transform="translate(0.000000,2000.000000) scale(0.100000,-0.100000)"
fill="#000000" stroke="none">
<path d="M8962 15590 c-252 -21 -611 -111 -902 -225 -299 -117 -796 -400 -985
-560 -35 -30 -98 -70 -141 -91 -141 -67 -329 -189 -574 -375 -359 -271 -459
-391 -468 -557 -4 -66 -1 -79 27 -136 53 -109 137 -173 330 -254 142 -59 220
-81 314 -89 73 -6 77 -7 71 -27 -12 -43 -125 -264 -175 -344 -50 -79 -56 -85
-124 -116 -78 -36 -109 -68 -126 -128 -19 -73 13 -145 98 -215 165 -137 312
-238 386 -265 31 -11 57 -22 57 -24 0 -1 -25 -108 -55 -238 -55 -238 -81 -314
-154 -465 -53 -110 -53 -134 4 -245 l45 -87 -46 -54 c-50 -59 -95 -155 -87
-186 7 -25 26 -35 88 -44 78 -11 95 -26 95 -86 0 -114 -72 -379 -145 -530 -59
-124 -57 -151 26 -250 22 -26 39 -53 39 -60 0 -8 -13 -42 -30 -76 -16 -35 -32
-78 -36 -98 -10 -54 13 -126 56 -179 21 -25 41 -60 45 -76 8 -38 -14 -115 -62
-209 -30 -58 -45 -76 -69 -85 -19 -6 -72 -54 -130 -117 -146 -157 -262 -260
-397 -351 l-61 -41 -28 34 c-16 19 -79 106 -140 194 -62 88 -121 172 -131 187
l-20 27 81 88 c96 105 105 125 91 190 -6 27 -13 62 -16 78 -8 43 -41 85 -66
85 -25 0 -74 -28 -134 -76 -22 -19 -74 -56 -114 -84 l-73 -50 -45 52 c-154
174 -227 268 -501 643 -20 28 -61 84 -92 125 -30 41 -115 158 -188 260 -152
212 -394 531 -634 835 -157 200 -215 276 -393 514 -92 123 -143 159 -198 141
-49 -16 -169 -104 -240 -175 -118 -117 -234 -322 -221 -389 13 -66 247 -394
560 -786 247 -309 278 -346 496 -591 210 -236 245 -277 402 -474 205 -257 242
-301 341 -414 127 -144 150 -172 146 -175 -103 -71 -260 -257 -290 -344 -9
-27 -8 -37 5 -57 33 -50 53 -56 136 -39 69 14 229 82 275 117 18 14 22 12 60
-31 92 -104 225 -268 225 -277 0 -6 -66 -39 -147 -75 -522 -227 -716 -334
-930 -513 -258 -215 -522 -565 -709 -937 -241 -481 -327 -833 -410 -1665 -34
-346 -28 -1171 11 -1690 8 -104 20 -248 25 -320 32 -416 37 -781 13 -998 l-17
-158 22 -42 c13 -23 45 -72 72 -109 40 -54 58 -70 90 -79 22 -7 45 -17 50 -24
16 -19 25 -1075 11 -1305 -6 -107 -14 -241 -17 -297 l-6 -103 365 0 365 0 -47
112 c-27 62 -57 131 -69 154 l-21 40 22 0 c16 -1 23 6 27 27 l5 27 74 -60 c40
-34 79 -59 85 -57 6 2 12 21 14 42 l3 38 34 -33 c32 -31 55 -33 55 -6 0 8 10
16 21 19 21 6 21 9 15 114 l-7 108 39 -60 c45 -69 139 -175 156 -175 6 0 26
-46 44 -103 19 -56 42 -121 52 -145 l19 -42 6008 0 6008 0 23 152 c12 84 29
214 37 288 22 192 29 226 72 331 l38 94 -2 157 c-1 87 -7 201 -12 255 -6 54
-15 179 -21 278 -12 199 -26 267 -92 435 -32 84 -41 119 -42 174 l-1 69 145
32 c80 18 153 35 162 39 24 11 30 33 18 77 -6 22 -22 92 -35 157 -13 64 -40
195 -60 291 -19 95 -45 253 -56 350 -11 97 -29 235 -39 306 -10 72 -26 202
-35 290 -9 88 -28 248 -42 355 -43 327 -45 393 -48 1360 -3 1039 -3 1036 -71
1240 -42 129 -183 415 -260 530 -118 177 -281 355 -414 452 -106 78 -354 230
-485 299 -126 65 -258 118 -533 213 -258 89 -407 145 -582 218 -282 118 -318
142 -371 252 -52 106 -117 309 -135 416 -18 109 -31 400 -17 400 18 0 148 -47
191 -69 100 -51 169 -147 156 -215 -14 -78 64 -47 174 68 124 130 155 221 154
446 -1 310 -78 500 -264 649 -77 62 -232 140 -353 178 -49 15 -93 32 -96 36
-3 5 -9 160 -13 345 -7 323 -19 589 -32 680 -5 32 -3 42 8 42 30 0 125 53 166
93 121 116 159 338 84 490 -75 152 -237 231 -369 181 -24 -9 -45 -15 -47 -13
-2 2 -12 42 -24 89 -38 158 -111 396 -152 496 -22 54 -39 101 -38 105 2 4 40
35 86 69 108 81 132 116 132 194 0 39 -7 74 -20 101 -26 54 -134 156 -283 270
-137 103 -205 179 -322 355 -46 69 -96 137 -111 152 -42 39 -95 58 -166 58
-179 0 -355 31 -413 71 -20 14 -329 103 -685 198 -393 105 -818 168 -1369 205
-100 7 -104 13 -81 105 33 130 41 237 25 313 -17 81 -47 130 -118 194 -93 82
-249 148 -426 178 -117 20 -334 27 -469 16z m438 -94 c123 -20 218 -49 300
-92 68 -36 139 -89 130 -97 -3 -3 -59 10 -125 29 -226 66 -317 77 -625 78
-311 1 -445 -14 -701 -79 -290 -73 -447 -135 -839 -331 -145 -73 -266 -132
-267 -130 -9 8 161 112 363 221 441 239 867 373 1334 418 79 8 341 -3 430 -17z
m-266 -442 c33 -9 111 -33 171 -54 122 -43 526 -209 509 -210 -6 0 -51 7 -99
15 -48 9 -113 15 -144 14 -43 0 -83 9 -176 44 -112 41 -189 73 -243 99 -37 19
-102 78 -102 94 0 18 8 18 84 -2z m601 -289 c33 -8 69 -16 80 -19 11 -3 -13
-3 -54 0 -42 2 -91 13 -115 23 l-41 20 35 -5 c19 -3 62 -11 95 -19z m172 -41
c-3 -3 -12 -4 -19 -1 -8 3 -5 6 6 6 11 1 17 -2 13 -5z m468 -34 c478 -54 1024
-157 1355 -255 l85 -25 -85 5 c-99 6 -200 22 -745 120 -210 38 -316 49 -635
65 -118 6 -231 15 -250 20 -19 5 -78 16 -131 24 -95 14 -204 55 -149 55 14 1
88 -8 164 -19 77 -11 141 -18 144 -16 12 12 -14 26 -59 32 -27 4 -52 11 -56
17 -7 12 120 4 362 -23z m1085 -350 c63 -6 214 -26 335 -45 293 -45 457 -62
650 -70 189 -7 183 -4 259 -140 95 -171 198 -288 373 -423 108 -83 140 -116
71 -74 -95 57 -370 128 -576 147 -383 35 -591 29 -1222 -41 -276 -30 -690
-107 -1105 -204 -877 -206 -1317 -332 -1850 -530 -77 -29 -243 -89 -370 -134
-284 -102 -375 -139 -567 -227 -83 -38 -153 -67 -155 -65 -6 6 164 156 217
192 61 42 242 140 505 273 159 80 274 130 416 181 364 129 556 181 1114 304
423 93 434 95 800 156 421 70 474 86 502 146 34 71 -19 120 -165 152 -64 14
-135 17 -422 16 -362 0 -495 -9 -769 -50 -382 -57 -611 -123 -1191 -342 -328
-124 -561 -220 -750 -307 -80 -37 -210 -98 -290 -135 -425 -197 -715 -406
-820 -588 -19 -34 -40 -62 -45 -62 -18 0 -124 108 -131 134 -8 34 1 66 27 100
24 31 195 114 289 140 99 28 167 62 385 193 673 405 1106 618 1680 828 33 12
123 46 200 74 238 89 605 217 700 244 285 81 624 145 915 171 90 8 878 -3 990
-14z m1793 -1647 c48 -161 81 -305 71 -318 -5 -7 -35 -47 -67 -88 -83 -108
-101 -154 -101 -256 -1 -74 -3 -85 -23 -98 -20 -13 -22 -12 -44 26 -12 23 -26
41 -30 41 -19 0 -18 -22 3 -64 21 -44 21 -46 3 -65 -18 -20 -18 -20 -38 20
-30 62 -121 154 -179 183 -174 87 -352 -55 -403 -319 -28 -148 -30 -249 -6
-360 41 -189 89 -293 179 -388 108 -113 256 -122 356 -21 60 60 88 108 127
224 30 88 33 106 35 240 3 171 2 160 17 135 8 -14 12 -86 12 -242 0 -122 4
-225 8 -229 39 -40 63 276 33 446 l-13 75 55 61 55 62 46 -34 c24 -19 64 -39
87 -45 47 -12 43 -1 60 -174 11 -115 30 -877 22 -881 -4 -3 -54 2 -110 10
-477 69 -827 67 -1123 -5 -44 -10 -147 -41 -230 -68 -398 -130 -638 -188 -740
-177 -33 3 -136 28 -229 56 -232 69 -364 93 -511 93 -147 1 -209 -14 -360 -88
-132 -64 -215 -130 -283 -223 -113 -156 -152 -283 -152 -504 0 -111 3 -136 25
-193 35 -94 68 -145 148 -231 124 -133 239 -199 427 -244 155 -37 279 -37 518
-1 112 17 208 33 212 36 5 3 29 -19 55 -48 25 -30 79 -78 118 -107 40 -30 76
-57 80 -60 4 -4 -6 -33 -23 -64 -34 -66 -36 -76 -15 -115 19 -37 40 -44 75
-26 35 18 44 46 38 125 -2 33 -1 61 3 62 10 5 59 105 59 123 0 9 -11 31 -24
48 -30 40 -50 107 -32 107 34 0 77 -25 107 -63 29 -36 34 -49 32 -89 -1 -26
-13 -80 -27 -120 -13 -40 -31 -116 -40 -168 -12 -65 -30 -122 -58 -182 -45
-96 -46 -125 -3 -148 32 -17 50 -8 83 40 15 22 22 48 22 79 0 25 11 72 24 104
22 53 24 56 30 32 9 -35 51 -51 82 -30 20 13 24 24 24 63 -1 26 -7 76 -15 112
-7 36 -13 65 -12 66 1 1 21 11 44 23 94 47 179 154 210 264 l16 60 171 -6
c139 -4 198 -11 315 -36 164 -35 207 -38 233 -14 26 24 23 34 -28 83 -84 81
-104 116 -104 179 1 39 9 76 29 121 28 65 28 65 67 63 21 -1 136 -5 254 -8
169 -5 220 -3 240 7 24 13 38 31 95 124 l30 49 5 -45 c5 -45 5 -45 45 -46 l40
0 1 -44 c0 -42 2 -45 35 -52 19 -4 64 -10 100 -13 l66 -6 7 -172 c9 -217 28
-360 61 -461 30 -90 98 -264 121 -307 14 -27 13 -29 -6 -29 -30 0 -111 -44
-141 -77 -15 -15 -89 -122 -167 -238 -259 -387 -385 -536 -606 -713 -325 -261
-609 -390 -1091 -497 -469 -104 -995 -111 -1446 -20 -406 83 -823 242 -1199
458 -140 80 -453 291 -626 420 -228 172 -342 268 -854 718 -53 46 -115 100
-138 120 l-43 37 16 103 c18 117 21 142 70 699 11 117 19 385 25 805 8 617 9
633 34 762 32 164 79 309 152 466 186 402 213 446 342 568 101 95 310 236 446
303 249 122 429 153 831 143 389 -10 628 -27 885 -63 356 -50 434 -47 733 27
227 55 354 72 547 73 175 1 201 -3 535 -76 141 -30 162 -32 350 -32 187 0 206
2 299 27 127 35 262 86 406 152 63 29 118 53 121 54 3 1 18 -38 32 -86z m317
-319 c0 -46 31 -97 76 -125 34 -20 66 -22 105 -5 12 5 21 -5 38 -43 11 -27 21
-53 21 -58 0 -19 -81 -53 -125 -53 -59 0 -98 21 -135 71 -34 48 -50 126 -29
140 11 7 10 9 -3 9 -14 0 -18 9 -18 43 0 51 4 57 42 57 26 0 28 -3 28 -36z
m-99 -129 c12 -70 47 -135 88 -164 44 -32 125 -46 175 -31 23 7 49 19 59 28 9
8 20 12 24 9 11 -12 -17 -138 -43 -193 -47 -99 -162 -127 -279 -69 -53 26 -60
34 -63 62 -2 17 4 46 14 64 15 31 15 33 -2 46 -10 7 -25 13 -35 13 -26 0 -68
38 -90 83 -19 35 -20 50 -14 126 7 78 10 87 39 114 17 17 49 38 71 48 l40 18
2 -47 c2 -26 8 -74 14 -107z m160 132 c-1 -4 -1 -15 -1 -24 0 -15 -2 -16 -10
-3 -13 20 -13 43 1 38 6 -2 10 -7 10 -11z m-368 -364 c-6 -76 -7 -78 -22 -68
-12 7 -15 76 -5 113 4 12 12 22 20 22 10 0 12 -15 7 -67z m-390 -10 c43 -30
137 -166 137 -198 0 -12 -14 5 -35 45 -41 74 -92 131 -152 167 -24 14 -43 27
-43 29 0 8 57 -18 93 -43z m-9532 -104 c36 -19 205 -251 194 -268 -3 -6 -32
-29 -63 -50 -75 -53 -228 -193 -312 -287 -38 -42 -71 -76 -75 -75 -25 1 -175
254 -175 296 0 7 22 46 48 86 44 67 91 115 276 281 41 37 61 40 107 17z m9837
-12 c-6 -28 -144 -225 -157 -226 -34 -2 20 104 94 187 46 51 70 65 63 39z
m182 -52 c7 -14 10 -28 7 -32 -9 -8 -47 27 -47 44 0 22 26 15 40 -12z m-120
-45 c0 -6 -31 -42 -68 -82 -93 -97 -115 -86 -28 15 61 70 96 94 96 67z m-9591
-298 l72 -92 -18 -55 c-10 -30 -21 -55 -25 -55 -4 0 -16 13 -28 30 -19 27 -20
31 -5 59 8 17 15 37 15 46 0 28 -21 16 -36 -21 l-15 -37 -16 23 c-14 20 -14
25 1 56 20 42 20 44 1 44 -8 0 -15 -4 -15 -8 0 -5 -6 -16 -13 -26 -12 -16 -16
-14 -46 25 l-34 42 39 33 c21 18 42 32 45 31 4 -1 39 -44 78 -95z m9401 94 c0
-27 -130 -267 -141 -260 -5 3 -4 11 3 18 7 7 38 65 68 129 30 64 58 116 63
116 4 1 7 -1 7 -3z m-126 -113 c-24 -54 -44 -103 -44 -109 0 -6 -7 -18 -16
-25 -15 -12 -16 -11 -11 6 3 11 9 34 13 50 11 50 82 175 99 175 1 0 -17 -44
-41 -97z m153 -95 c-2 -24 -4 -7 -4 37 0 44 2 63 4 43 2 -21 2 -57 0 -80z
m-9573 -30 c-8 -28 -131 -355 -144 -383 -9 -20 -9 -20 -9 1 -2 41 135 404 151
404 5 0 6 -10 2 -22z m283 -33 l30 -40 -25 -54 -25 -54 -18 24 c-40 52 -41 62
-24 123 9 32 20 54 24 49 4 -4 21 -26 38 -48z m-431 -80 c-50 -159 -55 -170
-66 -159 -14 14 15 124 56 213 19 41 37 71 40 68 3 -3 -10 -58 -30 -122z
m9704 18 c-26 -124 -95 -235 -171 -274 -21 -10 -41 -19 -44 -19 -3 0 23 28 58
63 67 66 139 189 152 260 4 21 10 36 12 33 3 -2 -1 -31 -7 -63z m-270 -23 c0
-5 -28 -18 -63 -29 -35 -10 -81 -27 -102 -35 -42 -18 -67 -8 -39 15 42 35 204
75 204 49z m-8867 -87 c35 -49 104 -140 153 -203 154 -202 295 -391 300 -404
4 -10 -11 -12 -68 -9 -40 2 -206 0 -368 -5 -365 -12 -346 -20 -302 120 25 80
95 283 184 531 11 31 24 57 28 57 5 0 37 -39 73 -87z m-385 65 c-3 -7 -27 -82
-53 -165 -27 -84 -52 -153 -57 -153 -15 0 -8 27 38 162 25 73 48 141 51 151 3
9 10 17 15 17 6 0 8 -6 6 -12z m-513 -24 c9 -15 12 -23 6 -20 -11 7 -35 46
-28 46 3 0 12 -12 22 -26z m611 -11 c-125 -414 -137 -447 -151 -410 -10 25
128 427 147 427 5 0 7 -8 4 -17z m9134 -18 c-15 -18 -147 -62 -156 -52 -9 9
-12 7 76 39 89 31 96 32 80 13z m445 -555 c221 -25 223 -25 365 -60 258 -65
426 -160 537 -305 98 -129 135 -264 136 -500 1 -215 -30 -301 -149 -418 l-49
-47 -11 50 c-14 64 -47 111 -109 159 -131 99 -294 162 -427 164 l-88 2 0 37
c0 46 -28 67 -67 49 -13 -6 -26 -11 -28 -11 -10 0 -4 49 16 140 l21 96 41 12
c34 11 42 11 56 -2 14 -15 14 -19 -2 -45 -20 -33 -25 -107 -10 -122 16 -16 43
28 43 68 0 18 5 33 10 33 6 0 10 -7 10 -15 0 -16 25 -21 35 -6 3 5 1 20 -4 33
-5 13 -16 44 -25 69 -12 32 -24 49 -39 53 -17 4 -19 8 -9 18 16 16 16 48 0 48
-7 0 -34 -21 -60 -47 -48 -47 -48 -47 -63 -26 -9 12 -31 25 -51 29 l-35 6 21
23 c16 17 21 33 18 66 -4 57 -22 60 -38 5 -7 -25 -21 -53 -31 -62 -17 -16 -20
-15 -54 15 -37 32 -55 33 -55 2 0 -36 96 -101 149 -101 11 0 22 -4 25 -9 9
-13 -4 -41 -18 -41 -7 0 -34 -11 -59 -24 -55 -27 -66 -11 -12 18 32 18 43 35
30 48 -3 3 -27 -1 -53 -7 -43 -11 -47 -15 -50 -46 -5 -47 -14 -53 -57 -35 -47
20 -55 20 -55 1 0 -17 72 -54 103 -55 16 0 14 -5 -12 -37 -32 -39 -32 -60 0
-42 31 16 32 6 7 -34 -14 -21 -31 -36 -43 -37 -11 0 -101 9 -200 20 -376 43
-495 74 -849 220 -182 75 -612 235 -796 297 -161 53 -435 102 -575 103 -135 0
-330 -42 -429 -92 -100 -51 -203 -135 -260 -211 -51 -68 -97 -218 -98 -318 -1
-69 3 -86 31 -142 65 -133 264 -306 422 -367 128 -49 205 -61 389 -61 91 0
203 5 250 10 67 7 88 7 99 -4 16 -16 20 -15 -234 -51 -173 -25 -198 -26 -284
-15 -205 25 -346 79 -465 177 -112 92 -173 183 -215 318 -38 124 -23 324 32
432 46 89 132 204 188 250 68 56 177 111 248 124 153 28 446 -4 806 -90 152
-36 245 -50 365 -53 77 -2 95 1 95 13 0 8 -19 20 -47 29 -27 8 -48 17 -48 20
0 3 71 26 158 50 86 25 252 75 367 113 249 81 326 102 460 122 55 9 114 17
130 20 65 10 430 -5 600 -24z m-6235 -89 c0 -6 -4 -13 -10 -16 -5 -3 -10 1
-10 9 0 9 5 16 10 16 6 0 10 -4 10 -9z m-2455 -182 c59 -82 106 -152 104 -153
-2 -2 -20 -6 -40 -9 -34 -5 -39 -2 -89 55 -48 54 -51 60 -31 65 11 3 21 12 21
20 0 10 -8 12 -32 8 -31 -6 -36 -2 -95 69 -35 41 -63 77 -63 80 0 3 21 7 48 9
26 2 52 4 59 5 6 1 59 -66 118 -149z m-295 121 c0 -5 -35 -11 -77 -15 -43 -3
-125 -10 -182 -15 -129 -12 -141 -12 -141 -1 0 16 41 24 165 31 176 9 235 9
235 0z m2835 -10 c-10 -11 -25 -20 -33 -20 -12 0 -12 4 3 20 10 11 25 20 33
20 12 0 12 -4 -3 -20z m67 -32 c-17 -18 -35 -28 -39 -24 -4 4 7 21 26 37 45
37 54 28 13 -13z m148 4 c0 -13 -23 -32 -39 -32 -11 0 -10 4 4 20 19 21 35 26
35 12z m-3010 -30 c0 -23 -310 -56 -324 -34 -10 16 25 23 148 32 164 11 176
11 176 2z m55 -71 c-11 -10 -254 -61 -292 -61 -37 0 -27 18 17 30 46 12 209
37 255 39 17 1 25 -3 20 -8z m2814 -17 c110 -16 170 -41 76 -31 -202 20 -285
32 -285 39 0 13 93 9 209 -8z m-2765 -63 c6 -9 -66 -32 -197 -61 -94 -21 -147
-25 -147 -11 0 19 33 33 126 51 149 28 210 34 218 21z m2741 -33 c103 -12 156
-33 60 -24 -33 4 -106 9 -162 13 -77 4 -103 9 -103 20 0 14 16 13 205 -9z
m-2670 -47 c-26 -23 -270 -65 -249 -42 10 11 93 36 149 44 56 8 109 7 100 -2z
m195 -30 c0 -5 -11 -42 -24 -82 -13 -41 -28 -94 -34 -119 -10 -40 -72 -399
-72 -414 0 -15 -18 -3 -38 24 l-23 30 36 202 c19 112 37 208 40 215 2 6 -4 18
-13 26 -15 14 -37 11 -206 -25 l-188 -41 -33 39 c-18 21 -32 40 -32 41 1 0 63
8 137 17 74 9 203 34 285 55 180 46 165 43 165 32z m185 -206 c162 -225 180
-253 170 -263 -8 -8 -27 14 -171 193 -54 66 -113 136 -131 156 -31 32 -34 40
-28 73 4 20 10 36 14 36 3 0 69 -88 146 -195z m2279 169 c9 -24 7 -28 -9 -14
-17 14 -20 30 -6 30 5 0 12 -7 15 -16z m113 -72 c-3 -14 -6 -12 -14 8 -6 14
-8 29 -5 34 7 13 24 -22 19 -42z m73 -19 c0 -14 -19 -38 -25 -32 -8 8 5 39 16
39 5 0 9 -3 9 -7z m3365 -9 c164 -29 316 -118 494 -289 103 -100 141 -148 128
-161 -3 -4 -50 35 -104 86 -254 241 -417 317 -705 327 -82 3 -148 9 -148 14 0
8 53 25 100 33 59 8 151 5 235 -10z m660 -24 c44 -11 117 -39 163 -61 148 -72
333 -272 393 -426 19 -50 22 -77 23 -198 0 -153 -8 -197 -52 -266 -27 -42
-125 -119 -151 -119 -22 0 -10 37 29 89 22 29 40 58 40 64 0 6 10 31 22 55 25
53 47 150 48 213 0 104 -83 268 -177 346 -104 86 -349 229 -458 267 -107 37
-109 38 -93 47 23 15 133 10 213 -11z m-6879 -189 c-17 -100 -35 -181 -39
-181 -4 0 -14 15 -22 33 -14 32 -159 208 -198 239 -12 9 -20 19 -17 21 8 7
294 74 301 71 3 -2 -8 -84 -25 -183z m189 -79 c-15 -73 -28 -102 -40 -90 -8 8
23 177 38 208 l11 25 4 -33 c2 -18 -4 -67 -13 -110z m84 -14 c-1 -80 -24 -223
-34 -218 -23 12 2 260 26 260 5 0 9 -19 8 -42z m77 -115 c-13 -129 -19 -163
-28 -157 -14 9 15 224 30 224 3 0 2 -30 -2 -67z m2336 32 c37 -13 75 -28 85
-34 17 -10 17 -10 1 -11 -22 0 -170 58 -183 72 -7 8 -4 9 10 3 11 -4 50 -18
87 -30z m-2014 -51 c39 -46 48 -64 40 -72 -18 -18 -24 -15 -61 36 -31 43 -55
107 -37 100 4 -2 31 -30 58 -64z m1893 37 c20 -11 75 -33 123 -50 97 -34 130
-50 122 -58 -7 -7 -296 109 -296 119 0 12 12 10 51 -11z m4583 -13 c43 -43 96
-173 99 -241 3 -77 -20 -68 -47 18 -28 87 -57 144 -97 190 -55 62 -13 92 45
33z m955 6 c2 -2 -1 -9 -6 -16 -6 -7 -20 -44 -33 -82 -17 -52 -21 -80 -16
-119 9 -62 17 -78 73 -138 l44 -48 -58 15 c-135 33 -297 56 -430 61 l-143 6 0
28 0 29 116 0 c64 0 161 -7 216 -16 126 -20 148 -15 148 31 0 23 -7 39 -22 49
-21 15 -22 16 -6 88 9 40 21 86 27 101 10 26 14 27 48 21 21 -4 40 -8 42 -10z
m-7689 -115 c0 -60 -3 -80 -12 -76 -19 6 -12 157 7 157 3 0 5 -36 5 -81z m814
72 c15 -23 -67 -163 -140 -241 -47 -50 -205 -182 -259 -216 -18 -11 3 17 53
71 85 91 152 204 155 260 4 55 168 163 191 126z m1346 -72 c0 -6 -4 -7 -10 -4
-5 3 -10 11 -10 16 0 6 5 7 10 4 6 -3 10 -11 10 -16z m-1759 -79 c29 -33 63
-63 76 -66 13 -4 23 -14 23 -23 0 -36 -387 -391 -426 -391 -8 0 -25 23 -39 50
-14 28 -41 75 -61 105 l-34 55 62 47 c88 68 289 236 312 262 11 11 23 21 27
21 4 0 31 -27 60 -60z m1838 1 c1 -11 -2 -11 -14 -1 -16 13 -20 42 -8 54 8 7
20 -23 22 -53z m-1660 -10 c-36 -43 -49 -50 -49 -27 0 14 71 78 79 71 2 -2
-12 -22 -30 -44z m251 32 c-1 -10 -6 -27 -13 -39 -24 -41 -283 -305 -340 -347
-32 -23 -107 -79 -165 -125 -145 -112 -315 -232 -383 -269 -52 -29 -165 -68
-218 -75 -41 -5 -36 20 6 27 116 20 165 49 473 278 374 279 556 437 601 522
25 47 39 57 39 28z m1467 -70 c-3 -10 -5 -2 -5 17 0 19 2 27 5 18 2 -10 2 -26
0 -35z m74 -46 c-8 -8 -11 -5 -11 9 0 27 14 41 18 19 2 -9 -1 -22 -7 -28z
m-609 -141 c178 -45 391 -147 558 -266 126 -90 255 -198 566 -477 426 -380
653 -560 1015 -803 379 -255 741 -433 1133 -559 627 -200 1264 -224 1928 -70
504 116 849 270 1163 519 255 202 366 333 652 763 88 131 160 229 184 248 l38
30 78 -42 c43 -23 80 -44 81 -45 2 -1 -20 -31 -50 -66 -73 -85 -109 -139 -193
-287 -40 -70 -91 -160 -115 -201 -91 -161 -259 -400 -371 -531 -57 -66 -233
-207 -364 -291 -185 -120 -435 -232 -650 -293 -515 -146 -1151 -226 -1560
-196 -549 40 -1060 156 -1473 335 -127 55 -355 171 -446 228 -219 137 -341
243 -766 663 -434 428 -616 589 -967 853 -226 170 -362 246 -580 321 l-131 46
65 73 c44 49 72 72 88 72 12 0 65 -11 117 -24z m-1008 -166 c32 -48 32 -56 4
-71 -13 -7 -59 -44 -103 -84 -105 -93 -214 -177 -226 -173 -13 4 106 161 194
255 41 43 76 86 80 96 10 26 22 21 51 -23z m70 -107 c8 -19 19 -9 -129 -124
-165 -129 -401 -299 -414 -299 -16 0 -13 17 4 24 60 23 436 314 486 375 36 45
44 49 53 24z m136 -200 c0 -5 -9 -14 -20 -20 -17 -11 -24 -7 -65 46 -25 33
-45 63 -45 67 0 4 7 16 16 25 16 18 19 15 65 -46 27 -35 49 -68 49 -72z m5820
75 c-19 -82 -29 -90 -23 -18 3 36 11 68 17 72 18 12 19 1 6 -54z m-5940 -153
c0 -10 -21 -22 -117 -69 -88 -43 -123 -31 -57 19 65 50 175 81 174 50z m8740
-325 c69 -26 217 -80 330 -120 267 -94 327 -118 462 -186 147 -74 432 -249
533 -329 197 -155 354 -360 496 -648 93 -189 131 -292 160 -429 22 -101 22
-119 23 -1048 2 -990 3 -1011 50 -1405 15 -125 26 -219 51 -440 32 -293 87
-673 120 -835 20 -94 33 -175 30 -181 -4 -5 -15 -9 -25 -9 -14 0 -22 11 -29
38 -83 319 -142 670 -226 1348 -64 522 -69 606 -62 1144 12 883 -20 1235 -138
1531 -153 383 -363 636 -725 875 -129 85 -282 171 -614 346 -231 122 -359 202
-525 326 -157 117 -158 118 -91 92 30 -12 111 -44 180 -70z m2285 -5713 c24
-95 42 -193 37 -198 -4 -3 -70 -18 -147 -32 -138 -26 -343 -44 -542 -50 l-103
-3 0 149 c0 137 1 148 18 143 102 -30 311 -34 538 -11 82 9 154 17 159 20 23
9 35 4 40 -18z m-13407 -451 c427 -107 978 -170 1562 -179 270 -5 562 6 734
27 133 16 150 14 142 -18 -3 -12 -8 -49 -12 -81 -3 -33 -15 -94 -26 -136 l-20
-77 -61 -6 c-143 -14 -718 -28 -907 -23 -209 6 -456 29 -770 72 -96 13 -247
31 -335 40 -160 16 -262 33 -365 61 -40 11 -63 25 -86 51 l-32 36 19 31 c14
25 49 178 49 217 0 12 -2 12 108 -15z m931 -545 c8 -5 11 -16 8 -24 -4 -10 3
-17 25 -21 51 -10 66 -7 73 14 3 11 15 20 26 20 16 0 18 -5 13 -24 -5 -23 -3
-25 33 -28 48 -4 48 -4 -22 -173 -58 -142 -76 -196 -112 -325 l-23 -85 5 88
c2 48 2 94 -2 102 -15 40 -56 0 -147 -142 -55 -85 -60 -91 -70 -71 -25 48 -53
26 -112 -85 l-37 -71 -12 49 c-7 27 -20 54 -29 60 -9 7 -19 33 -22 59 -8 54
-25 67 -56 40 l-20 -19 15 35 c8 19 32 71 52 115 43 92 112 269 145 370 32 99
31 98 116 90 67 -6 73 -5 79 14 7 22 47 29 74 12z"/>
<path d="M11665 14280 c-11 -18 14 -48 86 -105 106 -82 261 -166 273 -146 3 5
-20 27 -52 49 -31 22 -106 79 -167 126 -109 85 -128 95 -140 76z"/>
<path d="M11005 14200 c-44 -45 -115 -109 -157 -142 -74 -59 -91 -78 -68 -78
47 0 338 250 328 282 -9 26 -26 15 -103 -62z"/>
<path d="M9449 12396 c-2 -2 -28 -7 -57 -10 -81 -9 -157 -33 -259 -83 -99 -48
-213 -141 -213 -174 0 -29 17 -23 73 26 154 135 468 215 682 175 50 -9 69 -10
78 -1 21 21 -7 45 -64 58 -51 11 -231 18 -240 9z"/>
<path d="M9455 12273 c-168 -16 -348 -92 -472 -200 -104 -91 -209 -269 -248
-422 -25 -95 -27 -117 -22 -240 3 -89 10 -153 21 -186 9 -27 22 -66 27 -85 16
-50 91 -169 146 -230 199 -221 518 -288 801 -168 53 23 108 49 121 59 23 18
24 18 68 -18 41 -34 43 -38 27 -50 -23 -17 -86 -39 -159 -55 -50 -11 -61 -17
-63 -35 -3 -21 1 -23 45 -23 67 0 109 14 184 59 58 35 66 38 89 26 61 -31 174
-57 254 -56 211 0 378 103 467 287 40 82 42 91 46 198 5 121 -5 169 -62 288
-57 120 -233 268 -355 299 -46 12 -49 15 -70 68 -41 109 -85 164 -104 132 -3
-5 10 -43 29 -84 19 -42 35 -78 35 -81 0 -3 -18 -6 -39 -6 l-39 0 -27 70 c-32
84 -89 173 -155 240 -58 59 -182 142 -253 169 -81 30 -218 51 -292 44z m247
-104 c161 -56 294 -174 373 -330 25 -51 43 -95 39 -98 -7 -7 -17 5 -84 108
-57 88 -171 207 -243 254 -29 19 -81 45 -117 60 -79 31 -55 36 32 6z m617
-484 c79 -21 155 -61 224 -118 l61 -51 -66 -16 c-98 -24 -167 -78 -212 -168
-94 -187 55 -502 240 -506 24 -1 44 -3 44 -6 -1 -13 -93 -70 -155 -96 -61 -25
-82 -29 -170 -29 -97 0 -103 1 -159 35 -55 33 -210 184 -211 205 -1 6 -5 31
-9 56 -6 35 -4 54 8 78 17 32 11 40 -14 19 -12 -11 -12 -10 -1 5 8 9 19 16 25
15 16 -4 66 43 66 61 0 8 -23 39 -52 68 -43 44 -51 57 -50 87 1 20 8 48 16 64
15 28 93 109 133 137 36 25 137 149 124 153 -6 2 -11 8 -11 13 0 14 109 10
169 -6z m-245 -26 c-16 -17 -57 -49 -91 -71 -114 -72 -173 -163 -173 -265 0
-57 20 -103 59 -135 l31 -27 -21 -15 c-69 -48 -77 -129 -24 -233 32 -61 33
-65 9 -38 -39 46 -64 105 -64 157 0 39 6 54 30 82 l30 34 -29 29 c-55 55 -65
147 -26 231 35 75 78 125 180 208 93 76 143 100 89 43z m76 8 c0 -2 -12 -14
-27 -28 l-28 -24 24 28 c23 25 31 32 31 24z m-165 -147 c-3 -5 -12 -10 -18
-10 -7 0 -6 4 3 10 19 12 23 12 15 0z m682 -99 c31 -46 29 -58 -10 -65 -19 -3
-44 -17 -57 -31 l-23 -24 -49 35 c-27 20 -51 34 -53 32 -4 -4 36 -35 93 -73 1
-1 -3 -15 -9 -31 -40 -99 43 -274 130 -274 25 0 26 -11 5 -53 -35 -69 -68 -81
-158 -56 -125 35 -218 244 -177 397 15 55 77 116 156 153 80 38 122 35 152
-10z m-775 -12 c-9 -23 -18 -37 -20 -31 -3 10 24 72 32 72 3 0 -3 -19 -12 -41z
m-218 -16 c-8 -35 -41 -100 -53 -107 -5 -4 -12 -2 -16 4 -10 17 -32 11 -38
-10 -3 -14 -17 -21 -45 -26 -22 -3 -56 -16 -75 -28 -34 -21 -107 -100 -107
-116 0 -4 -9 -6 -20 -3 -15 4 -20 0 -20 -16 0 -11 -6 -21 -13 -21 -31 0 -104
-107 -93 -136 3 -8 2 -12 -3 -9 -5 3 -12 -3 -14 -12 -3 -10 -5 -5 -6 12 -1 44
32 109 68 134 18 13 42 44 53 69 12 25 39 63 59 83 45 45 151 99 196 99 36 0
68 26 101 82 21 36 34 36 26 1z m193 -70 c-3 -10 -5 -4 -5 12 0 17 2 24 5 18
2 -7 2 -21 0 -30z m856 -15 c4 -14 -20 -58 -33 -58 -10 0 -31 50 -25 61 9 13
53 11 58 -3z m-74 -63 c23 -39 17 -44 -18 -15 -13 12 -21 26 -17 35 8 21 12
19 35 -20z m-999 -45 c0 -5 -2 -10 -4 -10 -3 0 -8 5 -11 10 -3 6 -1 10 4 10 6
0 11 -4 11 -10z m-53 -26 c-3 -3 -12 -4 -19 -1 -8 3 -5 6 6 6 11 1 17 -2 13
-5z m-47 -11 c-8 -3 -24 -10 -35 -16 -18 -9 -19 -9 -6 6 7 10 23 17 35 16 14
0 16 -2 6 -6z m-145 -131 c-3 -3 -11 0 -18 7 -9 10 -8 11 6 5 10 -3 15 -9 12
-12z m494 -77 c0 -5 -4 -3 -9 5 -5 8 -9 22 -9 30 0 16 17 -16 18 -35z m-722
-102 c-3 -10 -5 -4 -5 12 0 17 2 24 5 18 2 -7 2 -21 0 -30z m910 -120 c-6 -5
-77 34 -97 53 -8 8 11 1 43 -17 32 -17 56 -33 54 -36z"/>
<path d="M10520 11412 c0 -5 15 -19 33 -32 l32 -23 -29 31 c-31 34 -36 37 -36
24z"/>
<path d="M10585 11390 c10 -11 20 -20 23 -20 3 0 -3 9 -13 20 -10 11 -20 20
-23 20 -3 0 3 -9 13 -20z"/>
<path d="M10475 11290 c3 -5 14 -10 23 -10 15 0 15 2 2 10 -20 13 -33 13 -25
0z"/>
<path d="M10505 11230 c3 -5 11 -10 16 -10 6 0 7 5 4 10 -3 6 -11 10 -16 10
-6 0 -7 -4 -4 -10z"/>
<path d="M10510 11180 c0 -5 5 -10 10 -10 6 0 10 5 10 10 0 6 -4 10 -10 10 -5
0 -10 -4 -10 -10z"/>
<path d="M10518 11133 c7 -3 16 -2 19 1 4 3 -2 6 -13 5 -11 0 -14 -3 -6 -6z"/>
<path d="M10520 11100 c-9 -6 -10 -10 -3 -10 6 0 15 5 18 10 8 12 4 12 -15 0z"/>
<path d="M10514 11065 c-10 -8 -14 -15 -8 -15 6 0 17 7 24 15 16 19 9 19 -16
0z"/>
<path d="M10498 10999 l-43 -41 50 38 c28 21 52 40 54 41 2 2 -1 3 -6 3 -6 0
-31 -18 -55 -41z"/>
<path d="M10532 10974 c-29 -26 -51 -49 -48 -52 3 -3 30 18 60 46 68 65 59 68
-12 6z"/>
<path d="M10591 10966 c-18 -19 -32 -39 -30 -44 2 -5 19 10 37 34 39 53 37 56
-7 10z"/>
<path d="M10640 10931 c-11 -23 -17 -41 -12 -41 10 0 45 70 38 77 -2 3 -14
-13 -26 -36z"/>
<path d="M12678 12249 c-42 -19 -69 -51 -55 -65 3 -3 32 4 66 16 33 11 70 20
81 20 33 0 82 -29 126 -76 22 -24 48 -44 57 -44 32 0 17 38 -35 93 -76 79
-149 96 -240 56z"/>
<path d="M12361 12027 c-19 -24 -43 -89 -68 -187 -20 -80 -24 -118 -23 -240 0
-81 7 -171 14 -205 20 -88 64 -232 83 -268 44 -86 167 -247 189 -247 6 0 17 7
24 15 10 12 2 25 -46 73 -68 68 -122 155 -163 262 -45 115 -62 218 -64 375 -2
148 16 251 63 360 22 50 25 75 11 75 -5 0 -14 -6 -20 -13z"/>
<path d="M8623 11723 c-38 -91 -61 -217 -61 -328 -1 -99 4 -133 37 -260 13
-52 101 -211 144 -262 75 -87 225 -200 253 -189 29 11 12 33 -61 81 -169 110
-276 274 -316 483 -18 97 -6 297 25 406 14 49 23 93 20 98 -11 17 -26 7 -41
-29z"/>
<path d="M13033 10925 c-82 -96 -207 -139 -278 -96 -20 11 -41 21 -46 21 -20
0 -4 -43 24 -64 50 -37 183 -19 258 35 64 45 135 159 100 159 -6 0 -31 -25
-58 -55z"/>
<path d="M8065 9640 c-31 -12 -95 -87 -95 -111 0 -28 19 -61 31 -54 5 4 6 17
3 30 -4 18 3 34 35 68 23 25 53 48 66 51 14 4 25 11 25 16 0 12 -37 12 -65 0z"/>
<path d="M8479 9636 c-48 -17 -99 -49 -128 -79 l-23 -25 -56 26 c-71 33 -145
36 -184 7 -48 -35 -72 -99 -78 -206 -5 -87 -8 -98 -34 -130 -89 -105 -100
-240 -24 -293 32 -23 59 -20 123 14 32 17 59 29 60 28 1 -2 9 -20 19 -42 25
-54 82 -114 116 -121 38 -8 84 16 135 72 l40 44 17 -29 c10 -16 38 -47 62 -70
39 -36 52 -42 89 -42 102 0 190 119 190 255 0 50 1 53 33 64 25 9 42 28 75 84
48 84 58 131 35 175 -28 55 -69 75 -163 80 l-83 5 0 40 c0 58 -34 122 -74 141
-41 19 -98 20 -147 2z m-115 -208 c-5 -7 -44 -56 -88 -108 -44 -52 -81 -97
-83 -99 -2 -2 -6 -2 -9 2 -11 11 158 217 179 217 4 0 5 -6 1 -12z m46 -47 c0
-12 -141 -173 -147 -167 -7 6 127 176 139 176 4 0 8 -4 8 -9z m331 -41 c-23
-20 -41 -26 -41 -14 0 11 34 33 50 33 10 0 8 -6 -9 -19z m-338 -65 c-53 -69
-73 -88 -73 -67 0 13 110 142 121 142 5 0 -16 -34 -48 -75z m367 10 c-7 -8
-17 -15 -22 -15 -6 0 -5 7 2 15 7 8 17 15 22 15 6 0 5 -7 -2 -15z m-321 -54
c-19 -22 -38 -40 -43 -40 -4 -1 7 17 25 38 19 22 38 40 43 40 4 1 -7 -17 -25
-38z m351 0 c0 -12 -20 -25 -27 -18 -7 7 6 27 18 27 5 0 9 -4 9 -9z m-3 -67
c-3 -3 -12 -4 -19 -1 -8 3 -5 6 6 6 11 1 17 -2 13 -5z m-202 -119 l5 -60 -15
45 c-17 52 -20 99 -5 84 5 -5 12 -36 15 -69z m65 35 c-1 -12 -4 -11 -15 4 -8
10 -12 23 -8 29 7 11 23 -12 23 -33z m-140 -23 c0 -47 -17 -40 -20 8 -3 42 -1
47 10 40 6 -3 10 -25 10 -48z m-80 -17 c0 -5 -4 -10 -10 -10 -5 0 -10 5 -10
10 0 6 5 10 10 10 6 0 10 -4 10 -10z"/>
<path d="M8890 9492 c0 -5 25 -30 55 -56 30 -26 58 -58 61 -72 10 -39 27 -28
21 14 -5 27 -19 49 -51 80 -40 37 -86 56 -86 34z"/>
<path d="M7834 9035 c-8 -31 20 -103 56 -147 41 -49 48 -27 11 41 -18 35 -31
74 -31 95 0 42 -26 51 -36 11z"/>
<path d="M8712 8768 c-28 -28 -101 -31 -149 -6 -26 13 -34 14 -43 3 -16 -19
30 -51 84 -59 67 -10 145 28 146 72 0 18 -13 15 -38 -10z"/>
<path d="M13539 12263 c-13 -17 -13 -17 6 -3 11 8 22 16 24 17 2 2 0 3 -6 3
-6 0 -17 -8 -24 -17z"/>
<path d="M13564 12228 l-19 -23 23 19 c21 18 27 26 19 26 -2 0 -12 -10 -23
-22z"/>
<path d="M13605 12200 c-9 -16 -13 -30 -11 -30 3 0 12 14 21 30 9 17 13 30 11
30 -3 0 -12 -13 -21 -30z"/>
<path d="M13641 12194 c0 -11 3 -14 6 -6 3 7 2 16 -1 19 -3 4 -6 -2 -5 -13z"/>
<path d="M13683 12165 c0 -22 2 -30 4 -17 2 12 2 30 0 40 -3 9 -5 -1 -4 -23z"/>
<path d="M13631 12154 c0 -11 3 -14 6 -6 3 7 2 16 -1 19 -3 4 -6 -2 -5 -13z"/>
<path d="M13720 12151 c0 -11 4 -22 9 -25 4 -3 6 6 3 19 -5 30 -12 33 -12 6z"/>
<path d="M3872 11058 c-6 -7 -31 -72 -57 -143 -25 -72 -62 -172 -82 -224 l-35
-93 20 -21 c20 -20 23 -20 249 -7 125 7 238 16 251 21 26 10 27 8 -41 100 -26
35 -99 134 -162 219 -64 85 -119 156 -124 158 -4 1 -13 -3 -19 -10z m171 -245
c76 -102 136 -187 135 -189 -7 -6 -428 -8 -428 -1 0 4 6 7 13 7 8 0 13 13 14
33 0 53 84 250 111 262 14 6 20 15 16 25 -38 90 -8 61 139 -137z"/>
<path d="M3924 10850 c-14 -6 -31 -32 -48 -77 -15 -37 -36 -83 -47 -102 -11
-18 -19 -35 -17 -36 4 -3 127 12 206 26 l63 12 -24 26 c-14 14 -41 54 -61 88
-42 72 -44 73 -72 63z"/>
<path d="M3965 51 c-8 -38 3 -54 34 -49 l21 3 -24 39 -24 40 -7 -33z"/>
<path d="M4090 63 c0 -2 7 -17 15 -33 12 -23 22 -30 46 -30 l30 0 -20 29 c-11
16 -32 31 -46 33 -14 3 -25 3 -25 1z"/>
</g>
</svg>
