<svg width="256" height="256" viewBox="0 0 256 256" fill="none" xmlns="http://www.w3.org/2000/svg">
<mask id="mask0_170_3137" style="mask-type:alpha" maskUnits="userSpaceOnUse" x="0" y="0" width="256" height="256">
<rect x="0.0744019" y="0.0744629" width="255.851" height="255.851" rx="10" fill="#818181" fill-opacity="0.1"/>
<rect x="0.574402" y="0.574463" width="254.851" height="254.851" rx="9.5" stroke="#939393" stroke-opacity="0.1"/>
</mask>
<g mask="url(#mask0_170_3137)">
<rect x="-21" y="-5" width="299" height="267" fill="#9A9A9A"/>
<path d="M111.367 133.28C108.587 133.28 106.647 131.96 105.867 129.82L108.227 128.44C108.767 129.86 109.847 130.58 111.447 130.58C112.987 130.58 113.687 129.96 113.687 129.1C113.687 128.6 113.467 128.22 113.027 127.96C112.587 127.68 111.807 127.38 110.667 127.06C109.407 126.68 108.647 126.38 107.767 125.76C106.907 125.12 106.447 124.16 106.447 122.88C106.447 121.62 106.887 120.6 107.787 119.86C108.687 119.1 109.787 118.72 111.047 118.72C113.307 118.72 115.087 119.88 116.047 121.86L113.727 123.2C113.167 122 112.267 121.4 111.047 121.4C109.907 121.4 109.207 121.98 109.207 122.8C109.207 123.24 109.387 123.6 109.747 123.88C110.127 124.14 110.827 124.44 111.867 124.76L112.827 125.08C113.047 125.14 113.347 125.26 113.727 125.42C114.107 125.56 114.407 125.7 114.607 125.84C115.027 126.1 115.667 126.6 115.927 127.08C116.227 127.56 116.447 128.26 116.447 129.06C116.447 130.36 115.967 131.38 115.027 132.14C114.087 132.9 112.867 133.28 111.367 133.28ZM126.32 131.76C125.3 132.78 124.04 133.28 122.56 133.28C121.08 133.28 119.82 132.78 118.8 131.76C117.78 130.74 117.28 129.48 117.28 128C117.28 126.52 117.78 125.28 118.8 124.26C119.82 123.24 121.08 122.72 122.56 122.72C124.04 122.72 125.3 123.24 126.32 124.26C127.34 125.28 127.86 126.52 127.86 128C127.86 129.48 127.34 130.74 126.32 131.76ZM120.62 129.98C121.14 130.5 121.78 130.76 122.56 130.76C123.34 130.76 123.98 130.5 124.5 129.98C125.02 129.46 125.28 128.8 125.28 128C125.28 127.2 125.02 126.54 124.5 126.02C123.98 125.5 123.34 125.24 122.56 125.24C121.78 125.24 121.14 125.5 120.62 126.02C120.12 126.54 119.86 127.2 119.86 128C119.86 128.8 120.12 129.46 120.62 129.98ZM137.595 131.76C136.575 132.78 135.315 133.28 133.835 133.28C132.355 133.28 131.095 132.78 130.075 131.76C129.055 130.74 128.555 129.48 128.555 128C128.555 126.52 129.055 125.28 130.075 124.26C131.095 123.24 132.355 122.72 133.835 122.72C135.315 122.72 136.575 123.24 137.595 124.26C138.615 125.28 139.135 126.52 139.135 128C139.135 129.48 138.615 130.74 137.595 131.76ZM131.895 129.98C132.415 130.5 133.055 130.76 133.835 130.76C134.615 130.76 135.255 130.5 135.775 129.98C136.295 129.46 136.555 128.8 136.555 128C136.555 127.2 136.295 126.54 135.775 126.02C135.255 125.5 134.615 125.24 133.835 125.24C133.055 125.24 132.415 125.5 131.895 126.02C131.395 126.54 131.135 127.2 131.135 128C131.135 128.8 131.395 129.46 131.895 129.98ZM145.91 122.72C147.01 122.72 147.91 123.08 148.61 123.82C149.33 124.56 149.69 125.56 149.69 126.86V133H147.11V127.18C147.11 125.84 146.33 125.12 145.13 125.12C143.79 125.12 142.93 125.94 142.93 127.6V133H140.35V123H142.93V124.12C143.55 123.18 144.55 122.72 145.91 122.72Z" fill="#030304"/>
</g>
</svg>
