<svg width="54" height="54" viewBox="0 0 54 54" fill="none" xmlns="http://www.w3.org/2000/svg">
<g clip-path="url(#clip0_278_1706)">
<path d="M28.0548 0.168739C27.4747 0.421864 27.0423 0.801552 26.7997 1.28671L26.5782 1.74022H25.8188C25.1649 1.74022 24.9751 1.78241 24.5532 2.03553C23.7411 2.51014 23.3087 3.35389 23.3087 4.44022V4.93592L22.7075 4.88319C22.1802 4.841 22.0114 4.88319 21.5157 5.13632C20.7774 5.516 20.2923 6.19101 20.1974 6.99257C20.1657 7.28788 20.1446 10.4836 20.1657 14.0801L20.1974 20.6191L20.461 21.1887C20.5981 21.5051 20.8724 21.9691 21.0517 22.2117L21.3892 22.6547L21.0727 22.95C20.904 23.1187 20.6298 23.4879 20.4821 23.7832L20.1974 24.3105V38.9496V53.5992L20.4505 53.7996C20.7669 54.0633 21.1044 54.0527 21.4524 53.7785L21.7267 53.5676V40.9641V28.3711H27.0001H32.2735V40.9219V53.4832L32.5372 53.7363C32.8642 54.0738 33.2649 54.0738 33.6024 53.7363L33.8556 53.4832L33.8345 38.8441L33.8028 24.2051L33.5708 23.7621C33.4337 23.5195 33.1595 23.1504 32.9485 22.95C32.5688 22.5808 32.5688 22.5808 32.7587 22.3277C32.8747 22.1801 34.3513 20.4082 36.0493 18.3937C37.7579 16.3687 39.2239 14.5652 39.3188 14.3965C39.4243 14.2066 39.4876 13.8269 39.4981 13.4473C39.4981 12.1711 38.5595 11.2324 37.2833 11.2324C36.4923 11.243 36.1759 11.4117 35.2267 12.3082L34.4884 12.9937V8.56405C34.4884 5.80077 34.4462 3.92343 34.3724 3.59647C34.2247 2.92147 33.7712 2.27811 33.2017 1.9828C32.8536 1.8035 32.5688 1.75077 31.9677 1.74022C31.2399 1.74022 31.1872 1.71913 31.0923 1.47655C30.6704 0.348034 29.1517 -0.30587 28.0548 0.168739ZM29.3415 1.72968C29.7106 2.00389 29.7423 2.38358 29.7423 6.80272C29.7423 11.1586 29.7423 11.1691 29.9743 11.3906C30.3962 11.7808 31.0079 11.6226 31.2083 11.0637C31.2821 10.8422 31.3243 9.50272 31.3243 7.21405V3.70194L31.5985 3.491C31.7567 3.36444 31.9466 3.26952 32.0204 3.26952C32.2524 3.26952 32.6849 3.50155 32.7692 3.68085C32.8114 3.77577 32.8747 6.23319 32.9063 9.14413C32.9591 14.3121 32.9591 14.4387 33.1806 14.734C33.4337 15.0715 33.9188 15.2508 34.3302 15.1453C34.4778 15.1031 35.1317 14.5758 35.7751 13.9746C37.0935 12.7195 37.3571 12.593 37.7263 13.0148C37.8634 13.173 37.9688 13.3523 37.9688 13.4262C37.9688 13.6476 37.6735 14.0062 34.4567 17.8453C32.2102 20.5242 31.1872 21.6633 30.8708 21.8426L30.4278 22.0957H26.9368H23.4458L22.929 21.7793C22.6126 21.5789 22.2962 21.2625 22.0958 20.9461L21.7794 20.4293L21.7477 13.8797C21.7267 10.2726 21.7477 7.2246 21.7794 7.08749C21.8638 6.74999 22.2118 6.43358 22.5071 6.43358C22.6442 6.43358 22.8763 6.5285 23.0345 6.65507L23.3087 6.866V8.86991C23.3087 10.4203 23.3403 10.9371 23.4669 11.1691C23.72 11.6648 24.2474 11.7492 24.6481 11.3695L24.8907 11.148V7.57264C24.8907 5.05194 24.9224 3.92343 25.0173 3.76522C25.2915 3.23788 25.745 3.13241 26.1985 3.491L26.4727 3.70194V7.21405C26.4727 9.50272 26.5149 10.8422 26.5888 11.0637C26.7892 11.6226 27.4009 11.7808 27.8227 11.3906C28.0548 11.1691 28.0548 11.1586 28.0548 6.80272C28.0548 4.03944 28.097 2.33085 28.1602 2.15155C28.3079 1.78241 28.561 1.59257 28.8985 1.59257C29.0462 1.59257 29.2466 1.6453 29.3415 1.72968ZM31.8727 24.1312C32.2208 24.4687 32.2208 24.4793 32.2524 25.6289L32.2946 26.7891H27.0106H21.7267V25.8398C21.7267 24.7113 21.8849 24.2473 22.3806 23.9414C22.7181 23.7305 22.8657 23.7305 27.1267 23.7516L31.5352 23.7832L31.8727 24.1312Z" fill="#F4BB03"/>
<path d="M9.57675 16.9172C8.92284 17.0859 8.40604 17.5078 8.13182 18.0668L7.91034 18.5308L7.34081 18.4781C6.64471 18.4254 6.10682 18.5941 5.62167 19.016C4.91503 19.6383 4.86229 19.9019 4.8412 22.5703C4.83065 23.8781 4.79901 25.8609 4.75682 26.9789L4.69354 29.0039L3.92362 28.3289C3.34354 27.8226 3.02714 27.6223 2.64745 27.5273C0.801746 27.0844 -0.69591 29.2254 0.358777 30.7969C0.495887 30.9973 1.9619 32.7691 3.60721 34.7309L6.60253 38.2851L6.15956 38.7598C5.36854 39.5824 5.37909 39.4453 5.37909 46.9019V53.4832L5.64276 53.7363C5.96971 54.0738 6.3705 54.0738 6.69745 53.7363L6.96112 53.4832V48.6738V43.875H11.9182H16.8752V48.6738V53.4832L17.1389 53.7363C17.4553 54.0633 17.8139 54.0738 18.183 53.7785L18.4678 53.557L18.4361 46.691C18.4045 39.8777 18.4045 39.8144 18.1724 39.3926C18.0564 39.1605 17.8033 38.8336 17.624 38.6648L17.3076 38.359L17.624 37.9898C17.8033 37.7894 18.0564 37.3992 18.1724 37.1355C18.4045 36.6609 18.4045 36.5555 18.4361 29.9426L18.4678 23.2348L18.1619 22.6652C17.74 21.8637 17.0861 21.4629 16.1685 21.4629H15.5041V21.0937C15.4935 19.459 14.4389 18.3726 12.9834 18.4781C12.3928 18.5203 12.3506 18.5098 12.2873 18.2777C12.2029 17.9297 11.6334 17.318 11.1904 17.0965C10.6525 16.8328 10.1568 16.7695 9.57675 16.9172ZM10.7053 18.6996C10.8424 18.8894 10.8635 19.6066 10.8635 23.1609C10.8635 27.1476 10.874 27.4113 11.0639 27.6434C11.3381 27.9809 11.9709 27.9809 12.2451 27.6434C12.4349 27.4113 12.4455 27.1582 12.4455 23.9309C12.4455 20.598 12.456 20.4504 12.6564 20.25C12.9307 19.9758 13.4158 19.9758 13.6689 20.2605C13.8588 20.4715 13.8693 20.7141 13.901 24.0047L13.9326 27.5168L14.2068 27.7383C14.5654 28.0125 14.7975 28.0019 15.156 27.6961L15.4514 27.443L15.5041 25.3758C15.5357 24.2156 15.599 23.2769 15.6623 23.2137C15.9049 22.9816 16.3057 22.9816 16.5904 23.2031L16.8752 23.4246V29.7738C16.8752 35.6906 16.8541 36.1547 16.6748 36.5449C16.4322 37.0828 15.8416 37.6101 15.3248 37.7473C15.0822 37.8211 13.69 37.8633 11.9076 37.8633H8.88065L8.35331 37.568C7.93143 37.3465 7.48846 36.893 6.35995 35.543C5.55839 34.5832 4.15565 32.9062 3.23807 31.8199C2.33104 30.7336 1.58221 29.7422 1.58221 29.6367C1.58221 29.3836 1.94081 29.0039 2.16229 29.0039C2.24667 29.0039 2.86893 29.5101 3.53339 30.1219C4.55643 31.0605 4.80956 31.2504 5.16815 31.2926C5.53729 31.3453 5.62167 31.3137 5.93807 30.9973L6.30721 30.6281L6.38104 25.534C6.45487 20.7457 6.47596 20.4187 6.65526 20.2394C6.90839 19.9863 7.40409 19.9863 7.62557 20.2289C7.77323 20.3871 7.80487 20.8723 7.82596 23.9309L7.85761 27.443L8.15292 27.6961C8.51151 28.0019 8.74354 28.0125 9.11268 27.7277L9.3869 27.5168V23.3719C9.3869 20.6824 9.42909 19.1109 9.50292 18.9C9.69276 18.3621 10.3889 18.2461 10.7053 18.6996ZM16.2424 39.6035C16.7275 39.8566 16.8752 40.2574 16.8752 41.3437V42.293H11.9182H6.96112V41.3437C6.96112 40.268 7.10878 39.8672 7.57284 39.6141C8.00526 39.3715 15.7889 39.3715 16.2424 39.6035Z" fill="#F4BB03"/>
<path d="M43.4534 16.8644C42.694 17.0226 41.8503 17.7082 41.7132 18.2777C41.6499 18.5098 41.6077 18.5203 41.0171 18.4781C39.5616 18.3726 38.5069 19.459 38.4964 21.0937V21.4629H37.8319C36.9144 21.4629 36.2604 21.8637 35.8386 22.6652L35.5327 23.2348L35.5644 29.9426C35.596 36.5555 35.596 36.6609 35.828 37.1355C35.944 37.3992 36.1972 37.7894 36.3765 37.9898L36.6929 38.359L36.3765 38.6648C36.1972 38.8336 35.944 39.1605 35.828 39.3926C35.596 39.8144 35.596 39.8777 35.5644 46.691L35.5327 53.557L35.8175 53.7785C36.1866 54.0738 36.5452 54.0633 36.8616 53.7363L37.1253 53.4832V48.6738V43.875H41.0276H44.9405L45.1937 43.6113C45.3413 43.4742 45.4573 43.2316 45.4573 43.084C45.4573 42.9363 45.3413 42.6937 45.1937 42.5566L44.9405 42.293H41.0276H37.1253V41.3437C37.1253 40.2574 37.2729 39.8566 37.7581 39.6035C38.2116 39.3715 45.953 39.3715 46.4065 39.6035C47.0604 39.941 47.0394 39.7512 47.0394 46.9336V53.4832L47.303 53.7363C47.63 54.0738 48.0308 54.0738 48.3577 53.7363L48.6214 53.4832V46.9019C48.6214 39.4453 48.6319 39.5824 47.8409 38.7598L47.3979 38.2851L50.3933 34.7309C52.0386 32.7691 53.5046 30.9973 53.6417 30.7969C54.6964 29.2254 53.1671 27.0738 51.3319 27.5379C50.9733 27.6223 50.6253 27.8437 50.0769 28.3289L49.3069 29.0039L49.2437 27.0316C49.2015 25.9348 49.1698 23.9519 49.1593 22.623C49.1382 19.9019 49.0854 19.6383 48.3788 19.016C47.8937 18.5941 47.3558 18.4254 46.6597 18.4781L46.0901 18.5308L45.8687 18.0562C45.6155 17.5394 44.9827 17.0332 44.4765 16.9277C44.2866 16.8855 44.0651 16.8433 43.9808 16.8328C43.8964 16.8117 43.6538 16.8328 43.4534 16.8644ZM44.4976 18.9C44.5714 19.1109 44.6136 20.693 44.6136 23.3719V27.5168L44.8878 27.7277C45.2569 28.0125 45.489 28.0019 45.8476 27.6961L46.1429 27.443L46.1745 23.9309C46.1956 20.8723 46.2272 20.3871 46.3749 20.2289C46.5964 19.9863 47.0921 19.9863 47.3452 20.2394C47.5245 20.4187 47.5456 20.7457 47.6194 25.534L47.6933 30.6281L48.0624 30.9973C48.3788 31.3137 48.4632 31.3453 48.8323 31.2926C49.1909 31.2504 49.444 31.0605 50.4671 30.1219C51.1315 29.5101 51.7538 29.0039 51.8382 29.0039C52.0597 29.0039 52.4183 29.3836 52.4183 29.6367C52.4183 29.7422 51.6694 30.7336 50.7624 31.8199C49.8448 32.9062 48.4421 34.5832 47.6405 35.543C46.512 36.893 46.069 37.3465 45.6472 37.5785L45.1198 37.8633H42.0929C40.2894 37.8633 38.9183 37.8211 38.6757 37.7473C38.4542 37.684 38.0851 37.473 37.8636 37.2726C37.0937 36.5766 37.1147 36.7769 37.1464 29.7L37.178 23.3824L37.4628 23.1715C37.7159 22.9816 37.7792 22.9816 38.064 23.0976C38.2433 23.1715 38.412 23.3297 38.4437 23.4562C38.4753 23.5723 38.5069 24.5215 38.5175 25.5551L38.5491 27.443L38.8444 27.6961C39.203 28.0019 39.4351 28.0125 39.7937 27.7383L40.0679 27.5168L40.0995 24.0047C40.1312 20.7141 40.1417 20.4715 40.3315 20.2605C40.5847 19.9758 41.0698 19.9758 41.344 20.25C41.5444 20.4504 41.555 20.598 41.555 23.9414V27.4324L41.8292 27.7066C42.0401 27.9176 42.1562 27.9598 42.4304 27.907C43.1476 27.7699 43.137 27.8648 43.137 23.182C43.137 20.4082 43.1792 18.9 43.253 18.7629C43.5167 18.2566 44.3077 18.341 44.4976 18.9Z" fill="#F4BB03"/>
</g>
<defs>
<clipPath id="clip0_278_1706">
<rect width="54" height="54" fill="white"/>
</clipPath>
</defs>
</svg>
