<svg width="54" height="54" viewBox="0 0 54 54" fill="none" xmlns="http://www.w3.org/2000/svg">
<g clip-path="url(#clip0_620_2796)">
<path d="M50.2032 0.210869C43.1157 0.94915 36.5872 3.03743 32.2735 5.93782C30.7442 6.96087 30.0798 7.55149 26.6098 11.0003L23.1188 14.4702L18.1723 15.0292C15.4618 15.3245 13.1415 15.6304 13.0255 15.6937C12.9094 15.757 10.7368 17.8874 8.19499 20.4292C3.52273 25.112 3.51218 25.1226 3.58601 25.787C3.61765 26.1034 3.99734 26.462 4.41921 26.5675C4.63015 26.6202 6.21218 26.8628 7.93132 27.1054L11.0743 27.5484L11.9391 28.4449C12.4243 28.93 12.8251 29.373 12.8462 29.4152C12.8567 29.4574 11.8337 30.1218 10.568 30.8812C8.25827 32.2628 8.0157 32.4632 8.0157 33.0222C8.0157 33.1382 8.06843 33.3386 8.13171 33.4652C8.30046 33.7921 20.1341 45.6468 20.4821 45.8366C20.6403 45.921 20.8618 45.9843 20.9778 45.9843C21.5368 45.9843 21.7372 45.7417 23.1188 43.432C23.8782 42.1663 24.5426 41.1433 24.5848 41.1538C24.627 41.1749 25.07 41.5757 25.5551 42.0609L26.4516 42.9257L26.8946 46.0687C27.1372 47.7878 27.3798 49.3699 27.4325 49.5808C27.538 50.0027 27.8966 50.3824 28.213 50.414C28.8774 50.4878 28.888 50.4773 33.5708 45.805C36.1126 43.2632 38.243 41.0906 38.3063 40.9745C38.3696 40.8585 38.6755 38.5382 38.9708 35.8277L39.5298 30.8812L42.9997 27.3902C46.4485 23.9202 47.0391 23.2558 48.0622 21.7265C51.0048 17.3706 53.0719 10.821 53.7891 3.64915C54.0739 0.790947 54.0739 0.790947 53.6415 0.358528C53.3145 0.0315742 53.2301 -6.86646e-05 52.6712 0.010479C52.3231 0.0210266 51.2157 0.1054 50.2032 0.210869ZM51.743 3.07962C51.5637 5.14681 51.1208 7.78353 50.5512 10.1671L50.1821 11.7386L46.2376 7.79407C44.0649 5.62142 42.293 3.839 42.293 3.82845C42.293 3.8179 42.9891 3.64915 43.854 3.43821C45.5309 3.03743 47.8934 2.61556 49.4122 2.43626C49.9395 2.37298 50.4774 2.29915 50.6251 2.27806C50.7727 2.25697 51.0997 2.23587 51.3528 2.22532L51.8169 2.21478L51.743 3.07962ZM44.7505 9.26009L49.4755 13.9851L49.0958 15.0398C48.0622 17.8452 46.2798 20.8933 44.529 22.8339C44.0122 23.414 40.5106 26.9472 36.7665 30.6913L29.9532 37.4941L25.7028 33.2437C21.5368 29.0882 21.4419 29.0038 21.0305 29.0038C20.5876 29.0038 20.2501 29.2148 20.0391 29.6261C19.7333 30.2167 19.8282 30.3222 24.2051 34.6991C26.4938 36.9878 28.3712 38.9074 28.3712 38.9706C28.3712 39.1077 27.0844 40.3945 26.9473 40.3945C26.8102 40.3945 13.6055 27.1898 13.6055 27.0527C13.6055 26.8312 31.4719 9.12298 32.3368 8.46907C34.193 7.08743 36.5028 5.8429 38.8126 4.96751C39.4243 4.73548 39.9411 4.54564 39.9727 4.53509C40.0044 4.53509 42.1559 6.66556 44.7505 9.26009ZM16.3899 21.2097L12.0446 25.5445L9.63992 25.2175C8.31101 25.0277 7.14031 24.8484 7.03484 24.8062C6.88718 24.7429 7.57273 24.0152 10.4098 21.1781L13.9747 17.6132L17.086 17.2546C18.7946 17.0648 20.3134 16.896 20.461 16.8855C20.6719 16.8749 19.8176 17.782 16.3899 21.2097ZM18.763 35.2687L23.0134 39.5296L21.9376 41.3331C21.3364 42.3245 20.8301 43.1366 20.788 43.1366C20.6509 43.1366 10.8212 33.2331 10.895 33.1593C10.9794 33.0644 14.3755 31.0183 14.4493 31.0077C14.4809 31.0077 16.4216 32.9273 18.763 35.2687ZM36.7559 36.7136L36.3868 40.0253L32.8219 43.5902C29.9848 46.4273 29.2571 47.1128 29.1938 46.9652C29.1516 46.8597 28.9723 45.689 28.7825 44.3601L28.4555 41.9554L32.7587 37.6417C35.1212 35.2792 37.0723 33.3491 37.0934 33.3702C37.1145 33.3808 36.9563 34.889 36.7559 36.7136Z" fill="#F4BB03"/>
<path d="M32.9589 13.5106C32.6741 13.5739 32.0308 13.806 31.5351 14.0485C29.7843 14.8923 28.4659 16.6009 28.1073 18.5099C27.9069 19.5224 27.9069 19.997 28.1073 20.9356C28.6241 23.4036 30.5964 25.3759 33.0644 25.8927C34.003 26.0931 34.4776 26.0931 35.5112 25.8927C37.3991 25.5341 39.1183 24.2157 39.9515 22.4649C41.6073 19.0267 39.9515 14.9978 36.3761 13.7427C35.4901 13.4368 33.887 13.3208 32.9589 13.5106ZM35.4796 15.6622C36.8929 16.0946 37.9897 17.2337 38.3905 18.6997C38.7386 19.997 38.264 21.6528 37.2304 22.6864C35.2581 24.6587 31.8409 24.1103 30.5858 21.6212C29.3729 19.2271 30.5647 16.4743 33.1698 15.6517C33.7499 15.4724 34.8573 15.4724 35.4796 15.6622Z" fill="#F4BB03"/>
<path d="M17.7504 26.0297C17.3918 26.0825 16.9805 26.6415 16.9805 27.0739C16.9805 27.3376 17.0648 27.5274 17.2863 27.7489C18.0562 28.5083 19.3219 27.7489 18.9844 26.7258C18.9211 26.536 18.8051 26.3356 18.7207 26.2618C18.5309 26.1036 18.0352 25.977 17.7504 26.0297Z" fill="#F4BB03"/>
<path d="M5.14669 41.4176C3.24825 43.316 1.64513 44.993 1.5713 45.1512C1.48692 45.3727 1.48692 45.5414 1.58185 45.8156C1.7295 46.2691 2.0881 46.5117 2.60489 46.5117C2.98458 46.5117 3.14278 46.3641 6.4545 43.0629C8.35294 41.1645 9.95606 39.4875 10.0299 39.3293C10.1143 39.1078 10.1143 38.9391 10.0193 38.6648C9.86114 38.1797 9.55528 37.9688 9.02794 37.9688C8.61661 37.9688 8.53224 38.0426 5.14669 41.4176Z" fill="#F4BB03"/>
<path d="M11.4959 41.0908C11.1163 41.3439 0.664301 51.7642 0.305708 52.2494C-0.10562 52.8084 -0.0950736 53.188 0.358442 53.6416C0.811958 54.0951 1.19165 54.1056 1.75063 53.6943C2.23579 53.3357 12.6561 42.8837 12.9092 42.5041C13.1834 42.0927 13.1307 41.6181 12.751 41.249C12.3819 40.8693 11.9073 40.8166 11.4959 41.0908Z" fill="#F4BB03"/>
<path d="M14.502 44.0756C14.3332 44.181 12.6773 45.7842 10.8422 47.6404C7.64648 50.8467 7.48828 51.026 7.48828 51.4057C7.48828 51.9119 7.73086 52.2705 8.18437 52.4182C8.45859 52.5131 8.62734 52.5131 8.84883 52.4287C9.00703 52.3549 10.684 50.7517 12.5824 48.8533C15.8836 45.5416 16.0312 45.3834 16.0312 45.0037C16.0312 44.4975 15.7887 44.1389 15.3773 43.9912C14.9449 43.833 14.8711 43.8435 14.502 44.0756Z" fill="#F4BB03"/>
</g>
<defs>
<clipPath id="clip0_620_2796">
<rect width="54" height="54" fill="white"/>
</clipPath>
</defs>
</svg>
