<svg width="54" height="54" viewBox="0 0 54 54" fill="none" xmlns="http://www.w3.org/2000/svg">
<path d="M27.0527 0.263671L26.7891 0.516796V5.09414V9.67148L27.0527 9.91406C27.3902 10.2305 27.8754 10.2305 28.2129 9.91406L28.4766 9.67148V5.09414V0.516796L28.2129 0.263671C28.0547 0.0949211 27.8332 -9.53674e-07 27.6328 -9.53674e-07C27.4324 -9.53674e-07 27.2109 0.0949211 27.0527 0.263671Z" fill="#F4BB03"/>
<path d="M20.4082 4.69336L20.1445 4.94648V7.30898V9.67148L20.4082 9.91406C20.5664 10.0617 20.7984 10.1566 20.9883 10.1566C21.1781 10.1566 21.4102 10.0617 21.5684 9.91406L21.832 9.67148V7.30898V4.94648L21.5684 4.69336C21.4102 4.52461 21.1887 4.42969 20.9883 4.42969C20.7879 4.42969 20.5664 4.52461 20.4082 4.69336Z" fill="#F4BB03"/>
<path d="M33.6973 4.69336L33.4336 4.94649V7.29844C33.4441 9.82969 33.4547 9.91406 33.9926 10.1145C34.3195 10.241 34.5516 10.1777 34.8891 9.88242C35.1211 9.67149 35.1211 9.61875 35.1211 7.30899V4.94649L34.8574 4.69336C34.6992 4.52461 34.4777 4.42969 34.2773 4.42969C34.077 4.42969 33.8555 4.52461 33.6973 4.69336Z" fill="#F4BB03"/>
<path d="M25.5234 11.9707C21.4945 12.6562 17.9507 15.2824 16.1472 18.9316C15.2191 20.7984 14.8289 22.4754 14.8289 24.627C14.8289 28.0441 15.9996 31.0078 18.3199 33.4441C22.6652 38.0215 29.5312 38.7598 34.8574 35.2477C35.2687 34.984 36.0808 34.2879 36.6609 33.6973C38.6015 31.7777 39.7828 29.5418 40.2996 26.7891C40.4683 25.9031 40.4683 23.3402 40.2996 22.4754C39.3714 17.6766 36.1652 13.9535 31.6617 12.4453C29.8687 11.8441 27.3902 11.6543 25.5234 11.9707ZM29.489 13.7215C31.8621 14.1434 33.9082 15.2402 35.6062 17.0016C36.9457 18.3937 37.8527 20.0074 38.3589 21.9164C38.6015 22.8129 38.6332 23.1504 38.6332 24.627C38.6332 26.1246 38.6015 26.441 38.3589 27.3691C36.9351 32.6848 32.0835 36.102 26.5992 35.6379C20.7773 35.1422 16.2843 29.9637 16.5902 24.1102C16.8539 19.0266 20.4398 14.85 25.4707 13.7848C26.346 13.5949 28.5925 13.5633 29.489 13.7215Z" fill="#F4BB03"/>
<path d="M27.1582 16.3688C26.7891 16.5691 26.6836 16.7906 26.6836 17.4129V18.0035L26.2195 18.1828C24.859 18.6996 23.8359 20.2078 23.8359 21.6844C23.8359 22.8129 24.5742 24.1734 25.5023 24.7641C26.1984 25.2176 26.5148 25.323 27.4535 25.4285C28.3922 25.5445 28.7613 25.6922 29.141 26.1457C30.2484 27.4641 29.352 29.4258 27.6328 29.4258C26.5781 29.4258 25.8082 28.7402 25.6395 27.6223C25.4813 26.6414 24.7535 26.2828 24.1418 26.884C23.7832 27.2426 23.7621 27.5168 23.9941 28.4238C24.2895 29.5523 25.2809 30.6492 26.3461 31.0184C26.673 31.1344 26.6836 31.1555 26.6836 31.7145C26.6836 32.4105 26.7891 32.6215 27.2109 32.8008C27.4641 32.9062 27.5906 32.9062 27.8438 32.8008C28.2656 32.632 28.3711 32.4105 28.3711 31.7461C28.3711 31.3348 28.4133 31.1977 28.5609 31.1555C30.6176 30.4699 31.7777 28.5293 31.282 26.5781C30.8602 24.9539 29.6895 23.9414 27.9809 23.7305C26.9473 23.5934 26.8207 23.5512 26.3777 23.2348C25.0805 22.2539 25.5656 20.1551 27.1898 19.7332C28.3395 19.4168 29.6262 20.3977 29.6367 21.6C29.6367 22.043 30.1219 22.5703 30.5332 22.5703C30.9129 22.5703 31.4297 22.043 31.4297 21.6527C31.4297 21.0727 31.1027 20.0918 30.7336 19.5434C30.2801 18.8789 29.7949 18.4992 29.0145 18.1828L28.4238 17.9402L28.3922 17.434C28.3605 16.8117 28.2129 16.5164 27.8754 16.3582C27.559 16.2105 27.4324 16.2211 27.1582 16.3688Z" fill="#F4BB03"/>
<path d="M4.02895 36.3656C3.90239 36.4922 3.77583 36.7031 3.75473 36.8297C3.63872 37.357 3.29067 52.5551 3.38559 52.8082C3.56489 53.2934 3.90239 53.3355 7.85747 53.4199L11.5489 53.4937L11.7915 53.2301C11.9602 53.0508 12.0657 52.7766 12.1079 52.4074L12.1817 51.859L13.3946 51.2262C15.1981 50.298 14.7973 50.2559 21.6211 52.1754C24.7325 53.0508 27.675 53.8312 28.1602 53.9051C29.12 54.0422 30.8918 53.9895 31.8516 53.7891C33.6024 53.4305 34.2774 53.1035 37.2094 51.2156C47.9989 44.2547 50.2875 42.7676 50.5512 42.525C50.9415 42.1559 50.9309 41.7234 50.509 41.0906C50.0872 40.4684 49.4649 39.9516 48.6633 39.5824C47.8512 39.2133 46.3957 39.1184 45.5836 39.382C45.2883 39.4875 43.4426 40.3207 41.4809 41.2488C38.3168 42.7465 37.9055 42.9152 37.8106 42.757C37.0196 41.4176 35.5641 40.3945 33.9715 40.0781C33.7079 40.0254 31.7989 39.9305 29.7317 39.8672C25.3969 39.7406 25.0489 39.6879 23.3192 38.8125C21.136 37.7262 19.5856 37.3781 17.2653 37.473C15.7254 37.5258 14.7973 37.7367 13.3207 38.3273L12.4137 38.6859L12.477 37.9477C12.5614 36.9879 12.3926 36.5555 11.8969 36.4078C11.7071 36.3445 9.92466 36.2602 7.89966 36.218C4.28208 36.1547 4.23989 36.1547 4.02895 36.3656ZM10.7051 38.1059C10.7157 38.1164 10.6313 40.9746 10.5364 44.4551C10.4309 47.9355 10.3465 50.9941 10.3465 51.2473L10.336 51.7113L7.73091 51.6375C6.29653 51.5953 5.11528 51.5531 5.10473 51.5426C5.08364 51.5215 5.45278 38.148 5.47387 37.9793C5.48442 37.9371 10.684 38.0531 10.7051 38.1059ZM20.229 39.5086C20.8196 39.6562 21.8004 40.0359 22.6547 40.4367C24.6797 41.3965 24.9118 41.4492 27.9493 41.5652C33.6551 41.7867 33.845 41.7973 34.5094 42.1031C35.311 42.4723 35.9965 43.1367 36.3868 43.9066C36.893 44.9191 36.9774 44.8664 34.8364 44.7926C33.8028 44.7504 31.5879 44.6871 29.9004 44.6555C26.9262 44.5816 26.8313 44.5922 26.5782 44.8031C26.2196 45.0879 26.209 45.8156 26.5571 46.0898C26.8629 46.343 27.3586 46.3746 33.17 46.5223L38.011 46.6383L38.3168 46.3008C38.6016 45.9844 38.6227 45.9 38.5805 45.2777L38.5489 44.6027L42.2086 42.873C44.2231 41.9133 46.0793 41.0906 46.3325 41.0273C46.5856 40.9746 46.9758 40.9535 47.2079 40.9957C47.7036 41.0695 48.6528 41.523 48.6 41.6602C48.5684 41.7762 34.2352 51.0574 33.6235 51.3738C33.4125 51.4793 32.8219 51.7008 32.3051 51.859C31.4614 52.1121 31.2188 52.1437 29.6368 52.1437H27.8965L22.254 50.5301C15.1875 48.5051 14.945 48.4734 13.0149 49.4332C12.5825 49.6441 12.2239 49.8023 12.2028 49.7707C12.15 49.718 12.4032 40.827 12.4559 40.7742C12.6457 40.5949 14.0274 39.9199 14.6286 39.7195C16.4426 39.0973 18.32 39.034 20.229 39.5086Z" fill="#F4BB03"/>
</svg>
