<svg width="54" height="54" viewBox="0 0 54 54" fill="none" xmlns="http://www.w3.org/2000/svg">
<path d="M4.0395 0.158207C2.11997 0.675003 0.664502 2.15157 0.158252 4.08165C-0.0843262 4.98867 -0.0843262 42.7887 0.158252 43.6957C0.348096 44.434 0.675049 44.9613 1.28677 45.5203C1.89849 46.0898 2.70005 46.3852 3.89185 46.4695L4.85161 46.5434V49.2117V51.8801L2.73169 51.9117L0.611768 51.9434L0.305908 52.2914C-0.0948731 52.7344 -0.0948731 53.1563 0.305908 53.5992L0.611768 53.9473L26.9368 53.9789L53.2618 54L53.5993 53.6941C53.884 53.441 53.9473 53.3145 53.9473 52.9453C53.9473 52.5762 53.884 52.4496 53.5993 52.1965L53.2618 51.8906H51.2051H49.1485V49.2117V46.5434L50.1083 46.4695C51.3001 46.3852 52.1016 46.0898 52.7133 45.5203C53.3251 44.9613 53.652 44.434 53.8419 43.6957C54.0844 42.7887 54.0844 4.98867 53.8419 4.08165C53.3356 2.13047 51.8696 0.664455 49.9184 0.158207C49.0325 -0.0738258 4.8938 -0.0632782 4.0395 0.158207ZM50.0028 2.3836C50.6356 2.67891 51.3211 3.36446 51.6059 3.99727C51.7958 4.4086 51.8379 4.725 51.8696 6.03281L51.9118 7.59375H27.0106H2.10942V6.24375C2.10942 5.36836 2.16216 4.70391 2.25708 4.3875C2.56294 3.3961 3.28013 2.63672 4.27153 2.29922C4.76724 2.13047 6.16997 2.11993 27.1583 2.14102L49.5176 2.16211L50.0028 2.3836ZM51.8907 26.3883C51.8907 42.0715 51.8801 43.1051 51.7008 43.4531C51.395 44.0754 50.9415 44.2969 49.9817 44.2969H49.1485V36.0914C49.1485 28.1602 49.1379 27.8859 48.9376 27.559C48.8004 27.3375 48.6106 27.1898 48.3364 27.116C47.7985 26.9684 41.6391 26.9684 41.1012 27.116C40.827 27.1898 40.6372 27.3375 40.5001 27.559C40.2997 27.8754 40.2891 28.1074 40.2891 30.818V33.75L40.5844 34.0664C40.7637 34.2668 41.0063 34.4145 41.2489 34.4461C41.5758 34.4988 41.6918 34.4566 41.9872 34.193L42.3458 33.8766L42.3774 31.5457L42.409 29.2148H44.7294H47.0391V40.5527V51.8906H44.7188H42.3985L42.3774 45.9844L42.3458 40.0781L42.061 39.8039C41.6708 39.4137 41.0168 39.4137 40.6266 39.8039L40.3419 40.0781L40.3102 45.9844L40.2891 51.8906H38.8126H37.336L37.3149 45.0246L37.2833 38.1586L36.9352 37.8527L36.5872 37.5363L32.843 37.568L29.0883 37.5996L28.7825 37.9477L28.4766 38.2852V45.0879V51.8906H27.0001H25.5235V40.7215C25.5235 33.8766 25.4813 29.4469 25.418 29.2781C25.3653 29.1305 25.1965 28.9301 25.0278 28.8246C24.7641 28.6559 24.4266 28.6348 21.0938 28.6348C17.761 28.6348 17.4235 28.6559 17.1598 28.8246C16.9911 28.9301 16.8223 29.1305 16.7696 29.2781C16.7063 29.4469 16.6641 33.8766 16.6641 40.7215V51.8906H15.1876H13.7215L13.6899 46.3957L13.6583 40.9008L13.3102 40.5949L12.9622 40.2785L9.22857 40.3102L5.48442 40.3418L5.19966 40.6371C4.90435 40.9219 4.90435 40.9324 4.87271 42.6094L4.84106 44.2969H4.01841C3.05864 44.2969 2.60513 44.0754 2.29927 43.4531C2.11997 43.1051 2.10942 42.0715 2.10942 26.3883V9.70313H27.0001H51.8907V26.3883ZM23.4141 41.291V51.8906H21.0938H18.7735V41.291V30.6914H21.0938H23.4141V41.291ZM35.2266 45.7734V51.8906H32.9063H30.586V45.7734V39.6563H32.9063H35.2266V45.7734ZM11.6016 47.1445V51.8906H9.2813H6.96099V47.1445V42.3984H9.2813H11.6016V47.1445Z" fill="#F4BB03"/>
<path d="M6.38082 3.8918C5.70582 4.17656 5.52652 5.05195 6.04332 5.5582C6.67613 6.20156 7.75191 5.75859 7.75191 4.85156C7.75191 4.15547 6.99254 3.62813 6.38082 3.8918Z" fill="#F4BB03"/>
<path d="M10.5996 3.8918C9.92457 4.17656 9.74527 5.05195 10.2621 5.5582C10.8949 6.20156 11.9707 5.75859 11.9707 4.85156C11.9707 4.15547 11.2113 3.62813 10.5996 3.8918Z" fill="#F4BB03"/>
<path d="M14.8183 3.8918C14.1433 4.17656 13.964 5.05195 14.4808 5.5582C15.1136 6.20156 16.1894 5.75859 16.1894 4.85156C16.1894 4.15547 15.43 3.62813 14.8183 3.8918Z" fill="#F4BB03"/>
<path d="M23.0449 3.8918C22.3699 4.17656 22.1906 5.05195 22.7074 5.5582L22.9921 5.85352L35.2793 5.88516L47.5558 5.90625L47.9039 5.60039C48.1886 5.34727 48.2519 5.2207 48.2519 4.85156C48.2519 4.48242 48.1886 4.35586 47.9039 4.10273L47.5664 3.79688L35.4058 3.80742C28.7296 3.80742 23.1609 3.84961 23.0449 3.8918Z" fill="#F4BB03"/>
<path d="M5.53718 13.384C5.19968 13.5316 4.9571 13.8691 4.88328 14.2699C4.83054 14.6074 4.87273 14.7023 5.19968 15.0293L5.56882 15.3984H8.43757H11.3063L11.6755 15.0293C12.0024 14.7023 12.0446 14.6074 11.9919 14.2699C11.9497 14.059 11.802 13.7637 11.6544 13.616L11.3907 13.3418L8.56414 13.3207C7.01374 13.3102 5.6532 13.3418 5.53718 13.384Z" fill="#F4BB03"/>
<path d="M14.502 13.384C13.8692 13.6477 13.6688 14.5441 14.1329 15.0293C14.7763 15.7148 15.9259 15.2719 15.9259 14.3438C15.9259 13.6055 15.1876 13.1098 14.502 13.384Z" fill="#F4BB03"/>
<path d="M19.5856 14.4598C18.6048 14.6918 17.5606 15.5355 17.1071 16.4848C16.6325 17.4445 16.622 18.8262 17.0649 19.7332L17.2653 20.1234L14.1435 23.2348L11.0216 26.3355L10.5048 26.1352C10.1567 25.998 9.71377 25.9348 9.20752 25.9348C7.0876 25.9348 5.46338 27.559 5.46338 29.6789C5.46338 30.7863 5.77979 31.5352 6.58135 32.3367C7.43564 33.191 8.14229 33.4652 9.33408 33.4125C11.3696 33.3281 12.8567 31.8727 12.9517 29.8477C12.9833 29.2359 12.9411 28.909 12.7724 28.4238L12.5509 27.791L15.6306 24.7008C18.5521 21.7793 18.7419 21.6105 19.0372 21.6738C20.6931 21.9797 20.8091 21.9797 21.6106 21.7371L22.3911 21.4945L25.9771 25.0805L29.563 28.6664L29.3415 29.1832C28.5294 31.0816 29.3837 33.2543 31.3032 34.1508C31.8095 34.3828 32.0521 34.4355 32.8009 34.425C33.5603 34.425 33.8028 34.3828 34.3407 34.1297C36.0915 33.3387 36.988 31.3137 36.3868 29.5418L36.1653 28.8668L39.7302 25.2914L43.295 21.716L43.7169 21.8004C45.6153 22.1801 47.3134 21.3891 48.1255 19.7332C48.4313 19.1109 48.463 18.9422 48.463 18.1406C48.4524 17.3918 48.4103 17.1387 48.1571 16.6008C47.7985 15.7887 47.0708 15.082 46.2481 14.6918C45.7103 14.4387 45.4782 14.3965 44.7188 14.3965C43.9595 14.3965 43.7274 14.4387 43.1896 14.6918C42.3563 15.082 41.6392 15.7887 41.2806 16.6008C41.0274 17.1387 40.9853 17.3918 40.9747 18.1406C40.9747 18.9422 41.0169 19.1215 41.3017 19.691L41.6181 20.3449L38.1271 23.8359L34.6255 27.327L33.9505 27.1055C33.2017 26.8418 32.1997 26.8629 31.5142 27.1477L31.1556 27.3059L27.4958 23.6461L23.8466 19.9863L24.047 19.4062C24.4583 18.225 24.2368 16.7906 23.5091 15.852C22.581 14.6707 21.02 14.1223 19.5856 14.4598ZM21.2521 16.6641C22.0853 17.0648 22.4228 18.2355 21.9165 18.9844C21.3681 19.7859 20.5981 20.018 19.786 19.6277C19.1638 19.3219 18.8579 18.8262 18.8579 18.1406C18.8579 16.8645 20.0919 16.1051 21.2521 16.6641ZM45.3833 16.6008C46.4802 17.0543 46.7333 18.4465 45.879 19.3008C45.4255 19.7543 44.9614 19.8914 44.3392 19.7859C44.1071 19.7332 43.8118 19.5539 43.5587 19.3008C42.2509 17.993 43.6747 15.8836 45.3833 16.6008ZM10.22 28.35C11.0954 28.9934 11.0532 30.4488 10.1356 31.0711C9.07041 31.7988 7.56221 30.9867 7.56221 29.6894C7.56221 28.3394 9.13369 27.5484 10.22 28.35ZM33.729 29.2887C34.2669 29.6894 34.4356 30.0269 34.4356 30.6914C34.4356 31.3559 34.2669 31.6934 33.7079 32.1047C33.286 32.4316 32.3368 32.4105 31.8728 32.0836C31.4614 31.7883 31.1134 31.1449 31.1134 30.6914C31.1134 30.0691 31.6407 29.3309 32.2735 29.0777C32.5688 28.9512 33.4442 29.0777 33.729 29.2887Z" fill="#F4BB03"/>
<path d="M5.53718 18.4465C5.19968 18.5941 4.9571 18.9316 4.88328 19.3324C4.83054 19.6699 4.87273 19.7648 5.19968 20.0918L5.56882 20.4609H8.43757H11.3063L11.6755 20.0918C12.0024 19.7648 12.0446 19.6699 11.9919 19.3324C11.9497 19.1215 11.802 18.8262 11.6544 18.6785L11.3907 18.4043L8.56414 18.3832C7.01374 18.3727 5.6532 18.4043 5.53718 18.4465Z" fill="#F4BB03"/>
<path d="M40.6794 36.4289C39.7302 37.3148 40.9115 38.7809 41.9451 38.0109C42.7361 37.4203 42.3247 36.1758 41.3439 36.1758C41.0802 36.1758 40.8693 36.2602 40.6794 36.4289Z" fill="#F4BB03"/>
</svg>
