<svg width="48" height="48" viewBox="0 0 48 48" fill="none" xmlns="http://www.w3.org/2000/svg">
<g filter="url(#filter0_b_73_1457)">
<circle cx="24" cy="24" r="24" fill="#818181" fill-opacity="0.1"/>
<circle cx="24" cy="24" r="23.5" stroke="#939393" stroke-opacity="0.1"/>
</g>
<g clip-path="url(#clip0_73_1457)">
<path d="M34.5 17.4887C33.7191 17.8312 32.8869 18.0583 32.0194 18.1686C32.9119 17.6357 33.5931 16.7983 33.9133 15.789C33.0812 16.2851 32.1624 16.6356 31.1833 16.8311C30.3932 15.9898 29.2671 15.4688 28.0386 15.4688C25.6551 15.4688 23.7362 17.4034 23.7362 19.7751C23.7362 20.1163 23.7651 20.4444 23.8359 20.7568C20.2568 20.5822 17.0897 18.8668 14.9621 16.2536C14.5907 16.8981 14.3728 17.6357 14.3728 18.4297C14.3728 19.9208 15.1406 21.2424 16.2851 22.0076C15.5934 21.9945 14.9149 21.7937 14.34 21.4774C14.34 21.4905 14.34 21.5076 14.34 21.5246C14.34 23.6167 15.8323 25.3545 17.7892 25.7548C17.4388 25.8506 17.0569 25.8966 16.6605 25.8966C16.3849 25.8966 16.1066 25.8808 15.8454 25.8231C16.4032 27.528 17.9861 28.7814 19.8683 28.8221C18.4035 29.9679 16.5437 30.6583 14.5303 30.6583C14.1773 30.6583 13.8386 30.6426 13.5 30.5992C15.4071 31.8291 17.6672 32.5312 20.1045 32.5312C28.0267 32.5312 32.358 25.9688 32.358 20.2804C32.358 20.0901 32.3514 19.9063 32.3423 19.7239C33.1967 19.1175 33.9146 18.3602 34.5 17.4887Z" fill="#F4BB03"/>
</g>
<defs>
<filter id="filter0_b_73_1457" x="-25" y="-25" width="98" height="98" filterUnits="userSpaceOnUse" color-interpolation-filters="sRGB">
<feFlood flood-opacity="0" result="BackgroundImageFix"/>
<feGaussianBlur in="BackgroundImageFix" stdDeviation="12.5"/>
<feComposite in2="SourceAlpha" operator="in" result="effect1_backgroundBlur_73_1457"/>
<feBlend mode="normal" in="SourceGraphic" in2="effect1_backgroundBlur_73_1457" result="shape"/>
</filter>
<clipPath id="clip0_73_1457">
<rect width="21" height="21" fill="white" transform="translate(13.5 13.5)"/>
</clipPath>
</defs>
</svg>
