<svg width="16" height="26" viewBox="0 0 16 26" fill="none" xmlns="http://www.w3.org/2000/svg">
<path d="M8.70711 0.292893C8.31658 -0.0976311 7.68342 -0.0976311 7.29289 0.292893L0.928932 6.65685C0.538408 7.04738 0.538408 7.68054 0.928932 8.07107C1.31946 8.46159 1.95262 8.46159 2.34315 8.07107L8 2.41421L13.6569 8.07107C14.0474 8.46159 14.6805 8.46159 15.0711 8.07107C15.4616 7.68054 15.4616 7.04738 15.0711 6.65685L8.70711 0.292893ZM7 1L7 2.04167L9 2.04167L9 1L7 1ZM7 4.125L7 6.20833L9 6.20833L9 4.125L7 4.125ZM7 8.29167L7 10.375L9 10.375L9 8.29167L7 8.29167ZM7 12.4583L7 14.5417L9 14.5417L9 12.4583L7 12.4583ZM7 16.625L7 18.7083L9 18.7083L9 16.625L7 16.625ZM7 20.7917L7 22.875L9 22.875L9 20.7917L7 20.7917ZM7 24.9583L7 26L9 26L9 24.9583L7 24.9583Z" fill="#F4BB03"/>
</svg>
