<svg width="93" height="93" viewBox="0 0 93 93" fill="none" xmlns="http://www.w3.org/2000/svg">
<g filter="url(#filter0_b_110_1603)">
<rect width="93" height="93" rx="16" fill="#818181" fill-opacity="0.1"/>
<rect x="0.5" y="0.5" width="92" height="92" rx="15.5" stroke="#939393" stroke-opacity="0.1"/>
</g>
<path d="M31.3695 23.048C30.8422 23.4699 30.4414 25.1257 30.4414 26.9082C30.4414 29.3867 31.1797 31.3695 32.8039 33.3312C33.848 34.5652 36.0734 35.9363 37.666 36.316C38.0773 36.4109 38.4676 36.4953 38.5414 36.5164C38.6363 36.548 38.668 37.5078 38.668 40.8828C38.668 43.2558 38.6363 45.207 38.6047 45.207C38.573 45.207 38.1617 44.8589 37.7082 44.4265C37.2441 43.9941 36.548 43.4246 36.1473 43.1503C35.4828 42.7179 35.3984 42.6124 35.2297 42.1167C34.0273 38.457 30.4309 36.0207 26.5918 36.2738C25.073 36.3792 23.2379 37.0015 22.7 37.6027C22.4574 37.8769 22.5102 38.4359 22.8898 39.5222C23.6492 41.716 25.4949 43.6249 27.7309 44.5636C29.7664 45.4074 32.3504 45.3757 34.3332 44.4898L34.7973 44.2789L35.3352 44.6585C36.0734 45.1859 37.4129 46.4832 38.0457 47.2742L38.5625 47.9281V48.7296V49.5312H30.8105H23.048L22.7949 49.7949L22.5312 50.048V53.7499V57.4519L22.7949 57.705L23.048 57.9687H25.748H28.4375V60.4999V63.0312H26.1699C23.8918 63.0312 23.8918 63.0312 23.6387 63.2949L23.375 63.548V67.2499V70.9519L23.6387 71.205L23.8918 71.4687H38.1195C50.2906 71.4687 52.4105 71.4898 52.7902 71.6269C53.0223 71.7007 53.7078 71.88 54.2984 72.0171C55.7012 72.323 58.359 72.3546 59.7828 72.0699C65.5941 70.9097 70.066 66.4378 71.2262 60.6265C71.4793 59.3609 71.4793 56.5765 71.2262 55.3109C70.066 49.4996 65.5941 45.0277 59.7828 43.8675C58.4961 43.6144 55.7117 43.6144 54.4883 43.8675C52.2523 44.3421 50.1641 45.2808 48.4977 46.5464C47.6117 47.2214 46.2195 48.582 45.8293 49.1621L45.5762 49.5312H42.9184H40.25V47.2214V44.9117L40.9355 44.2683C41.3152 43.9203 41.8742 43.4457 42.1801 43.2242C42.8762 42.7074 44.3633 41.832 44.5426 41.832C44.627 41.832 44.8801 41.9585 45.1227 42.1062C47.3059 43.4878 50.5016 43.7093 53.0328 42.6652C55.0262 41.8425 56.9246 39.9652 57.7156 38.0351C58.0004 37.339 58.032 36.896 57.8422 36.6429C57.6207 36.3792 56.7453 35.8203 56.007 35.4933C54.3828 34.755 52.0309 34.5441 50.3117 34.9765C47.8332 35.6093 45.766 37.2441 44.6375 39.48C44.3844 39.9968 44.3 40.0601 43.3297 40.5558C42.4227 41.0304 41.8109 41.4207 40.577 42.3382L40.25 42.5914L40.2711 39.4062L40.3027 36.221L41.1676 35.9257C43.6461 35.1031 45.6289 33.2152 46.6098 30.7472C46.9262 29.9667 47.2109 28.4691 47.2109 27.657C47.2004 26.3808 46.7152 24.398 46.2406 23.6914C45.9137 23.2167 45.6184 23.164 44.627 23.396C42.9395 23.7968 41.1359 24.9148 40.0496 26.2437C39.7332 26.6339 39.4379 26.9609 39.4062 26.9609C39.3746 26.9609 39.1215 26.6867 38.8262 26.3492C37.1281 24.3769 34.8605 23.1746 32.2871 22.9003C31.7387 22.8371 31.6121 22.8582 31.3695 23.048ZM34.1961 25.0519C35.7676 25.6636 37.3391 26.9503 38.1195 28.2582L38.4781 28.8488L38.3094 29.355C37.877 30.6839 37.8242 32.7089 38.1934 34.0273C38.2777 34.3437 38.3516 34.639 38.3516 34.6812C38.3516 34.7867 37.1914 34.407 36.5586 34.08C34.1117 32.846 32.5402 30.6839 32.1289 27.9628C31.9918 27.0874 32.0445 25.9062 32.2555 25.073L32.3715 24.6195L32.8672 24.6722C33.1414 24.7039 33.7426 24.8726 34.1961 25.0519ZM45.1859 25.5371C45.8082 27.4144 45.4602 29.8085 44.3211 31.5171C43.6988 32.4558 42.602 33.4156 41.6 33.9113C41.1148 34.1539 40.577 34.3753 40.3977 34.407C40.0602 34.4703 40.0602 34.4597 39.8809 33.8585C39.6172 32.9621 39.5645 31.4011 39.7648 30.4414C40.1656 28.5746 41.3469 26.8871 42.9816 25.864C43.5301 25.516 44.6691 25.0625 44.8906 25.0941C44.975 25.1046 45.1121 25.305 45.1859 25.5371ZM54.1297 36.6429C55.2055 36.9277 56.102 37.3812 56.0176 37.6027C55.8383 38.0878 55.2055 38.9843 54.6359 39.5644C52.5266 41.7265 49.1727 42.2855 46.4516 40.9144C46.1668 40.7773 45.9453 40.6085 45.9453 40.5347C45.9453 40.3449 46.8313 39.0054 47.2426 38.5835C48.0652 37.7187 49.4891 36.9066 50.6809 36.6113C51.5668 36.4003 53.2543 36.4109 54.1297 36.6429ZM28.7012 38.1933C29.0492 38.2777 29.7348 38.5519 30.2305 38.7945C31.6965 39.5117 32.9938 40.9777 33.5422 42.5492L33.6898 42.971L33.152 43.1398C29.6504 44.2789 25.8852 42.5281 24.5457 39.1214L24.3348 38.573L24.7777 38.4148C25.0203 38.3199 25.3895 38.2039 25.5898 38.1511C26.1805 37.9929 28.0051 38.014 28.7012 38.1933ZM59.8672 45.6183C64.2336 46.6097 67.7773 49.8265 69.1379 54.0347C69.602 55.4902 69.7285 56.3023 69.7285 57.9687C69.7285 59.6351 69.602 60.4472 69.1379 61.9027C67.7563 66.1742 64.1281 69.4121 59.6562 70.3718C58.5383 70.6144 55.9438 70.646 54.8574 70.4246C49.7316 69.4121 45.8188 65.5835 44.7219 60.4999C44.4477 59.2554 44.4477 56.682 44.7219 55.4374C45.534 51.6617 47.9492 48.4765 51.2926 46.7679C52.727 46.0296 53.9293 45.6499 55.7012 45.3757C56.4184 45.2703 58.9918 45.4179 59.8672 45.6183ZM26.75 52.4843V53.7499H27.5938H28.4375V52.4843V51.2187H30.9688H33.5V52.4843V53.7499H34.3438H35.1875V52.4843V51.2187H37.7188H40.25V52.4843V53.7499H41.0938H41.9375V52.4843V51.2187H43.1926H44.4582L44.0996 51.9992C43.6145 53.0433 43.2348 54.2246 43.0344 55.3531L42.8551 56.2812H40.7141H38.5625V55.0156V53.7499H37.7188H36.875V55.0156V56.2812H34.3438H31.8125V55.0156V53.7499H30.9688H30.125V55.0156V56.2812H27.1719H24.2188V53.7499V51.2187H25.4844H26.75V52.4843ZM32.6562 59.2343V60.4999H33.5H34.3438V59.2343V57.9687H36.875H39.4062V59.2343V60.4999H40.25H41.0938V59.2343V57.9687H41.927H42.7496L42.8234 58.939C42.9078 60.0148 43.2137 61.5441 43.5195 62.4511L43.7199 63.0312H40.7141H37.7188V61.7656V60.4999H36.875H36.0312V61.7656V63.0312H33.0781H30.125V60.4999V57.9687H31.3906H32.6562V59.2343ZM27.5938 65.9843V67.2499H28.4375H29.2812V65.9843V64.7187H31.8125H34.3438V65.9843V67.2499H35.1875H36.0312V65.9843V64.7187H38.5625H41.0938V65.9843V67.2499H41.9375H42.7812V65.9843V64.7187H43.6039H44.4266L45.0699 65.689C45.882 66.9335 46.8945 68.0937 47.7488 68.8003C48.118 69.0956 48.5398 69.4437 48.6875 69.5597L48.9512 69.7706L44.184 69.7812H39.4062V68.5156V67.2499H38.5625H37.7188V68.5156V69.7812H35.1875H32.6562V68.5156V67.2499H31.8125H30.9688V68.5156V69.7812H28.0156H25.0625V67.2499V64.7187H26.3281H27.5938V65.9843Z" fill="#F4BB03"/>
<path d="M55.3109 47.1474C51.3664 47.854 48.0547 50.6489 46.7785 54.3614C45.9875 56.6396 45.9769 59.213 46.7363 61.4384C47.9808 65.1193 51.0816 67.872 54.8574 68.6841C57.8105 69.3169 61.0379 68.6419 63.5058 66.8806C64.2547 66.3532 65.5203 65.0771 66.0371 64.3599C66.9652 63.0521 67.7351 61.1114 67.9777 59.4767C68.7055 54.604 65.8262 49.6259 61.2383 47.8013C59.4769 47.0947 57.0828 46.8415 55.3109 47.1474ZM59.3926 48.9825C63.432 50.09 66.132 53.3806 66.3746 57.4939C66.6383 62.145 63.3265 66.29 58.6859 67.1021C53.2754 68.0513 48.234 64.0329 47.8754 58.5064C47.7066 55.8907 48.6875 53.3384 50.5859 51.4294C51.9781 50.0478 53.5601 49.204 55.4902 48.8349C56.4816 48.645 58.4223 48.7189 59.3926 48.9825Z" fill="#F4BB03"/>
<path d="M56.2816 51.05V52.0309L55.691 52.0941C54.552 52.2102 53.5605 52.9062 52.991 53.982C52.7906 54.3617 52.7484 54.5938 52.7484 55.4375C52.7484 56.2812 52.7906 56.5133 52.991 56.893C53.5605 57.9688 54.552 58.6648 55.691 58.7809L56.2816 58.8441V60.5316V62.2191L55.8387 62.1559C55.5961 62.1242 55.2797 62.0082 55.132 61.8922C54.7523 61.618 54.3832 61.0484 54.3832 60.7531C54.3832 60.5105 54.3516 60.5 53.5289 60.5H52.6641L52.7273 61.0168C52.8961 62.4617 54.1828 63.6852 55.691 63.8434L56.2816 63.9066V64.8875V65.8789H57.1254H57.9691V64.8875V63.9066L58.5598 63.8434C59.6988 63.7273 60.6902 63.0312 61.2598 61.9555C61.4602 61.5758 61.5023 61.3438 61.5023 60.5C61.5023 59.6562 61.4602 59.4242 61.2598 59.0445C60.6902 57.9688 59.6988 57.2727 58.5598 57.1566L57.9691 57.0934V55.4059V53.7184L58.4121 53.7816C58.6547 53.8133 58.9711 53.9293 59.1188 54.0453C59.4984 54.3195 59.8676 54.8891 59.8676 55.1844C59.8676 55.427 59.8992 55.4375 60.7219 55.4375H61.5867L61.5234 54.9207C61.3547 53.4758 60.068 52.2523 58.5598 52.0941L57.9691 52.0309V51.05V50.0586H57.1254H56.2816V51.05ZM56.2816 55.448V57.1566L55.8387 57.0934C55.0266 56.9879 54.3832 56.2707 54.3832 55.4691C54.3832 54.541 55.1004 53.7816 55.9969 53.7605L56.2816 53.75V55.448ZM59.1188 59.1078C60.3844 60.0465 59.9414 61.9555 58.4121 62.1559L57.9691 62.2191V60.5V58.7809L58.4121 58.8441C58.6547 58.8758 58.9711 58.9918 59.1188 59.1078Z" fill="#F4BB03"/>
<defs>
<filter id="filter0_b_110_1603" x="-25" y="-25" width="143" height="143" filterUnits="userSpaceOnUse" color-interpolation-filters="sRGB">
<feFlood flood-opacity="0" result="BackgroundImageFix"/>
<feGaussianBlur in="BackgroundImageFix" stdDeviation="12.5"/>
<feComposite in2="SourceAlpha" operator="in" result="effect1_backgroundBlur_110_1603"/>
<feBlend mode="normal" in="SourceGraphic" in2="effect1_backgroundBlur_110_1603" result="shape"/>
</filter>
</defs>
</svg>
