<svg width="93" height="93" viewBox="0 0 93 93" fill="none" xmlns="http://www.w3.org/2000/svg">
<g filter="url(#filter0_b_110_1567)">
<rect width="93" height="93" rx="16" fill="#818181" fill-opacity="0.1"/>
<rect x="0.5" y="0.5" width="92" height="92" rx="15.5" stroke="#939393" stroke-opacity="0.1"/>
</g>
<path d="M26.0539 21.3713C24.7145 21.5717 23.6598 22.1201 22.6262 23.1537C21.7508 24.0291 21.1812 25.0416 20.9598 26.0963C20.8965 26.4233 20.8438 27.826 20.8438 29.4291C20.8438 32.1819 20.8438 32.203 21.0863 32.4244C21.3289 32.6565 21.3395 32.6565 26.3598 32.6565H31.3906L31.4117 50.2381L31.4434 67.8303L31.6754 68.4526C32.3715 70.2877 33.7215 71.6377 35.5145 72.2916L36.2949 72.5764L51.8727 72.608C69.2539 72.6397 68.2625 72.6713 69.834 71.9014C71.3738 71.142 72.6078 69.6022 72.998 67.978C73.1035 67.535 73.1562 66.7545 73.1562 65.6576C73.1562 63.485 73.2195 63.5588 71.2262 63.5588H69.7812V62.3459V61.133H70.3613C70.8465 61.133 70.9941 61.0908 71.2051 60.8694C71.4687 60.6162 71.4687 60.6162 71.4687 58.3592C71.4687 56.2287 71.4582 56.0811 71.2473 55.8174L71.0363 55.5432H69.4332L67.8301 55.5326L68.2519 55.2057C69.7602 54.0244 70.973 52.2737 71.5531 50.4807C72.2176 48.4135 72.1437 45.9877 71.3633 43.9627C70.7199 42.3069 69.391 40.5983 67.9145 39.5541C66.6488 38.6365 64.9402 37.9932 63.4531 37.8455L62.7676 37.7717L62.6937 33.342C62.6516 30.9057 62.6094 28.1951 62.5883 27.3303L62.5566 25.7483L62.0926 24.8096C61.3121 23.2065 59.941 22.0463 58.1797 21.5084C57.6523 21.3397 56.3234 21.3291 42.0957 21.308C33.5738 21.2975 26.3492 21.3291 26.0539 21.3713ZM28.7012 23.3541C29.9773 23.9553 31.0004 25.2104 31.2746 26.5182C31.3379 26.8241 31.3906 27.9737 31.3906 29.0705V31.0744H26.9082H22.4258V29.1338C22.4258 28.0686 22.4785 26.9401 22.5312 26.6342C22.8371 24.9889 24.1449 23.5545 25.748 23.101C26.6129 22.8584 27.868 22.9639 28.7012 23.3541ZM57.8844 23.1643C59.15 23.5545 60.0676 24.3561 60.6477 25.5795L60.9746 26.2756L61.0062 32.0448L61.0273 37.8033L60.4262 37.9299C56.7348 38.6998 53.8449 41.4526 52.843 45.1651C52.5371 46.283 52.5582 48.867 52.8852 50.0061C53.4125 51.8623 54.6992 53.8662 56.0703 54.9631L56.7242 55.4905L55.2582 55.5221C53.2543 55.5643 53.3387 55.4588 53.307 57.758L53.2754 59.4983L52.8008 59.5299C51.609 59.5932 51.5352 59.7408 51.5352 61.9768V63.5588H46.9578H42.3699L42.159 63.833C41.9586 64.0862 41.9375 64.2549 41.9375 65.5522C41.9375 67.1553 41.7898 67.9569 41.3363 68.7268C40.925 69.4334 40.134 70.1506 39.3324 70.5408C38.6574 70.8678 38.5625 70.8889 37.4551 70.8889C36.3582 70.8889 36.2527 70.8678 35.5777 70.5408C34.2805 69.908 33.3523 68.6951 33.0781 67.2502C32.9937 66.8494 32.9621 60.6162 32.9832 46.6838C32.9937 31.2326 32.9727 26.5709 32.8672 26.1174C32.6773 25.2631 32.0973 24.1135 31.5383 23.4912L31.0531 22.9533H44.1312C56.8613 22.9533 57.2305 22.9639 57.8844 23.1643ZM64.7926 39.8073C67.4398 40.7037 69.3594 42.7182 70.1187 45.3865C70.4246 46.4518 70.4457 48.3924 70.1715 49.426C69.4227 52.2209 67.366 54.383 64.6133 55.2479C63.9383 55.4588 63.6008 55.4905 62.293 55.4905C60.9957 55.4905 60.6477 55.4483 59.9727 55.2479C57.2937 54.4147 55.1949 52.2526 54.4777 49.5631C54.1824 48.4662 54.1613 46.6205 54.425 45.5764C55.2266 42.4967 57.6734 40.1764 60.827 39.5119C61.0801 39.4592 61.8605 39.4276 62.5566 39.4487C63.643 39.4803 63.9594 39.533 64.7926 39.8073ZM69.7812 58.3592V59.5826L69.2328 59.5088C68.9269 59.4772 65.573 59.4455 61.7973 59.4455H54.9102V58.2959V57.1358H62.3457H69.7812V58.3592ZM68.0937 62.3459V63.5588H60.6582H53.2227V62.3459V61.133H60.6582H68.0937V62.3459ZM71.5426 66.3326C71.5109 67.0182 71.416 67.7143 71.3211 67.9885C70.8676 69.233 69.6863 70.351 68.4207 70.7307C67.7352 70.9416 67.482 70.9416 54.7203 70.9205L41.7266 70.8889L42.159 70.3615C43.1082 69.2119 43.5195 67.999 43.5195 66.3537C43.5195 65.7631 43.5406 65.2569 43.5617 65.2358C43.5828 65.2147 49.9109 65.183 57.6102 65.1725L71.6059 65.1619L71.5426 66.3326Z" fill="#F4BB03"/>
<path d="M37.3492 28.2795C37.0117 28.6065 37.0117 28.9756 37.3386 29.3553L37.5918 29.6506L40.5554 29.6823C42.1797 29.7033 43.6562 29.6717 43.8461 29.6295C44.5632 29.4397 44.7636 28.7225 44.2363 28.2268C44.0148 28.0264 43.8777 28.0158 40.8086 28.0158H37.6023L37.3492 28.2795Z" fill="#F4BB03"/>
<path d="M37.4551 31.2324C37.1176 31.5594 37.107 32.0129 37.434 32.3187L37.6871 32.5508L42.5703 32.5297L47.4535 32.498L47.6645 32.2133C47.907 31.8969 47.8543 31.5066 47.5273 31.1797C47.327 30.9793 47.1582 30.9688 42.5176 30.9688H37.7082L37.4551 31.2324Z" fill="#F4BB03"/>
<path d="M37.6555 37.4023C37.3602 37.5184 37.0859 37.9086 37.0859 38.225C37.0859 38.3516 37.202 38.5836 37.3496 38.7207C37.5816 38.9633 37.6766 38.9844 38.6469 38.9844C39.5434 38.9844 39.7332 38.9527 39.9758 38.7629C40.4609 38.3832 40.3133 37.6238 39.7121 37.4129C39.3219 37.2758 37.9824 37.2652 37.6555 37.4023Z" fill="#F4BB03"/>
<path d="M42.4016 37.4023C42.1062 37.5184 41.832 37.9086 41.832 38.225C41.832 38.3516 41.948 38.5836 42.0957 38.7207L42.3488 38.9844H46.7891H51.2293L51.4824 38.7207C51.8199 38.3938 51.8199 38.0246 51.493 37.6449L51.2398 37.3496L46.9262 37.3285C44.5637 37.318 42.5176 37.3496 42.4016 37.4023Z" fill="#F4BB03"/>
<path d="M37.7504 40.6402C37.4445 40.7035 37.0859 41.157 37.0859 41.484C37.0859 41.6211 37.202 41.8531 37.3496 41.9902C37.6027 42.2539 37.6238 42.2539 39.6172 42.2539C41.6105 42.2539 41.6316 42.2539 41.8848 41.9902C42.3383 41.5473 42.1906 40.8828 41.6105 40.6824C41.2941 40.577 38.2777 40.5348 37.7504 40.6402Z" fill="#F4BB03"/>
<path d="M45.0277 40.6402C44.648 40.7141 44.3316 41.1887 44.4055 41.5684C44.5426 42.2434 44.5742 42.2539 48.0758 42.2539H51.2293L51.4824 41.9902C51.8199 41.6633 51.8199 41.2941 51.493 40.9145L51.2398 40.6191L48.2445 40.6086C46.6098 40.598 45.1543 40.6086 45.0277 40.6402Z" fill="#F4BB03"/>
<path d="M37.3074 44.532C37.0121 44.9012 37.0332 45.2598 37.3496 45.5762L37.6027 45.8398H42.4121H47.2215L47.4746 45.5762C47.791 45.2598 47.8121 44.9012 47.5168 44.532L47.3059 44.2578H42.4121H37.5184L37.3074 44.532Z" fill="#F4BB03"/>
<path d="M37.2966 52.516C36.9591 52.6848 36.8009 53.1277 36.938 53.5074C37.1173 54.0348 37.3177 54.0664 40.5872 54.0664C43.6141 54.0664 43.6141 54.0664 43.8989 53.8238C44.1099 53.6445 44.1837 53.4758 44.1837 53.2227C44.1837 52.9695 44.1099 52.8008 43.8989 52.6215C43.6141 52.3789 43.6141 52.3789 40.5872 52.3789C38.3724 52.3789 37.4864 52.4211 37.2966 52.516Z" fill="#F4BB03"/>
<path d="M37.1383 55.5957C36.7164 56.007 36.8008 56.6082 37.307 56.8613C37.5602 56.9984 38.4988 57.0195 43.2238 57.0195C49.2461 57.0195 49.2145 57.0195 49.5203 56.4816C49.7207 56.1336 49.5309 55.6273 49.1512 55.448C48.9613 55.3637 47.1895 55.332 43.1395 55.332H37.3914L37.1383 55.5957Z" fill="#F4BB03"/>
<path d="M61.734 40.8618C61.6391 40.9672 61.5336 41.1993 61.4914 41.368C61.4492 41.6106 61.3227 41.7371 60.943 41.9059C60.1625 42.2645 59.6984 42.7285 59.3188 43.4879C58.8652 44.416 58.8441 45.3758 59.2449 46.2618C59.8145 47.4957 60.616 48.0653 62.1242 48.3078C63.1473 48.466 63.4848 48.6559 63.7801 49.2149C64.202 49.9848 63.9594 50.9129 63.2106 51.4719C62.7359 51.82 61.8184 51.7778 61.3121 51.3981C60.8375 51.0395 60.732 50.8602 60.6055 50.143C60.5422 49.795 60.4156 49.5102 60.2785 49.3942C59.8145 49.0145 59.1184 49.2782 58.9602 49.8899C58.8652 50.2696 59.1922 51.3875 59.5613 51.9149C59.9199 52.4422 60.5422 52.9379 61.0801 53.1278C61.3332 53.2227 61.4492 53.3387 61.4914 53.5496C61.6707 54.4883 62.9152 54.52 63.0945 53.6024C63.1367 53.3282 63.2211 53.2227 63.4215 53.17C63.8223 53.075 64.4234 52.6532 64.8137 52.2102C65.3832 51.5668 65.6047 50.9657 65.6047 50.0586C65.6152 49.3625 65.5731 49.1727 65.2672 48.561C64.7188 47.443 63.8645 46.8629 62.525 46.6942C61.2699 46.536 60.7109 46.0614 60.6371 45.0805C60.5527 44.0258 61.2172 43.3086 62.2824 43.3086C63.2844 43.3086 63.8328 43.7938 63.991 44.8168C64.0965 45.4602 64.3602 45.7344 64.877 45.7344C65.4359 45.7344 65.7102 45.3125 65.6258 44.5848C65.4887 43.4352 64.6133 42.2645 63.5902 41.8743C63.2422 41.7371 63.1367 41.6422 63.1367 41.4629C63.1367 41.3364 63.0418 41.1043 62.9152 40.9461C62.6516 40.6086 62.0082 40.5559 61.734 40.8618Z" fill="#F4BB03"/>
<defs>
<filter id="filter0_b_110_1567" x="-25" y="-25" width="143" height="143" filterUnits="userSpaceOnUse" color-interpolation-filters="sRGB">
<feFlood flood-opacity="0" result="BackgroundImageFix"/>
<feGaussianBlur in="BackgroundImageFix" stdDeviation="12.5"/>
<feComposite in2="SourceAlpha" operator="in" result="effect1_backgroundBlur_110_1567"/>
<feBlend mode="normal" in="SourceGraphic" in2="effect1_backgroundBlur_110_1567" result="shape"/>
</filter>
</defs>
</svg>
