<svg width="93" height="93" viewBox="0 0 93 93" fill="none" xmlns="http://www.w3.org/2000/svg">
<g filter="url(#filter0_b_110_1587)">
<rect width="93" height="93" rx="16" fill="#818181" fill-opacity="0.1"/>
<rect x="0.5" y="0.5" width="92" height="92" rx="15.5" stroke="#939393" stroke-opacity="0.1"/>
</g>
<g clip-path="url(#clip0_110_1587)">
<path d="M45.7133 20.1685C44.5426 20.4428 43.4668 21.1494 42.7285 22.1092L42.2539 22.7209L40.9672 22.7631C39.459 22.8158 38.9316 23.0057 38.1617 23.7756C37.4762 24.4611 37.1492 25.2521 37.1492 26.2225C37.1492 26.9185 37.2969 27.5303 38.3305 31.1584C38.9844 33.4365 39.5117 35.3561 39.5117 35.4299C39.5117 35.5037 39.3008 35.7146 39.0477 35.8939C38.7418 36.1154 38.4992 36.4107 38.2988 36.8115C38.0457 37.3178 38.0141 37.4971 38.0563 38.1299C38.0879 38.7205 38.1512 38.9525 38.4359 39.3955C38.6152 39.7014 38.7734 39.965 38.7734 39.9756C38.7734 39.9967 38.5203 40.2076 38.2145 40.4396C37.3074 41.1252 35.8625 42.5385 34.7973 43.7725C32.7406 46.1771 31.0109 49.2357 30.0301 52.2205C29.7348 53.117 29.4922 53.9291 29.4922 54.0135C29.4922 54.1506 29.0281 54.1717 25.9801 54.1717C22.0039 54.1717 21.6664 54.2244 20.9387 54.8783C20.4008 55.3635 20.1055 55.9436 20.0316 56.6502C19.9684 57.2619 20.1793 58.0635 20.4957 58.4115C20.6645 58.6014 20.6645 58.6436 20.3691 59.1603C20.0949 59.635 20.0527 59.8143 20.0527 60.4998C20.0527 61.1748 20.0949 61.3646 20.3375 61.7865L20.6328 62.2717L20.3375 62.8307C20.1055 63.2947 20.0527 63.5268 20.0527 64.1385C20.0633 65.0033 20.2953 65.5518 20.8965 66.0686C21.2656 66.3955 21.2656 66.4061 21.1074 66.7119C20.9176 67.1021 20.907 68.2307 21.0969 68.6736C21.2234 68.9795 21.2129 69.0111 20.8543 69.3592C20.2637 69.9393 20.0527 70.4455 20.0527 71.3104C20.0633 72.4072 20.5379 73.1877 21.5293 73.7256C21.9512 73.9471 22.0039 73.9471 29.6926 73.9787C38.5836 74.0104 38.1195 74.0525 39.0371 73.1033L39.5645 72.5654L40.7246 72.9557C42.0535 73.3986 43.5406 73.7256 45.0172 73.8838C46.441 74.042 72.3969 74.042 72.8082 73.8838C73.209 73.7361 73.6836 73.2826 73.8523 72.8713C73.9789 72.5865 74 71.0256 74 64.0963C74 58.3799 73.9684 55.5639 73.884 55.3635C73.7258 54.9416 73.3777 54.5936 72.8926 54.3721C72.5023 54.1928 72.1332 54.1717 68.4945 54.1717C65.0246 54.1717 64.5078 54.1506 64.5078 54.0135C64.5078 53.9291 64.2652 53.117 63.9699 52.21C62.525 47.8225 59.7828 43.7725 56.2285 40.7982C55.7117 40.3553 55.2793 39.9756 55.2793 39.9439C55.2793 39.9123 55.4164 39.6486 55.5957 39.3533C56.0598 38.5834 56.102 37.6236 55.7012 36.8115C55.5008 36.4107 55.2582 36.1154 54.9523 35.8939C54.6992 35.7146 54.4883 35.5037 54.4883 35.4299C54.4883 35.3561 55.0156 33.4365 55.6695 31.1584C56.7031 27.5303 56.8508 26.9185 56.8508 26.2225C56.8508 25.2521 56.5238 24.4611 55.8383 23.7756C55.0684 23.0057 54.541 22.8158 53.0328 22.7631L51.7461 22.7209L51.2715 22.1092C49.9742 20.4322 47.7805 19.6623 45.7133 20.1685ZM48.5293 22.1619C49.257 22.51 49.9215 23.1744 50.259 23.9021C50.5227 24.4611 50.5332 24.5666 50.5859 26.9396L50.6387 29.4076L50.934 29.6607C51.2609 29.935 51.5352 29.9771 51.8832 29.7873C52.3578 29.5447 52.3684 29.4498 52.3789 26.9291V24.535H53.075C53.8871 24.535 54.4145 24.7775 54.773 25.3049C55.2477 26.001 55.2266 26.1381 53.8766 30.8631L52.632 35.24H47H41.368L40.1234 30.8631C38.7734 26.1592 38.7629 26.0326 39.2059 25.3049C39.5223 24.7881 40.1023 24.535 40.9355 24.535H41.6211V26.9291C41.6316 29.4498 41.6422 29.5447 42.1168 29.7873C42.4648 29.9771 42.7391 29.935 43.066 29.6607L43.3613 29.4076L43.4141 26.9396C43.4668 24.556 43.4773 24.4611 43.7516 23.8811C44.0363 23.2588 44.7113 22.5205 45.2598 22.2463C46.2723 21.7084 47.5484 21.6768 48.5293 22.1619ZM53.6762 37.2123C54.2352 37.5076 54.3512 38.1826 53.9082 38.615L53.6551 38.8787H47H40.3449L40.0918 38.615C39.6594 38.1932 39.7648 37.5182 40.3027 37.2123C40.6086 37.0436 53.3492 37.033 53.6762 37.2123ZM53.982 41.3256C55.1105 42.0955 56.8508 43.7303 57.9477 45.0486C59.7406 47.1896 61.4492 50.2271 62.2824 52.7478C63.6535 56.8928 63.4742 60.2889 61.7023 63.7693C59.3504 68.3783 54.4672 71.5107 48.7086 72.1119C46.1352 72.3756 42.9816 71.9432 40.577 71.0045C39.7754 70.6881 39.6594 70.5932 39.575 70.2451C39.5117 70.0236 39.575 69.8971 39.8809 69.6018C40.3977 69.1061 40.5875 68.6842 40.6508 67.9143C40.7141 67.0811 40.4926 66.4377 39.902 65.8049C39.5012 65.3619 39.4906 65.3408 39.6277 65.0139C39.8492 64.4865 39.7965 63.4846 39.5328 62.9572C39.4063 62.7146 39.2586 62.4932 39.1953 62.451C39.132 62.4193 39.227 62.1451 39.4273 61.7971C39.7121 61.2908 39.7648 61.0904 39.7648 60.4998C39.7648 59.9197 39.7121 59.7088 39.4379 59.2236C39.1215 58.6541 39.1109 58.6436 39.3113 58.401C39.5223 58.1373 39.8281 57.2303 39.8281 56.8611C39.8281 56.26 39.4801 55.5111 38.9844 55.0154C38.1934 54.2244 37.9297 54.1717 34.3227 54.1717C32.6563 54.1717 31.2852 54.1506 31.2852 54.1189C31.2852 54.0978 31.475 53.4861 31.707 52.7795C33.1203 48.4764 36.4426 43.8674 39.9336 41.3889L40.9355 40.6717H46.9789H53.0328L53.982 41.3256ZM37.4551 56.0912C37.8031 56.2494 38.0668 56.7451 37.9719 57.051C37.9402 57.1775 37.8031 57.3885 37.6871 57.515L37.4762 57.7576H29.9141C21.5504 57.7576 21.9723 57.7893 21.8352 57.0721C21.7613 56.6502 21.9828 56.2178 22.352 56.0701C22.7316 55.9225 37.1281 55.9436 37.4551 56.0912ZM67.9672 56.6924C68.2625 57.5994 68.8531 58.517 69.5281 59.1182C70.0766 59.6033 71.2789 60.2467 71.859 60.3521L72.207 60.4154V64.0857V67.7561L71.4793 67.9775C69.8129 68.4838 68.484 69.8127 67.9777 71.5002L67.7563 72.2068H61.523H55.2793L56.0387 71.785C60.8059 69.1904 63.9172 65.0877 64.7926 60.2572C64.9086 59.6033 64.9613 58.749 64.9613 57.6205L64.9508 55.9646H66.343H67.7352L67.9672 56.6924ZM72.207 57.283V58.6014L71.9223 58.4853C71.3316 58.2639 70.7305 57.8525 70.3719 57.4096C70.0238 56.9771 69.6758 56.3232 69.6758 56.0701C69.6758 56.0068 70.1398 55.9646 70.9414 55.9646H72.207V57.283ZM37.3285 59.6666C37.6238 59.751 37.7715 59.867 37.8981 60.1412C38.0668 60.4682 38.0668 60.5314 37.8981 60.8584C37.7715 61.1326 37.6238 61.2486 37.3285 61.333C37.0648 61.4068 34.4703 61.449 29.8086 61.449C23.2379 61.449 22.6578 61.4385 22.3203 61.2592C21.8879 61.0482 21.7086 60.6369 21.8563 60.2045C21.909 60.0463 22.1094 59.8459 22.3203 59.7404C22.6578 59.5611 23.2379 59.5506 29.8086 59.5506C34.4703 59.5506 37.0648 59.5928 37.3285 59.6666ZM37.6871 63.474C37.8031 63.6111 37.9402 63.8221 37.9719 63.9486C38.0773 64.265 37.7926 64.7713 37.434 64.9189C37.2125 65.0033 35.1664 65.035 29.7242 65.0139L22.2992 64.9822L22.0355 64.6764C21.8246 64.4232 21.7824 64.2967 21.8352 63.9908C21.9617 63.1998 21.4449 63.242 29.9035 63.242H37.4762L37.6871 63.474ZM38.6152 67.0916C39.0055 67.4713 38.9738 67.9986 38.552 68.3467L38.225 68.6209H30.8527C23.0375 68.6209 22.9953 68.6209 22.8055 68.1463C22.6684 67.7771 22.7422 67.3447 23.0059 67.0916L23.259 66.8279H30.8105H38.3621L38.6152 67.0916ZM72.207 70.9412V72.2068H70.9309H69.6547L69.718 71.9115C69.8973 71.2049 70.9203 70.0975 71.7008 69.7916C72.1965 69.5807 72.207 69.6018 72.207 70.9412ZM37.6766 70.667C38.0879 71.015 38.0879 71.6057 37.6766 71.9537L37.3918 72.2068H29.9035H22.4047L22.0988 71.901C21.7719 71.574 21.7191 71.2787 21.9195 70.9096C22.1832 70.4033 21.9512 70.4244 29.8824 70.4139H37.3918L37.6766 70.667Z" fill="#F4BB03"/>
<path d="M46.5043 47.158C46.3777 47.2424 46.2195 47.485 46.1563 47.6854C46.0824 47.9174 45.9664 48.0545 45.8504 48.0545C45.7449 48.0545 45.3652 48.2022 45.0066 48.3814C43.2664 49.2463 42.2434 51.2291 42.5703 53.0854C42.8551 54.7729 43.9941 56.1229 45.5656 56.6607L46.0508 56.8295V59.4557C46.0508 60.985 46.0086 62.0818 45.9559 62.0818C45.9031 62.0818 45.65 61.9236 45.3969 61.7338C44.8379 61.3014 44.3949 60.5209 44.3 59.7721C44.184 58.8123 43.4984 58.4115 42.8551 58.9178C42.507 59.192 42.4332 59.54 42.5809 60.3205C42.8445 61.776 43.741 62.9889 45.0277 63.6006C45.4496 63.801 45.8609 63.9803 45.9559 64.0119C46.0508 64.0436 46.1563 64.2123 46.1879 64.3916C46.2406 64.6236 46.3566 64.7713 46.6098 64.8873C46.9262 65.035 47 65.035 47.3481 64.8873C47.6539 64.7607 47.7594 64.6553 47.8121 64.4021C47.8438 64.2123 47.9492 64.0436 48.0441 64.0119C49.9004 63.4002 51.1238 62.0713 51.4297 60.2994C51.7672 58.4115 50.7336 56.4393 48.9512 55.585C48.5504 55.3846 48.1602 55.2264 48.0863 55.2264C47.9809 55.2264 47.9492 54.6568 47.9492 52.5897C47.9492 50.6701 47.9809 49.9529 48.0758 49.9529C48.2762 49.9529 48.8984 50.4803 49.2148 50.9232C49.3941 51.1658 49.5734 51.5982 49.6367 51.9357C49.7 52.2627 49.7738 52.6424 49.8055 52.7795C49.8371 52.9166 50.0059 53.0854 50.2168 53.1908C50.5121 53.3385 50.6176 53.3385 50.9023 53.2225C51.4191 53.0115 51.5668 52.6002 51.4402 51.7986C51.2398 50.4908 50.5543 49.3834 49.5102 48.6873C49.1516 48.4447 48.6559 48.2022 48.4027 48.1283C48.0336 48.0334 47.9281 47.949 47.8332 47.6643C47.7066 47.2529 47.3797 46.9998 47 46.9998C46.8523 46.9998 46.6309 47.0736 46.5043 47.158ZM46.0508 52.442V54.9311L45.6078 54.6674C44.7008 54.1506 44.1418 52.885 44.3738 51.8725C44.4266 51.6088 44.5742 51.2291 44.6902 51.0393C44.9434 50.6385 45.7133 49.9529 45.9137 49.9529C46.0191 49.9529 46.0508 50.4486 46.0508 52.442ZM48.3606 57.2725C48.7508 57.4729 49.2781 58.0846 49.4891 58.5803C49.7738 59.2236 49.7211 60.1623 49.3625 60.8268C49.0883 61.333 48.2973 62.0818 48.0441 62.0818C47.9914 62.0818 47.9492 61.0482 47.9492 59.6033C47.9492 58.2428 47.9703 57.1248 48.002 57.1248C48.0441 57.1248 48.2023 57.1986 48.3606 57.2725Z" fill="#F4BB03"/>
<path d="M67.3766 61.7233C65.8367 62.4932 65.436 64.5288 66.5645 65.8471C67.8301 67.3237 70.2559 66.9756 71.0574 65.1932C71.2789 64.7081 71.3106 63.8221 71.1313 63.221C70.9625 62.6725 70.3192 61.9448 69.7285 61.6706C69.0324 61.3436 68.0938 61.3647 67.3766 61.7233ZM69.2434 63.5163C69.8445 64.2862 69.0535 65.3198 68.1992 64.8768C67.3449 64.4338 67.6508 63.242 68.6106 63.242C68.9375 63.242 69.0746 63.3053 69.2434 63.5163Z" fill="#F4BB03"/>
</g>
<defs>
<filter id="filter0_b_110_1587" x="-25" y="-25" width="143" height="143" filterUnits="userSpaceOnUse" color-interpolation-filters="sRGB">
<feFlood flood-opacity="0" result="BackgroundImageFix"/>
<feGaussianBlur in="BackgroundImageFix" stdDeviation="12.5"/>
<feComposite in2="SourceAlpha" operator="in" result="effect1_backgroundBlur_110_1587"/>
<feBlend mode="normal" in="SourceGraphic" in2="effect1_backgroundBlur_110_1587" result="shape"/>
</filter>
<clipPath id="clip0_110_1587">
<rect width="54" height="54" fill="white" transform="translate(20 20)"/>
</clipPath>
</defs>
</svg>
